<?xml version="1.0" encoding="UTF-8"?>
<svg id="Capa_2" data-name="Capa 2" xmlns="http://www.w3.org/2000/svg" viewBox="0 0 56.69 56.74">
  <defs>
    <style>
      .cls-1 {
        fill: #edf0f4;
      }
    </style>
  </defs>
  <g id="Capa_1-2" data-name="Capa 1">
    <g>
      <path class="cls-1" d="M28.16,40.12c-1.28,0-1.93-.04-2.04-.06-.35-.08-.47-.57-.6-1.25-.06-.34-.12-.66-.24-.92-.17-.36-.66-.6-1.39-.92-.19-.08-.37-.16-.49-.23-.14-.08-.3-.2-.46-.32-.43-.32-.87-.64-1.32-.64-.61.04-1.03.21-1.36.34-.22.09-.4.17-.55.17h0c-.08,0-.34,0-.86-.79-.38-.57-1.74-2.95-1.82-3.34-.01-.24.51-.72.86-1.04.32-.29.62-.56.79-.85l.06-.1v-3.51c-.06-.33-.28-.56-.92-1.14-.24-.22-.57-.52-.64-.63-.21-.32-.14-.5.12-.99l.13-.25c.34-.68,1.58-2.82,1.87-3.07.12-.1.25-.14.41-.14.26,0,.55.11.87.23.35.13.72.27,1.1.27.07,0,.13,0,.2-.01.21-.03.44-.19,1.01-.6.21-.15.4-.29.52-.36.12-.07.29-.14.49-.23.73-.32,1.23-.56,1.39-.92.12-.25.18-.57.24-.9.1-.54.21-1.15.54-1.25.15-.04,1-.07,2.28-.07s2.14.04,2.29.08c.32.1.42.62.5,1.3.06.46.11.86.32,1.13.13.17.37.26.81.41.17.06.34.12.43.17.15.09.43.27.72.47.71.48,1.04.7,1.25.75.1.02.21.04.32.04h0c.37,0,.74-.14,1.09-.27.31-.11.63-.23.88-.23.2,0,.34.07.48.23.25.29,2,3.38,2.12,3.8.05.38-.26.69-.79,1.15-.25.22-.51.44-.71.71l-.1.14.02.17c.12.99.21,2.17-.01,3.37l-.03.16.08.14c.17.28.46.54.77.83.38.35.91.84.87,1.14-.09.32-1.53,2.82-1.88,3.31-.5.72-.79.72-.88.72-.18,0-.38-.09-.62-.2-.34-.15-.72-.33-1.2-.33-.09,0-.18,0-.27.02-.21.03-.44.19-1.01.6-.21.15-.4.29-.52.36-.12.07-.29.14-.49.23-.73.32-1.23.56-1.39.92-.12.25-.18.57-.24.9-.1.54-.21,1.15-.54,1.25-.16.04-1.13.08-2.47.08ZM22.15,34.43c.1,0,.19.01.29.04.06.04.42.32.69.53.41.33.81.64,1.05.77.28.16.64.29.99.42.34.13.74.28.9.4.21.16.39.96.47,1.34.13.57.19.86.51.95l.06.02,2.86-.02.06-.35c.02-.11.04-.24.06-.39.06-.44.2-1.36.44-1.57.1-.08.6-.27.93-.4.42-.16.85-.33,1.12-.48.22-.13.53-.37.86-.63.28-.22.7-.55.82-.59.07-.02.16-.02.25-.02.27,0,.55.08.84.17.34.1.69.21,1.08.21.06,0,.11,0,.17,0l.22-.02,1.3-2.24v-.09c.05-.37-.26-.65-.68-1.03-.32-.29-.81-.73-.82-1.03,0-.19.06-.46.12-.74.06-.28.13-.57.15-.86.03-.47-.06-1.03-.14-1.57-.07-.48-.16-1.01-.1-1.25.04-.2.53-.71,1.27-1.23l.07-.05.05-.07c.26-.4-.08-.91-.56-1.62-.18-.27-.45-.67-.48-.8l-.07-.32s-.34-.05-.35-.05c-.48,0-.84.11-1.18.22-.3.09-.58.18-.85.18-.1,0-.19-.01-.28-.04-.05-.03-.4-.31-.66-.51-.44-.34-.89-.69-1.16-.84-.26-.14-.61-.27-.95-.4-.32-.12-.72-.27-.85-.37-.24-.18-.37-.84-.47-1.32-.05-.25-.1-.48-.15-.67l-.09-.3h-3.18s-.06.34-.06.34c-.02.11-.04.24-.06.39-.06.44-.2,1.36-.44,1.57-.1.08-.6.27-.92.4-.42.16-.85.33-1.12.49-.22.13-.53.37-.86.63-.28.22-.7.55-.82.59-.07.01-.16.02-.25.02-.27,0-.55-.08-.84-.17-.34-.1-.69-.21-1.08-.21-.06,0-.11,0-.17,0l-.22.02-1.31,2.24v.1c-.03.3.2.5.75.99.21.18.55.48.62.59.22.36.11.95,0,1.51-.06.33-.13.67-.13.98,0,.33.06.71.14,1.1.09.49.18.99.11,1.31-.04.2-.53.71-1.27,1.23l-.07.05-.05.07c-.26.4.07.89.57,1.63.18.26.44.66.47.79l.07.3.31.06c.07,0,.13.01.2.01.38,0,.73-.11,1.06-.22.28-.09.55-.18.8-.18Z"/>
      <path class="cls-1" d="M3.75,18.75c-.1-.05-.22-.18-.25-.27-.14-.44-.12-3.67-.04-4.6.15-1.84,1.38-3.48,3-3.99l.62-.2-.43-.49c-1.05-1.2-1.41-2.94-.94-4.54.45-1.53,1.55-2.65,3.01-3.06.49-.14.97-.21,1.45-.21,1.77,0,3.35,1.01,4.13,2.64.81,1.71.55,3.65-.7,5.18l-.4.49.6.19c1.62.51,2.85,2.15,3,3.99.07.93.09,4.16-.04,4.6-.03.09-.15.22-.25.27H3.75ZM13.16,13.62c.31,0,.59.11.59.24v3.78h1.86v-4.03c0-.98-1.35-2.32-2.2-2.65-.68-.26-2.22-.31-3.4-.31-.75,0-1.52.02-2.01.06-1.25.1-2.27.7-2.88,1.71,0,0-.49.94-.49,1.19v4.03h1.86v-3.78c0-.12.28-.24.59-.24s.59.11.59.24v3.78h4.9v-3.78c0-.12.28-.24.59-.24ZM10.12,2.62c-1.91,0-3.46,1.55-3.46,3.46s1.55,3.46,3.46,3.46,3.46-1.55,3.46-3.46-1.55-3.46-3.46-3.46Z"/>
      <path class="cls-1" d="M47.58,56.31c-.98,0-1.65-.13-1.86-.25-.75-.44-.73-.95-.7-1.66.01-.36.03-.74-.06-1.13-.04-.16-.13-.23-.29-.36-.16-.13-.5-.41-.59-.64-.07-.17-.09-.43-.1-.64-.02-.24-.03-.41-.11-.55-.05-.1-.11-.15-.57-.54-.31-.27-.78-.67-.91-.82-1.43-1.74-1.84-4.09-1.11-6.28s2.47-3.81,4.64-4.34c.56-.14,1.12-.21,1.67-.21,2.57,0,4.86,1.5,5.97,3.92,1.11,2.41.73,5.06-1,7.09-.11.13-.51.46-.77.68-.41.34-.47.39-.52.49-.08.14-.09.31-.11.55-.02.21-.04.47-.1.64-.09.23-.43.51-.59.64-.15.13-.25.2-.29.36-.09.39-.08.76-.06,1.13.03.71.05,1.22-.7,1.66-.21.12-.88.25-1.85.25ZM46.15,55.1h2.87v-1.86h-2.87v1.86ZM48.56,47.16l-.39.03v4.87h1.93s-.07-.49-.07-.49c-.11-.78.25-1.13.92-1.67.26-.21.52-.43.76-.7,1.46-1.69,1.79-3.88.88-5.88-.9-1.97-2.85-3.25-4.96-3.25-.51,0-1.03.07-1.54.21-1.8.49-3.2,1.87-3.74,3.7-.55,1.85-.13,3.8,1.13,5.22.23.26.48.47.73.67.68.56,1.06.91.94,1.7l-.07.49h1.93v-4.87l-.39-.03c-.08,0-.15,0-.23,0-.12,0-.24,0-.36.01-.11,0-.21.01-.32.01-.09,0-.18,0-.26-.02-.34-.05-.49-.34-.48-.59,0-.12.05-.52.58-.59.21-.02.89-.04,1.66-.04,1.53,0,2.54.06,2.72.11.14.06.25.23.27.44.03.23-.06.45-.21.56-.12.09-.29.13-.56.13-.1,0-.2,0-.31,0-.11,0-.23-.01-.34-.01-.07,0-.15,0-.22,0Z"/>
      <path class="cls-1" d="M9.11,56.27c-4.79,0-8.69-3.9-8.69-8.69s3.9-8.69,8.69-8.69,8.69,3.9,8.69,8.69-3.9,8.69-8.69,8.69ZM9.11,40.07c-4.14,0-7.51,3.37-7.51,7.51s3.37,7.51,7.51,7.51,7.51-3.37,7.51-7.51-3.37-7.51-7.51-7.51Z"/>
      <path class="cls-1" d="M47.58,17.8c-4.79,0-8.69-3.9-8.69-8.69S42.79.43,47.58.43s8.69,3.9,8.69,8.69-3.9,8.69-8.69,8.69ZM47.58,1.6c-4.14,0-7.51,3.37-7.51,7.51s3.37,7.51,7.51,7.51,7.51-3.37,7.51-7.51-3.37-7.51-7.51-7.51Z"/>
      <path class="cls-1" d="M21.19,9.7c-.34-.03-.5-.29-.53-.51-.03-.22.06-.5.38-.64l14.45-.03c.38.04.53.33.53.59s-.15.54-.56.59h-14.28Z"/>
      <path class="cls-1" d="M21.19,48.17c-.34-.03-.5-.29-.53-.51-.03-.22.06-.5.38-.64l14.45-.03c.38.04.53.33.53.59,0,.25-.15.54-.56.59h-14.28Z"/>
      <path class="cls-1" d="M10.13,36.05c-.26,0-.55-.19-.6-.71-.2-2.15-.11-4.51-.02-6.79.08-2.12.17-4.32.02-6.38,0-.2.19-.43.39-.48.08-.02.16-.03.24-.03.13,0,.49,0,.56.7.2,2.15.11,4.51.02,6.78-.08,2.12-.17,4.32-.02,6.38-.05.33-.33.52-.59.52Z"/>
      <path class="cls-1" d="M47.59,36.05c-.26,0-.55-.19-.6-.71-.2-2.15-.11-4.51-.02-6.79.08-2.12.17-4.32.02-6.38,0-.2.19-.43.39-.48.08-.02.16-.03.24-.03.13,0,.49,0,.56.7.2,2.15.11,4.51.02,6.78-.08,2.12-.17,4.32-.02,6.38-.05.33-.33.52-.59.52Z"/>
      <path class="cls-1" d="M28.35,33.99c-3.11,0-5.65-2.53-5.65-5.65s2.53-5.65,5.65-5.65,5.65,2.53,5.65,5.65-2.53,5.65-5.65,5.65ZM28.34,23.87c-2.47,0-4.48,2.01-4.48,4.48s2.01,4.48,4.48,4.48,4.48-2.01,4.48-4.48-2.01-4.48-4.48-4.48Z"/>
      <path class="cls-1" d="M6.04,51.24c-.12,0-.24-.06-.38-.18-.22-.2-.22-.33-.22-.38,0-.39.63-.93,1.08-1.33.4-.35.75-.65.89-.97.11-.24.12-.5.13-.76,0-.24.02-.46.1-.68.09-.23.43-.51.59-.64.15-.13.25-.2.29-.36.1-.39.06-.95.02-1.6-.06-.89-.14-2.23.32-2.38.1-.03.19-.05.28-.05.32,0,.52.21.57.58.03.23,0,.86-.01,1.46-.05,1.5-.04,1.93.09,2.16.06.1.14.15.25.22.08.05.25.15.32.24.34.46.43,1.06.22,1.61-.2.51-.6.87-1.12.97-.07.01-.14.02-.21.02h-.3c-.17,0-.4,0-.62.11-.34.15-.65.51-1,.92-.39.46-.88,1.04-1.27,1.04Z"/>
      <path class="cls-1" d="M47.57,13.76c-.39,0-.42-.15-.5-.44-.04-.16-.08-.33-.23-.46-.15-.13-.33-.15-.5-.15-.08,0-.17,0-.26,0-.1,0-.22.01-.33.01-.64,0-.77-.18-.78-.54,0-.2.2-.58.32-.64h3.74s0-1.8,0-1.8l-.36-.05c-.2-.03-.42-.04-.65-.04-.34,0-.7.02-1.06.05-.34.02-.68.05-.99.05-.26,0-.46-.02-.62-.05-.15-.03-.34-.32-.37-.58-.07-.63-.04-3.07.1-3.42.06-.11.19-.23.64-.23.13,0,.26.01.37.02.11,0,.21.02.29.02.14,0,.32-.02.47-.15.14-.12.18-.29.22-.44.07-.31.12-.44.49-.46h0c.44,0,.48.15.55.44.04.16.08.33.23.46.15.13.33.15.5.15.08,0,.17,0,.26,0,.1,0,.22-.01.33-.01.64,0,.77.18.78.54,0,.2-.2.58-.32.64h-3.74s0,1.86,0,1.86h3.78c.06.04.25.37.28.57.07.63.04,3.07-.1,3.42-.06.11-.19.23-.64.23-.13,0-.26,0-.37-.02-.11,0-.21-.02-.29-.02-.14,0-.32.02-.47.15-.14.12-.18.29-.22.44-.07.31-.12.44-.48.46h-.06Z"/>
    </g>
  </g>
</svg>