<?xml version="1.0" encoding="UTF-8"?>
<svg id="Capa_1" data-name="Capa 1" xmlns="http://www.w3.org/2000/svg" viewBox="0 0 357.33 144.73">
  <defs>
    <style>
      .cls-1 {
        fill: #edf0f4;
      }
    </style>
  </defs>
  <path class="cls-1" d="M284.96,144.73H72.37C32.46,144.73,0,112.27,0,72.37S32.46,0,72.37,0h212.6C324.87,0,357.33,32.46,357.33,72.37s-32.46,72.37-72.37,72.37ZM72.37,3C34.12,3,3,34.12,3,72.37s31.12,69.37,69.37,69.37h212.6c38.25,0,69.37-31.12,69.37-69.37S323.21,3,284.96,3H72.37Z"/>
  <g>
    <path class="cls-1" d="M134.02,80.28l7.85-1.66c1.08,6.12,4.97,9.07,11.52,9.07,5.98,0,8.71-2.16,8.71-5.69s-2.38-5.54-10.87-6.98c-11.81-1.94-15.55-6.48-15.55-13.25,0-7.71,5.47-12.46,16.56-12.46s15.62,5.18,17.07,12.75l-8.14,1.58c-1.15-5.11-3.31-7.78-9.36-7.78-5.47,0-8.06,2.02-8.06,5.47,0,3.1,1.66,5.26,10.73,6.91,12.89,2.38,15.84,7.06,15.84,13.25,0,7.92-5.04,12.89-17.21,12.89-13.03-.07-18-6.12-19.08-14.11Z"/>
    <path class="cls-1" d="M197.38,85.4h-.79c-1.73,5.47-5.62,8.78-11.59,8.78s-10.3-2.88-10.3-9.5c0-6.05,3.67-10.44,12.24-10.44h10.08v-2.3c0-4.39-1.8-6.91-6.55-6.91-3.96,0-6.26,2.02-7.13,5.98l-7.34-1.66c1.3-6.41,6.12-10.51,14.76-10.51,9.79,0,13.97,4.61,13.97,13.03v21.6h-7.34v-8.06ZM197.02,80.72v-1.37h-8.78c-3.89,0-6.12,1.44-6.12,4.25,0,2.45,1.51,4.54,5.9,4.54,5.4,0,9-3.17,9-7.42Z"/>
    <path class="cls-1" d="M220.56,93.46h-7.78v-46.23h7.78v46.23Z"/>
    <path class="cls-1" d="M251.6,84.53h-.72c-1.87,6.26-6.19,9.87-11.81,9.87-7.13,0-10.51-4.82-10.51-12.17v-22.61h7.78v20.59c0,4.1,1.8,7.13,6.41,7.13,5.26,0,8.64-3.46,8.64-8.57v-19.15h7.78v33.84h-7.56v-8.93Z"/>
    <path class="cls-1" d="M289.9,84.53h-.5c-1.73,5.83-5.76,9.87-11.81,9.87-7.78,0-12.31-6.27-12.31-17.71s4.61-18,12.53-17.93c6.12-.07,9.86,3.82,11.59,9.72h.5v-21.24h7.7v46.23h-7.7v-8.93ZM289.9,78.05v-2.59c0-5.83-3.38-9.72-8.64-9.72-5.62,0-8.35,3.53-8.35,10.94s2.59,10.8,8.35,10.8c5.18,0,8.64-3.67,8.64-9.43Z"/>
  </g>
  <path class="cls-1" d="M65.28,115.89c-24,0-43.52-19.52-43.52-43.52s19.52-43.52,43.52-43.52,43.52,19.52,43.52,43.52-19.52,43.52-43.52,43.52ZM65.28,30.85c-22.89,0-41.52,18.63-41.52,41.52s18.63,41.52,41.52,41.52,41.52-18.63,41.52-41.52-18.63-41.52-41.52-41.52Z"/>
  <g>
    <path class="cls-1" d="M93.59,77.32c-.51,4.59-5.71,7.22-9.74,5.03-5.6-3.04-4.05-11.47,2.21-12.34.11-2.23-.14-4.43-1.6-6.19-3.69-4.47-10.05-1.74-10.66,3.61-.29,6.44.34,13.16,0,19.57-.65,12.01-15.01,17.13-21.58,6.74-1.69-2.68-2.13-5.54-2.11-8.67-3.18-.48-2.76-3.74-2.77-6.19-4.1-1.05-7.7-3.93-9.37-7.83-.95-2.21-1.12-4.39-1.01-6.79h1.88v-12.78c0-1.52,1.5-3.2,2.84-3.8.32-.14.88-.22,1.07-.34.1-.06.42-.83.63-1.06,2-2.21,5.83-.05,4.78,2.9-.85,2.38-4.32,2.52-5.24.16-.94-.15-2.2,1.45-2.2,2.25v12.66h2.88v2.82c0,.52.63,2.12.91,2.63,2.89,5.34,11.53,5.25,14.27-.18.35-.7.87-2.25.87-3.01v-2.27h1.88c-.11-3.57.15-7.23,0-10.79-.03-.65-.07-2.07-.28-2.59-.27-.67-1.13-1.47-1.87-1.56-1.34,2.94-5.73,1.82-5.36-1.47.25-2.27,3.24-3.24,4.8-1.62.28.29.49.95.63,1.08.09.08,1.19.38,1.56.6,1.31.78,2.4,2.46,2.4,4.02v12.33h1.88c.1,2.33-.05,4.47-.94,6.63-1.64,3.98-5.3,6.92-9.44,7.98-.11,1.85.42,4.44-1.35,5.67-.48.33-.95.34-1.44.58-.46,4.54,1.63,9.38,5.87,11.37,7.07,3.32,13.54-2.52,13.93-9.62.36-6.32-.41-13.07,0-19.36.39-6,7.02-10.04,12.27-6.51,3,2.01,4.01,5.5,3.78,8.99,2.46.37,4.6,2.19,5.33,4.57.08.25.27.97.3,1.19.04.38.04,1.17,0,1.55ZM46.38,48.21c0-.51-.42-.93-.93-.93s-.93.42-.93.93.42.93.93.93.93-.42.93-.93ZM57.71,48.21c0-.51-.41-.93-.93-.93s-.93.41-.93.93.41.93.93.93.93-.41.93-.93ZM41.72,66.15h-2.88c.21,9.25,10.66,13.96,18.47,9.79,3.57-1.91,6.09-5.67,6.08-9.79h-1.88c-.16,5.91-5,9.78-10.79,9.41-4.93-.32-9.1-4.39-9.01-9.41ZM91.69,76.53c0-2.6-2.11-4.7-4.7-4.7s-4.7,2.11-4.7,4.7,2.11,4.7,4.7,4.7,4.7-2.11,4.7-4.7ZM53,79.2c-.08-.03-.13.11-.17.11h-3.43s-.08-.14-.17-.11v2.71c0,.25.31.95.56,1.1.47.29,2.34.29,2.76-.09.15-.13.43-.85.43-1v-2.71Z"/>
    <path class="cls-1" d="M89.81,76.53c0,1.56-1.26,2.82-2.82,2.82s-2.82-1.26-2.82-2.82,1.26-2.82,2.82-2.82,2.82,1.26,2.82,2.82ZM87.92,76.53c0-.51-.42-.93-.93-.93s-.93.42-.93.93.42.93.93.93.93-.42.93-.93Z"/>
  </g>
</svg>