<?xml version="1.0" encoding="UTF-8"?>
<svg id="Capa_1" data-name="Capa 1" xmlns="http://www.w3.org/2000/svg" viewBox="0 0 992.29 144.73">
  <defs>
    <style>
      .cls-1 {
        fill: #edf0f4;
      }
    </style>
  </defs>
  <path class="cls-1" d="M919.93,144.73H72.37C32.46,144.73,0,112.27,0,72.37S32.46,0,72.37,0h847.56C959.83,0,992.29,32.46,992.29,72.37s-32.46,72.37-72.37,72.37ZM72.37,3C34.12,3,3,34.12,3,72.37s31.12,69.37,69.37,69.37h847.56c38.25,0,69.37-31.12,69.37-69.37S958.17,3,919.93,3H72.37Z"/>
  <g>
    <path class="cls-1" d="M160.27,82.44h-18.43l-3.74,11.02h-8.5l16.06-43.2h11.09l16.06,43.2h-8.78l-3.74-11.02ZM144,76.32h14.11l-1.8-5.33c-1.51-4.39-3.02-9.29-4.32-13.61h-1.8c-1.3,4.32-2.88,9.22-4.39,13.61l-1.8,5.33Z"/>
    <path class="cls-1" d="M199.15,84.53h-.5c-1.73,5.83-5.76,9.86-11.81,9.86-7.78,0-12.31-6.26-12.31-17.71s4.61-18,12.53-17.93c6.12-.07,9.86,3.82,11.59,9.72h.5v-21.24h7.7v46.23h-7.7v-8.93ZM199.15,78.05v-2.59c0-5.83-3.38-9.72-8.64-9.72-5.62,0-8.35,3.53-8.35,10.95s2.59,10.8,8.35,10.8c5.18,0,8.64-3.67,8.64-9.43Z"/>
    <path class="cls-1" d="M222.62,93.46h-7.7v-33.84h7.56v8.93h.65c1.87-6.34,6.12-9.79,11.88-9.79,6.34,0,9.5,3.89,10.01,10.15h.79c1.66-6.48,5.62-10.15,11.88-10.15,7.13,0,10.58,4.75,10.58,12.1v22.61h-7.78v-20.59c0-4.1-1.87-7.13-6.41-7.13-5.33,0-8.64,3.46-8.64,8.57v19.15h-7.7v-20.59c0-4.1-1.94-7.13-6.48-7.13-5.18,0-8.64,3.46-8.64,8.57v19.15Z"/>
    <path class="cls-1" d="M276.19,53.86v-6.26h8.42v6.26h-8.42ZM276.48,93.46v-33.84h7.78v33.84h-7.78Z"/>
    <path class="cls-1" d="M300.52,93.46h-7.7v-33.84h7.56v8.93h.65c1.87-6.26,6.19-9.79,11.88-9.79,7.06,0,10.44,4.75,10.44,12.1v22.61h-7.7v-20.59c0-4.1-1.8-7.13-6.48-7.13-5.18,0-8.64,3.46-8.64,8.57v19.15Z"/>
    <path class="cls-1" d="M331.19,53.86v-6.26h8.42v6.26h-8.42ZM331.48,93.46v-33.84h7.78v33.84h-7.78Z"/>
    <path class="cls-1" d="M345.45,83.45l6.98-1.44c1.08,4.1,3.46,6.7,8.93,6.7,4.1,0,6.26-1.44,6.26-4.32,0-2.66-1.87-3.96-8.57-5.18-9-1.8-12.17-4.82-12.17-10.44,0-6.12,4.46-10.01,13.47-10.01s12.46,3.82,13.83,9.79l-6.98,1.51c-.94-4.18-2.95-5.76-6.98-5.76s-5.98,1.51-5.98,4.03c0,2.38,1.44,4.03,7.85,5.18,10.01,1.87,13.03,5.26,13.03,10.58,0,6.26-4.18,10.3-13.9,10.3-10.94,0-14.54-4.46-15.77-10.94Z"/>
    <path class="cls-1" d="M383.03,65.88h-4.75v-6.26h4.75v-9.15h7.78v9.15h9.94v6.26h-9.94v16.2c0,3.31,1.22,5.04,4.61,5.04,1.73,0,3.24-.36,4.9-.86l.94,6.91c-2.52.79-4.25,1.22-7.63,1.22-7.42,0-10.58-4.9-10.58-11.23v-17.28Z"/>
    <path class="cls-1" d="M406.72,93.46v-33.84h7.34v10.15l.65.07c1.94-8.21,5.11-10.58,10.01-10.58h1.22v8.71h-1.87c-7.13,0-9.65,2.52-9.65,9.43v16.06h-7.7Z"/>
    <path class="cls-1" d="M451.86,85.4h-.79c-1.73,5.47-5.62,8.78-11.59,8.78s-10.3-2.88-10.3-9.5c0-6.05,3.67-10.44,12.24-10.44h10.08v-2.3c0-4.39-1.8-6.91-6.55-6.91-3.96,0-6.26,2.02-7.13,5.98l-7.34-1.66c1.3-6.41,6.12-10.51,14.76-10.51,9.79,0,13.97,4.61,13.97,13.03v21.6h-7.34v-8.06ZM451.5,80.72v-1.37h-8.78c-3.89,0-6.12,1.44-6.12,4.25,0,2.45,1.51,4.54,5.9,4.54,5.4,0,9-3.17,9-7.42Z"/>
    <path class="cls-1" d="M482.03,65.6c-5.54,0-9,3.53-9,10.94,0,6.84,3.17,11.02,9.22,11.02,5.47,0,7.34-3.38,8.35-7.49l7.13,1.73c-1.37,7.85-6.12,12.6-15.41,12.6-10.66,0-17.21-6.19-17.21-17.57s6.7-18.07,17.07-18.07c9.72,0,14.11,4.61,15.48,12.67l-7.27,1.37c-1.01-4.32-3.02-7.2-8.35-7.2Z"/>
    <path class="cls-1" d="M504.13,53.86v-6.26h8.42v6.26h-8.42ZM504.42,93.46v-33.84h7.78v33.84h-7.78Z"/>
    <path class="cls-1" d="M518.82,76.47c0-11.16,6.7-17.71,17.21-17.71s17.07,6.55,17.07,17.71-6.34,17.93-17.07,17.93-17.21-6.84-17.21-17.93ZM526.6,76.4c0,6.98,2.88,11.3,9.36,11.3s9.43-4.32,9.43-11.3-3.17-11.09-9.43-11.09-9.36,4.1-9.36,11.09ZM528.76,52.35l16.85-9.72,2.88,5.54-17.79,7.99-1.94-3.82Z"/>
    <path class="cls-1" d="M566.92,93.46h-7.7v-33.84h7.56v8.93h.65c1.87-6.26,6.19-9.79,11.88-9.79,7.06,0,10.44,4.75,10.44,12.1v22.61h-7.7v-20.59c0-4.1-1.8-7.13-6.48-7.13-5.18,0-8.64,3.46-8.64,8.57v19.15Z"/>
    <path class="cls-1" d="M607.31,105.63l1.22-6.98c1.44.29,2.88.5,4.32.5,3.82,0,5.83-.94,8.06-6.05l-13.61-33.48h8.5l3.96,12.24c1.37,4.25,3.24,9.87,4.68,14.76h1.15c1.51-5.04,3.17-10.44,4.46-14.62l3.67-12.38h8.28l-13.97,34.27c-3.46,8.42-7.63,12.17-15.41,12.17-2.23,0-3.74-.22-5.33-.43Z"/>
    <path class="cls-1" d="M676.21,77.26h-8.06v16.2h-8.21v-43.2h18.15c10.8,0,15.91,4.54,15.91,13.11,0,6.77-3.46,11.23-9.5,13.03l12.02,16.27v.79h-9.58l-10.73-16.2ZM668.15,57.17v13.18h9.22c5.62,0,8.57-2.16,8.57-6.77s-2.23-6.41-8.42-6.41h-9.36Z"/>
    <path class="cls-1" d="M697.09,76.97c0-11.45,6.48-18.22,17.07-18.22s15.19,6.19,15.19,15.48c0,1.3,0,2.81-.14,4.54h-24.41c.58,6.12,3.67,9.22,9.43,9.22,5.4,0,7.27-2.59,8.21-5.83l6.62,1.87c-1.58,6.12-5.83,10.3-14.91,10.3-10.37,0-17.07-6.05-17.07-17.35ZM704.87,73.59h17.35c-.29-5.83-2.88-8.86-8.28-8.86s-8.35,2.81-9.07,8.86Z"/>
    <path class="cls-1" d="M750.59,65.6c-5.54,0-9,3.53-9,10.94,0,6.84,3.17,11.02,9.22,11.02,5.47,0,7.34-3.38,8.35-7.49l7.13,1.73c-1.37,7.85-6.12,12.6-15.41,12.6-10.66,0-17.21-6.19-17.21-17.57s6.7-18.07,17.07-18.07c9.72,0,14.11,4.61,15.48,12.67l-7.27,1.37c-1.01-4.32-3.02-7.2-8.35-7.2Z"/>
    <path class="cls-1" d="M795.3,84.53h-.72c-1.87,6.26-6.19,9.86-11.81,9.86-7.13,0-10.51-4.82-10.51-12.17v-22.61h7.78v20.59c0,4.1,1.8,7.13,6.41,7.13,5.26,0,8.64-3.46,8.64-8.57v-19.15h7.78v33.84h-7.56v-8.93Z"/>
    <path class="cls-1" d="M810.92,93.46v-33.84h7.34v10.15l.65.07c1.94-8.21,5.11-10.58,10.01-10.58h1.22v8.71h-1.87c-7.13,0-9.65,2.52-9.65,9.43v16.06h-7.7Z"/>
    <path class="cls-1" d="M833.02,83.45l6.98-1.44c1.08,4.1,3.46,6.7,8.93,6.7,4.1,0,6.26-1.44,6.26-4.32,0-2.66-1.87-3.96-8.57-5.18-9-1.8-12.17-4.82-12.17-10.44,0-6.12,4.46-10.01,13.47-10.01s12.46,3.82,13.83,9.79l-6.98,1.51c-.94-4.18-2.95-5.76-6.98-5.76s-5.98,1.51-5.98,4.03c0,2.38,1.44,4.03,7.85,5.18,10.01,1.87,13.03,5.26,13.03,10.58,0,6.26-4.18,10.3-13.9,10.3-10.94,0-14.54-4.46-15.77-10.94Z"/>
    <path class="cls-1" d="M866.72,76.47c0-11.16,6.7-17.71,17.21-17.71s17.07,6.55,17.07,17.71-6.34,17.93-17.07,17.93-17.21-6.84-17.21-17.93ZM874.49,76.4c0,6.98,2.88,11.3,9.36,11.3s9.43-4.32,9.43-11.3-3.17-11.09-9.43-11.09-9.36,4.1-9.36,11.09Z"/>
    <path class="cls-1" d="M904.73,83.45l6.98-1.44c1.08,4.1,3.46,6.7,8.93,6.7,4.1,0,6.26-1.44,6.26-4.32,0-2.66-1.87-3.96-8.57-5.18-9-1.8-12.17-4.82-12.17-10.44,0-6.12,4.46-10.01,13.47-10.01s12.46,3.82,13.83,9.79l-6.98,1.51c-.94-4.18-2.95-5.76-6.98-5.76s-5.98,1.51-5.98,4.03c0,2.38,1.44,4.03,7.85,5.18,10.01,1.87,13.03,5.26,13.03,10.58,0,6.26-4.18,10.3-13.9,10.3-10.94,0-14.54-4.46-15.77-10.94Z"/>
  </g>
  <path class="cls-1" d="M65.28,115.89c-24,0-43.52-19.52-43.52-43.52s19.52-43.52,43.52-43.52,43.52,19.52,43.52,43.52-19.52,43.52-43.52,43.52ZM65.28,30.85c-22.89,0-41.52,18.63-41.52,41.52s18.63,41.52,41.52,41.52,41.52-18.63,41.52-41.52-18.63-41.52-41.52-41.52Z"/>
  <g>
    <path class="cls-1" d="M65.09,84.11c-1.28,0-1.93-.04-2.04-.06-.35-.08-.47-.57-.6-1.25-.06-.34-.12-.66-.24-.92-.17-.36-.66-.6-1.39-.92-.19-.08-.37-.16-.49-.23-.14-.08-.3-.2-.46-.32-.43-.32-.87-.64-1.32-.64-.61.04-1.03.21-1.36.34-.22.09-.4.17-.55.17h0c-.08,0-.34,0-.86-.79-.38-.57-1.74-2.95-1.82-3.34-.01-.24.51-.72.86-1.04.32-.29.62-.56.79-.85l.06-.1v-3.51c-.06-.33-.28-.56-.92-1.14-.24-.22-.57-.52-.64-.63-.21-.32-.14-.5.12-.99l.13-.25c.34-.68,1.58-2.82,1.87-3.07.12-.1.25-.14.41-.14.26,0,.55.11.87.23.35.13.72.27,1.1.27.07,0,.13,0,.2-.01.21-.03.44-.19,1.01-.6.21-.15.4-.29.52-.36.12-.07.29-.14.49-.23.73-.32,1.23-.56,1.39-.92.12-.25.18-.57.24-.9.1-.54.21-1.15.54-1.25.15-.04,1-.07,2.28-.07s2.14.04,2.29.08c.32.1.42.62.5,1.3.06.46.11.86.32,1.13.13.17.37.26.81.41.17.06.34.12.43.17.15.09.43.27.72.47.71.48,1.04.7,1.25.75.1.02.21.04.32.04h0c.37,0,.74-.14,1.09-.27.31-.11.63-.23.88-.23.2,0,.34.07.48.23.25.29,2,3.38,2.12,3.8.05.38-.26.69-.79,1.15-.25.22-.51.44-.71.71l-.1.14.02.17c.12.99.21,2.17-.01,3.37l-.03.16.08.14c.17.28.46.54.77.83.38.35.91.84.87,1.14-.09.32-1.53,2.82-1.88,3.31-.5.72-.79.72-.88.72-.18,0-.38-.09-.62-.2-.34-.15-.72-.33-1.2-.33-.09,0-.18,0-.27.02-.21.03-.44.19-1.01.6-.21.15-.4.29-.52.36-.12.07-.29.14-.49.23-.73.32-1.23.56-1.39.92-.12.25-.18.57-.24.9-.1.54-.21,1.15-.54,1.25-.16.04-1.13.08-2.47.08ZM59.09,78.43c.1,0,.19.01.29.04.06.04.42.32.69.53.41.33.81.64,1.05.77.28.16.64.29.99.42.34.13.74.28.9.4.21.16.39.96.47,1.34.13.57.19.86.51.95l.06.02,2.86-.02.06-.35c.02-.11.04-.24.06-.39.06-.44.2-1.36.44-1.57.1-.08.6-.27.93-.4.42-.16.85-.33,1.12-.48.22-.13.53-.37.86-.63.28-.22.7-.55.82-.59.07-.02.16-.02.25-.02.27,0,.55.08.84.17.34.1.69.21,1.08.21.06,0,.11,0,.17,0l.22-.02,1.3-2.24v-.09c.05-.37-.26-.65-.68-1.03-.32-.29-.81-.73-.82-1.03,0-.19.06-.46.12-.74.06-.28.13-.57.15-.86.03-.47-.06-1.03-.14-1.57-.07-.48-.16-1.01-.1-1.25.04-.2.53-.71,1.27-1.23l.07-.05.05-.07c.26-.4-.08-.91-.56-1.62-.18-.27-.45-.67-.48-.8l-.07-.32s-.34-.05-.35-.05c-.48,0-.84.11-1.18.22-.3.09-.58.18-.85.18-.1,0-.19-.01-.28-.04-.05-.03-.4-.31-.66-.51-.44-.34-.89-.69-1.16-.84-.26-.14-.61-.27-.95-.4-.32-.12-.72-.27-.85-.37-.24-.18-.37-.84-.47-1.32-.05-.25-.1-.48-.15-.67l-.09-.3h-3.18s-.06.34-.06.34c-.02.11-.04.24-.06.39-.06.44-.2,1.36-.44,1.57-.1.08-.6.27-.92.4-.42.16-.85.33-1.12.49-.22.13-.53.37-.86.63-.28.22-.7.55-.82.59-.07.01-.16.02-.25.02-.27,0-.55-.08-.84-.17-.34-.1-.69-.21-1.08-.21-.06,0-.11,0-.17,0l-.22.02-1.31,2.24v.1c-.03.3.2.5.75.99.21.18.55.48.62.59.22.36.11.95,0,1.51-.06.33-.13.67-.13.98,0,.33.06.71.14,1.1.09.49.18.99.11,1.31-.04.2-.53.71-1.27,1.23l-.07.05-.05.07c-.26.4.07.89.57,1.63.18.26.44.66.47.79l.07.3.31.06c.07,0,.13.01.2.01.38,0,.73-.11,1.06-.22.28-.09.55-.18.8-.18Z"/>
    <path class="cls-1" d="M40.68,62.75c-.1-.05-.22-.18-.25-.27-.14-.44-.12-3.67-.04-4.6.15-1.84,1.38-3.48,3-3.99l.62-.2-.43-.49c-1.05-1.2-1.41-2.94-.94-4.54.45-1.53,1.55-2.65,3.01-3.06.49-.14.97-.21,1.45-.21,1.77,0,3.35,1.01,4.13,2.64.81,1.71.55,3.65-.7,5.18l-.4.49.6.19c1.62.51,2.85,2.15,3,3.99.07.93.09,4.16-.04,4.6-.03.09-.15.22-.25.27h-12.76ZM50.09,57.62c.31,0,.59.11.59.24v3.78h1.86v-4.03c0-.98-1.35-2.32-2.2-2.65-.68-.26-2.22-.31-3.4-.31-.75,0-1.52.02-2.01.06-1.25.1-2.27.7-2.88,1.71,0,0-.49.94-.49,1.19v4.03h1.86v-3.78c0-.12.28-.24.59-.24s.59.11.59.24v3.78h4.9v-3.78c0-.12.28-.24.59-.24ZM47.05,46.62c-1.91,0-3.46,1.55-3.46,3.46s1.55,3.46,3.46,3.46,3.46-1.55,3.46-3.46-1.55-3.46-3.46-3.46Z"/>
    <path class="cls-1" d="M84.52,100.31c-.98,0-1.65-.13-1.86-.25-.75-.44-.73-.95-.7-1.66.01-.36.03-.74-.06-1.13-.04-.16-.13-.23-.29-.36-.16-.13-.5-.41-.59-.64-.07-.17-.09-.43-.1-.65-.02-.24-.03-.41-.11-.55-.05-.1-.11-.15-.57-.54-.31-.27-.78-.67-.9-.81-1.43-1.74-1.84-4.08-1.11-6.28s2.47-3.81,4.64-4.34c.56-.14,1.12-.21,1.67-.21,2.57,0,4.86,1.5,5.97,3.92,1.11,2.41.73,5.06-1,7.09-.11.13-.51.46-.77.68-.41.34-.46.39-.52.48-.08.14-.09.31-.11.55-.02.21-.04.47-.1.64-.09.23-.42.51-.59.64-.16.13-.25.21-.29.36-.09.38-.08.76-.06,1.12.03.71.05,1.22-.7,1.66-.21.12-.88.25-1.85.25ZM83.08,99.09h2.88v-1.86h-2.88v1.86ZM85.5,91.16l-.39.03v4.87h1.93s-.07-.49-.07-.49c-.11-.78.26-1.13.92-1.67.26-.21.52-.43.76-.7,1.46-1.69,1.79-3.88.88-5.88-.9-1.97-2.85-3.25-4.96-3.25-.51,0-1.02.07-1.54.21-1.8.49-3.2,1.87-3.74,3.7-.55,1.85-.13,3.8,1.13,5.22.23.26.48.47.73.67.68.56,1.06.92.94,1.7l-.07.49h1.93v-4.87l-.39-.03c-.08,0-.15,0-.23,0-.12,0-.24,0-.36.01-.11,0-.21.01-.32.01-.09,0-.18,0-.26-.02-.34-.05-.49-.34-.48-.59,0-.12.05-.52.58-.59.21-.02.89-.04,1.66-.04,1.53,0,2.54.06,2.72.11.14.06.25.23.27.44.03.23-.06.45-.21.56-.12.09-.29.13-.56.13-.1,0-.2,0-.31,0-.11,0-.23-.01-.34-.01-.07,0-.15,0-.22,0Z"/>
    <path class="cls-1" d="M46.04,100.27c-4.79,0-8.69-3.9-8.69-8.69s3.9-8.69,8.69-8.69,8.69,3.9,8.69,8.69-3.9,8.69-8.69,8.69ZM46.04,84.07c-4.14,0-7.51,3.37-7.51,7.51s3.37,7.51,7.51,7.51,7.51-3.37,7.51-7.51-3.37-7.51-7.51-7.51Z"/>
    <path class="cls-1" d="M84.51,61.79c-4.79,0-8.69-3.9-8.69-8.69s3.9-8.69,8.69-8.69,8.69,3.9,8.69,8.69-3.9,8.69-8.69,8.69ZM84.52,45.6c-4.14,0-7.51,3.37-7.51,7.51s3.37,7.51,7.51,7.51,7.51-3.37,7.51-7.51-3.37-7.51-7.51-7.51Z"/>
    <path class="cls-1" d="M58.13,53.7c-.34-.03-.5-.29-.53-.51-.03-.22.06-.5.38-.64l14.45-.03c.38.04.53.33.53.59s-.15.54-.56.59h-14.28Z"/>
    <path class="cls-1" d="M58.13,92.17c-.34-.03-.5-.29-.53-.51-.03-.22.06-.5.38-.64l14.45-.03c.38.04.53.33.53.59,0,.25-.15.54-.56.59h-14.28Z"/>
    <path class="cls-1" d="M47.06,80.05c-.26,0-.55-.19-.6-.71-.2-2.15-.11-4.51-.02-6.79.08-2.12.17-4.32.02-6.38,0-.2.19-.43.39-.48.08-.02.16-.03.24-.03.13,0,.49,0,.56.7.2,2.15.11,4.51.02,6.78-.08,2.12-.17,4.32-.02,6.38-.05.33-.33.52-.59.52Z"/>
    <path class="cls-1" d="M84.52,80.05c-.26,0-.55-.19-.6-.71-.2-2.15-.11-4.51-.02-6.79.08-2.12.17-4.32.02-6.38,0-.2.19-.43.39-.48.08-.02.16-.03.24-.03.13,0,.49,0,.56.7.2,2.15.11,4.51.02,6.78-.08,2.12-.17,4.32-.02,6.38-.05.33-.33.52-.59.52Z"/>
    <path class="cls-1" d="M65.28,77.99c-3.11,0-5.65-2.53-5.65-5.65s2.53-5.65,5.65-5.65,5.65,2.53,5.65,5.65-2.53,5.65-5.65,5.65ZM65.28,67.86c-2.47,0-4.48,2.01-4.48,4.48s2.01,4.48,4.48,4.48,4.48-2.01,4.48-4.48-2.01-4.48-4.48-4.48Z"/>
    <path class="cls-1" d="M42.97,95.24c-.12,0-.24-.06-.38-.18-.22-.2-.22-.33-.22-.38,0-.39.63-.93,1.08-1.33.4-.35.75-.65.89-.97.11-.24.12-.5.13-.76,0-.24.02-.46.1-.68.09-.23.43-.51.59-.64.15-.13.25-.2.29-.36.1-.39.06-.95.02-1.6-.06-.89-.14-2.23.32-2.38.1-.03.19-.05.28-.05.32,0,.52.21.57.58.03.23,0,.86-.01,1.46-.05,1.5-.04,1.93.09,2.16.06.1.14.15.25.22.08.05.25.15.32.24.34.46.43,1.06.22,1.61-.2.51-.6.87-1.12.97-.07.01-.14.02-.21.02h-.3c-.17,0-.4,0-.62.11-.34.15-.65.51-1,.92-.39.46-.88,1.04-1.27,1.04Z"/>
    <path class="cls-1" d="M84.5,57.76c-.39,0-.42-.15-.5-.44-.04-.16-.08-.33-.23-.46-.15-.13-.33-.15-.5-.15-.08,0-.17,0-.26,0-.1,0-.22.01-.33.01-.64,0-.77-.18-.78-.54,0-.2.2-.58.32-.64h3.74s0-1.8,0-1.8l-.36-.05c-.2-.03-.42-.04-.65-.04-.34,0-.7.02-1.06.05-.34.02-.68.05-.99.05-.26,0-.46-.02-.62-.05-.15-.03-.34-.32-.37-.58-.07-.63-.04-3.07.1-3.42.06-.11.19-.23.64-.23.13,0,.26.01.37.02.11,0,.21.02.29.02.14,0,.32-.02.47-.15.14-.12.18-.29.22-.44.07-.31.12-.44.49-.46h0c.44,0,.48.15.55.44.04.16.08.33.23.46.15.13.33.15.5.15.08,0,.17,0,.26,0,.1,0,.22-.01.33-.01.64,0,.77.18.78.54,0,.2-.2.58-.32.64h-3.74s0,1.86,0,1.86h3.78c.06.04.25.37.28.57.07.63.04,3.07-.1,3.42-.06.11-.19.23-.64.23-.13,0-.26,0-.37-.02-.11,0-.21-.02-.29-.02-.14,0-.32.02-.47.15-.14.12-.18.29-.22.44-.07.31-.12.44-.48.46h-.06Z"/>
  </g>
</svg>