<?xml version="1.0" encoding="UTF-8"?>
<svg id="Capa_1" data-name="Capa 1" xmlns="http://www.w3.org/2000/svg" viewBox="0 0 1236.07 144.73">
  <defs>
    <style>
      .cls-1 {
        fill: #edf0f4;
      }
    </style>
  </defs>
  <path class="cls-1" d="M1163.7,144.73H72.37C32.46,144.73,0,112.27,0,72.37S32.46,0,72.37,0h1091.34c39.9,0,72.37,32.46,72.37,72.37s-32.46,72.37-72.37,72.37ZM72.37,3C34.12,3,3,34.12,3,72.37s31.12,69.37,69.37,69.37h1091.34c38.25,0,69.37-31.12,69.37-69.37s-31.12-69.37-69.37-69.37H72.37Z"/>
  <g>
    <path class="cls-1" d="M131.68,71.79c0-13.97,8.06-22.47,21.03-22.47,11.16,0,17.93,6.12,19.44,16.49l-7.85,1.51c-1.3-6.99-4.9-10.8-11.74-10.8-8.79,0-12.67,6.41-12.67,15.26,0,9.5,3.89,15.48,12.6,15.48,7.27,0,10.58-3.89,12.02-11.09l7.78,1.44c-1.44,10.44-8.35,16.78-19.8,16.78-13.25,0-20.81-8.64-20.81-22.61Z"/>
    <path class="cls-1" d="M176.54,76.47c0-11.16,6.7-17.71,17.21-17.71s17.07,6.55,17.07,17.71-6.34,17.93-17.07,17.93-17.21-6.84-17.21-17.93ZM184.32,76.4c0,6.98,2.88,11.3,9.36,11.3s9.43-4.32,9.43-11.3-3.17-11.09-9.43-11.09-9.36,4.1-9.36,11.09Z"/>
    <path class="cls-1" d="M224.64,93.46h-7.7v-33.84h7.56v8.93h.65c1.87-6.26,6.19-9.79,11.88-9.79,7.06,0,10.44,4.75,10.44,12.1v22.61h-7.7v-20.59c0-4.1-1.8-7.13-6.48-7.13-5.18,0-8.64,3.46-8.64,8.57v19.15Z"/>
    <path class="cls-1" d="M263.3,93.46l-12.53-33.84h8.42l4.18,13.11c1.51,4.82,3.1,9.5,4.39,14.11h1.44c1.3-4.61,2.88-9.43,4.39-14.11l4.18-13.11h8.21l-12.46,33.84h-10.23Z"/>
    <path class="cls-1" d="M308.37,85.4h-.79c-1.73,5.47-5.62,8.78-11.59,8.78s-10.3-2.88-10.3-9.5c0-6.05,3.67-10.44,12.24-10.44h10.08v-2.3c0-4.39-1.8-6.91-6.55-6.91-3.96,0-6.26,2.02-7.13,5.98l-7.34-1.66c1.3-6.41,6.12-10.51,14.76-10.51,9.79,0,13.97,4.61,13.97,13.03v21.6h-7.34v-8.06ZM308.01,80.72v-1.37h-8.78c-3.89,0-6.12,1.44-6.12,4.25,0,2.45,1.51,4.54,5.9,4.54,5.4,0,9-3.17,9-7.42Z"/>
    <path class="cls-1" d="M331.55,93.46h-7.78v-46.23h7.78v46.23Z"/>
    <path class="cls-1" d="M339.98,53.86v-6.26h8.42v6.26h-8.42ZM340.26,93.46v-33.84h7.78v33.84h-7.78Z"/>
    <path class="cls-1" d="M379.29,84.53h-.5c-1.73,5.83-5.76,9.87-11.81,9.87-7.78,0-12.31-6.27-12.31-17.71s4.61-18,12.53-17.93c6.12-.07,9.86,3.82,11.59,9.72h.5v-21.24h7.7v46.23h-7.7v-8.93ZM379.29,78.05v-2.59c0-5.83-3.38-9.72-8.64-9.72-5.62,0-8.35,3.53-8.35,10.94s2.59,10.8,8.35,10.8c5.18,0,8.64-3.67,8.64-9.43Z"/>
    <path class="cls-1" d="M415.72,85.4h-.79c-1.73,5.47-5.62,8.78-11.59,8.78s-10.3-2.88-10.3-9.5c0-6.05,3.67-10.44,12.24-10.44h10.08v-2.3c0-4.39-1.8-6.91-6.55-6.91-3.96,0-6.26,2.02-7.13,5.98l-7.34-1.66c1.3-6.41,6.12-10.51,14.76-10.51,9.79,0,13.97,4.61,13.97,13.03v21.6h-7.34v-8.06ZM415.36,80.72v-1.37h-8.78c-3.89,0-6.12,1.44-6.12,4.25,0,2.45,1.51,4.54,5.9,4.54,5.4,0,9-3.17,9-7.42Z"/>
    <path class="cls-1" d="M445.89,65.6c-5.54,0-9,3.53-9,10.95,0,6.84,3.17,11.02,9.22,11.02,5.47,0,7.34-3.38,8.35-7.49l7.13,1.73c-1.37,7.85-6.12,12.6-15.41,12.6-10.66,0-17.21-6.19-17.21-17.57s6.7-18.07,17.07-18.07c9.72,0,14.11,4.61,15.48,12.67l-7.27,1.37c-1.01-4.32-3.02-7.2-8.35-7.2Z"/>
    <path class="cls-1" d="M467.99,53.86v-6.26h8.42v6.26h-8.42ZM468.28,93.46v-33.84h7.78v33.84h-7.78Z"/>
    <path class="cls-1" d="M482.68,76.47c0-11.16,6.7-17.71,17.21-17.71s17.07,6.55,17.07,17.71-6.34,17.93-17.07,17.93-17.21-6.84-17.21-17.93ZM490.45,76.4c0,6.98,2.88,11.3,9.36,11.3s9.43-4.32,9.43-11.3-3.17-11.09-9.43-11.09-9.36,4.1-9.36,11.09ZM492.61,52.35l16.85-9.72,2.88,5.54-17.79,7.99-1.94-3.82Z"/>
    <path class="cls-1" d="M530.77,93.46h-7.7v-33.84h7.56v8.93h.65c1.87-6.26,6.19-9.79,11.88-9.79,7.06,0,10.44,4.75,10.44,12.1v22.61h-7.7v-20.59c0-4.1-1.8-7.13-6.48-7.13-5.18,0-8.64,3.46-8.64,8.57v19.15Z"/>
    <path class="cls-1" d="M571.16,105.63l1.22-6.98c1.44.29,2.88.5,4.32.5,3.82,0,5.83-.94,8.06-6.05l-13.61-33.48h8.5l3.96,12.24c1.37,4.25,3.24,9.87,4.68,14.76h1.15c1.51-5.04,3.17-10.44,4.46-14.62l3.67-12.38h8.28l-13.97,34.28c-3.46,8.42-7.63,12.17-15.41,12.17-2.23,0-3.74-.21-5.33-.43Z"/>
    <path class="cls-1" d="M640.07,77.26h-8.06v16.2h-8.21v-43.2h18.15c10.8,0,15.91,4.54,15.91,13.11,0,6.77-3.46,11.23-9.5,13.03l12.02,16.27v.79h-9.58l-10.73-16.2ZM632,57.17v13.18h9.22c5.62,0,8.57-2.16,8.57-6.77s-2.23-6.41-8.42-6.41h-9.36Z"/>
    <path class="cls-1" d="M660.95,76.97c0-11.45,6.48-18.22,17.07-18.22s15.19,6.19,15.19,15.48c0,1.3,0,2.81-.14,4.54h-24.41c.58,6.12,3.67,9.22,9.43,9.22,5.4,0,7.27-2.59,8.21-5.83l6.62,1.87c-1.58,6.12-5.83,10.3-14.91,10.3-10.37,0-17.07-6.05-17.07-17.35ZM668.72,73.59h17.35c-.29-5.83-2.88-8.86-8.28-8.86s-8.35,2.81-9.07,8.86Z"/>
    <path class="cls-1" d="M707.6,93.46l-12.53-33.84h8.42l4.18,13.11c1.51,4.82,3.1,9.5,4.39,14.11h1.44c1.3-4.61,2.88-9.43,4.39-14.11l4.18-13.11h8.21l-12.46,33.84h-10.23Z"/>
    <path class="cls-1" d="M752.68,85.4h-.79c-1.73,5.47-5.62,8.78-11.59,8.78s-10.3-2.88-10.3-9.5c0-6.05,3.67-10.44,12.24-10.44h10.08v-2.3c0-4.39-1.8-6.91-6.55-6.91-3.96,0-6.26,2.02-7.13,5.98l-7.34-1.66c1.3-6.41,6.12-10.51,14.76-10.51,9.79,0,13.97,4.61,13.97,13.03v21.6h-7.34v-8.06ZM752.32,80.72v-1.37h-8.78c-3.89,0-6.12,1.44-6.12,4.25,0,2.45,1.51,4.54,5.9,4.54,5.4,0,9-3.17,9-7.42ZM738.78,52.35l16.85-9.72,2.88,5.54-17.79,7.99-1.94-3.82Z"/>
    <path class="cls-1" d="M775.79,93.46h-7.78v-46.23h7.78v46.23Z"/>
    <path class="cls-1" d="M784.21,53.86v-6.26h8.42v6.26h-8.42ZM784.5,93.46v-33.84h7.78v33.84h-7.78Z"/>
    <path class="cls-1" d="M823.52,84.53h-.5c-1.73,5.83-5.76,9.87-11.81,9.87-7.78,0-12.31-6.27-12.31-17.71s4.61-18,12.53-17.93c6.12-.07,9.86,3.82,11.59,9.72h.5v-21.24h7.7v46.23h-7.7v-8.93ZM823.52,78.05v-2.59c0-5.83-3.38-9.72-8.64-9.72-5.62,0-8.35,3.53-8.35,10.94s2.59,10.8,8.35,10.8c5.18,0,8.64-3.67,8.64-9.43Z"/>
    <path class="cls-1" d="M859.95,85.4h-.79c-1.73,5.47-5.62,8.78-11.59,8.78s-10.3-2.88-10.3-9.5c0-6.05,3.67-10.44,12.24-10.44h10.08v-2.3c0-4.39-1.8-6.91-6.55-6.91-3.96,0-6.26,2.02-7.13,5.98l-7.34-1.66c1.3-6.41,6.12-10.51,14.76-10.51,9.79,0,13.97,4.61,13.97,13.03v21.6h-7.34v-8.06ZM859.59,80.72v-1.37h-8.78c-3.89,0-6.12,1.44-6.12,4.25,0,2.45,1.51,4.54,5.9,4.54,5.4,0,9-3.17,9-7.42Z"/>
    <path class="cls-1" d="M911.43,84.53h-.5c-1.73,5.83-5.76,9.87-11.81,9.87-7.78,0-12.31-6.27-12.31-17.71s4.61-18,12.53-17.93c6.12-.07,9.86,3.82,11.59,9.72h.5v-21.24h7.7v46.23h-7.7v-8.93ZM911.43,78.05v-2.59c0-5.83-3.38-9.72-8.64-9.72-5.62,0-8.35,3.53-8.35,10.94s2.59,10.8,8.35,10.8c5.18,0,8.64-3.67,8.64-9.43Z"/>
    <path class="cls-1" d="M925.25,76.97c0-11.45,6.48-18.22,17.07-18.22s15.19,6.19,15.19,15.48c0,1.3,0,2.81-.14,4.54h-24.41c.58,6.12,3.67,9.22,9.43,9.22,5.4,0,7.27-2.59,8.21-5.83l6.62,1.87c-1.58,6.12-5.83,10.3-14.91,10.3-10.37,0-17.07-6.05-17.07-17.35ZM933.03,73.59h17.35c-.29-5.83-2.88-8.86-8.28-8.86s-8.35,2.81-9.07,8.86Z"/>
    <path class="cls-1" d="M974.36,50.26h34.85v7.56h-13.32v35.64h-8.21v-35.64h-13.32v-7.56Z"/>
    <path class="cls-1" d="M1011.37,52.35l16.85-9.72,2.88,5.54-17.79,7.99-1.94-3.82ZM1014.68,93.46v-33.84h7.78v33.84h-7.78Z"/>
    <path class="cls-1" d="M1033.61,65.88h-4.75v-6.26h4.75v-9.14h7.78v9.14h9.94v6.26h-9.94v16.2c0,3.31,1.22,5.04,4.61,5.04,1.73,0,3.24-.36,4.9-.86l.94,6.91c-2.52.79-4.25,1.22-7.63,1.22-7.42,0-10.58-4.9-10.58-11.23v-17.28Z"/>
    <path class="cls-1" d="M1080.05,84.53h-.72c-1.87,6.26-6.19,9.87-11.81,9.87-7.13,0-10.51-4.82-10.51-12.17v-22.61h7.78v20.59c0,4.1,1.8,7.13,6.41,7.13,5.26,0,8.64-3.46,8.64-8.57v-19.15h7.78v33.84h-7.56v-8.93Z"/>
    <path class="cls-1" d="M1103.67,93.46h-7.78v-46.23h7.78v46.23Z"/>
    <path class="cls-1" d="M1110,76.47c0-11.16,6.7-17.71,17.21-17.71s17.07,6.55,17.07,17.71-6.34,17.93-17.07,17.93-17.21-6.84-17.21-17.93ZM1117.78,76.4c0,6.98,2.88,11.3,9.36,11.3s9.43-4.32,9.43-11.3-3.17-11.09-9.43-11.09-9.36,4.1-9.36,11.09Z"/>
    <path class="cls-1" d="M1148.02,83.45l6.98-1.44c1.08,4.1,3.46,6.7,8.93,6.7,4.1,0,6.26-1.44,6.26-4.32,0-2.66-1.87-3.96-8.57-5.18-9-1.8-12.17-4.82-12.17-10.44,0-6.12,4.46-10.01,13.47-10.01s12.46,3.82,13.83,9.79l-6.98,1.51c-.94-4.18-2.95-5.76-6.98-5.76s-5.98,1.51-5.98,4.03c0,2.38,1.44,4.03,7.85,5.18,10.01,1.87,13.03,5.26,13.03,10.59,0,6.26-4.18,10.3-13.9,10.3-10.94,0-14.54-4.46-15.77-10.95Z"/>
  </g>
  <path class="cls-1" d="M65.28,115.89c-24,0-43.52-19.52-43.52-43.52s19.52-43.52,43.52-43.52,43.52,19.52,43.52,43.52-19.52,43.52-43.52,43.52ZM65.28,30.85c-22.89,0-41.52,18.63-41.52,41.52s18.63,41.52,41.52,41.52,41.52-18.63,41.52-41.52-18.63-41.52-41.52-41.52Z"/>
  <g>
    <path class="cls-1" d="M87.2,87.73h3.14c.13,0,.34.39.37.56.12.93.09,3.47,0,4.44-.21,2.19-2.19,3.99-4.38,4.08h-28.36c-1.88-.11-3.65-1.44-4.17-3.26-.15-.54-.51-1.97.36-2.02s.61.81.72,1.36c.65,3.37,5.47,3.65,6.48.38.49-1.58-.11-3.58.18-5.08.03-.13.29-.47.36-.47h24.08v-36.04c0-.85-1.75-2.53-2.63-2.53h-29.95c.63.65,1.1,1.35,1.31,2.25.31,8.07.05,16.21.13,24.31-.11,1.02-1.24.57-1.24.1v-18.51h-7.48c-.3,0-.35-.44-.37-.67-.1-1.16-.13-4.5.16-5.52.49-1.71,2.08-2.94,3.82-3.19h33.29c1.75-.05,4.18,2.13,4.18,3.86v35.93ZM53.59,56.17v-4.38c0-.14-.4-.96-.51-1.14-1.73-2.77-6.19-1.33-6.19,1.55v3.82l.15.15h6.55ZM89.47,88.86h-26.65l-.15.15v4.12c0,.23-.45,1.21-.6,1.46-.21.35-.51.63-.74.96h25.52c.92,0,2.63-1.71,2.63-2.63v-4.07Z"/>
    <path class="cls-1" d="M42.55,85.05c2.2.46,2.08,3.76-.1,4.18-2.78.53-3.79-3.27-1.16-4.2l-.08-2.92c-.71-.12-1.77-.44-1.09-1.29l11.98-3.81,12.18,3.84c.27.49.15.77-.33,1.01-.64.32-4.23,1.17-4.38,1.35-.14.82.2,5.58-.14,5.94-.2.21-1.92.63-2.33.72-3.55.78-7.49.74-10.99-.29-.61-.18-1.32-.22-1.4-.97s.14-5.18-.01-5.4l-2.15-.63v2.47ZM61.73,81.23l-9.54-2.98-9.64,3.03,9.63,3.01,8.09-2.52,1.47-.54ZM58.43,83.6l-6.33,1.93-6.15-1.93v4.59c.48.29,1.17.41,1.73.53,3.47.75,7.41.64,10.74-.53v-4.59ZM42.96,87.08c0-.55-.45-1-1-1s-1,.45-1,1,.45,1,1,1,1-.45,1-1Z"/>
    <path class="cls-1" d="M78.96,59.77c0,4.72-3.83,8.55-8.55,8.55s-8.55-3.83-8.55-8.55,3.83-8.55,8.55-8.55,8.55,3.83,8.55,8.55ZM77.76,59.77c0-4.06-3.29-7.35-7.35-7.35s-7.35,3.29-7.35,7.35,3.29,7.35,7.35,7.35,7.35-3.29,7.35-7.35Z"/>
    <path class="cls-1" d="M76.68,69.48c-.12.12-.64,2.8-.88,3.3-.12.26-.29.47-.6.49-.16-.07-.37-.12-.49-.26-.23-.28-1.59-2.61-1.74-2.98-.27-.68.19-1.23.81-.92.28.14,1.08,1.95,1.18,1.91.43-.58.47-2.44,1.05-2.77.46-.26,2.18.56,2.82.51.1-.09-1.05-1.75-1.11-2.03-.16-.78.54-1.16,1.06-.54.24.71,2.01,3,2.01,3.55,0,.15-.17.45-.3.52-.61.29-3.04-.67-3.81-.77Z"/>
    <path class="cls-1" d="M61.94,68.86c.92-.21,1.94-.69,2.88-.56.44.2.74,2.3.93,2.83l1.34-2.01c.49-.22.92.22.82.71l-1.81,3.15c-.38.49-.9.34-1.13-.2-.2-.46-.74-3.2-.88-3.3l-3.39.87c-.61,0-.77-.44-.57-.97l1.96-3.3c.33-.44.99-.06,1.06.38.06.4-1.37,2.22-1.22,2.4Z"/>
    <path class="cls-1" d="M83.77,77.44c.33.33.06,1.03-.43,1.01l-15.17-.1c-.31-.31-.31-.63,0-.94l15.07-.1c.16.01.42.02.54.13Z"/>
    <path class="cls-1" d="M83.77,80.74c.33.33.06,1.03-.43,1.01h-14.75c-.6-.01-.85-.63-.42-1.04l15.07-.1c.16.01.42.02.54.13Z"/>
    <path class="cls-1" d="M73.36,83.83c3.11.19,6.72-.34,9.77-.02.72.07,1.07.58.52,1.14l-10.32.1c-.8-.1-.73-1.14.03-1.22Z"/>
    <path class="cls-1" d="M73.67,56.81c.57-.11.96.7.48,1.11l-4.71,4.67c-.28.12-.49.13-.75-.02-.13-.08-2.09-2.03-2.16-2.17-.21-.45.14-.99.65-.86s1.65,1.72,1.91,1.68c.85-.55,3.91-4.28,4.58-4.41Z"/>
  </g>
</svg>