<?xml version="1.0" encoding="UTF-8"?>
<svg id="Capa_1" data-name="Capa 1" xmlns="http://www.w3.org/2000/svg" viewBox="0 0 1202.06 144.73">
  <defs>
    <style>
      .cls-1 {
        fill: #edf0f4;
      }
    </style>
  </defs>
  <path class="cls-1" d="M1129.69,144.73H72.37C32.46,144.73,0,112.27,0,72.37S32.46,0,72.37,0h1057.32C1169.59,0,1202.06,32.46,1202.06,72.37s-32.46,72.37-72.37,72.37ZM72.37,3C34.12,3,3,34.12,3,72.37s31.12,69.37,69.37,69.37h1057.32c38.25,0,69.37-31.12,69.37-69.37s-31.12-69.37-69.37-69.37H72.37Z"/>
  <g>
    <path class="cls-1" d="M131.68,71.79c0-13.97,8.06-22.47,21.03-22.47,11.16,0,17.93,6.12,19.44,16.49l-7.85,1.51c-1.3-6.98-4.9-10.8-11.74-10.8-8.79,0-12.67,6.41-12.67,15.27,0,9.5,3.89,15.48,12.6,15.48,7.27,0,10.58-3.89,12.02-11.09l7.78,1.44c-1.44,10.44-8.35,16.78-19.8,16.78-13.25,0-20.81-8.64-20.81-22.61Z"/>
    <path class="cls-1" d="M176.54,76.47c0-11.16,6.7-17.71,17.21-17.71s17.07,6.55,17.07,17.71-6.34,17.93-17.07,17.93-17.21-6.84-17.21-17.93ZM184.32,76.4c0,6.98,2.88,11.3,9.36,11.3s9.43-4.32,9.43-11.3-3.17-11.09-9.43-11.09-9.36,4.1-9.36,11.09Z"/>
    <path class="cls-1" d="M224.64,93.46h-7.7v-33.84h7.56v8.93h.65c1.87-6.34,6.12-9.79,11.88-9.79,6.34,0,9.5,3.89,10.01,10.15h.79c1.66-6.48,5.62-10.15,11.88-10.15,7.13,0,10.58,4.75,10.58,12.1v22.61h-7.78v-20.59c0-4.1-1.87-7.13-6.41-7.13-5.33,0-8.64,3.46-8.64,8.57v19.15h-7.7v-20.59c0-4.1-1.94-7.13-6.48-7.13-5.18,0-8.64,3.46-8.64,8.57v19.15Z"/>
    <path class="cls-1" d="M300.81,84.53h-.72c-1.87,6.26-6.19,9.86-11.81,9.86-7.13,0-10.51-4.82-10.51-12.17v-22.61h7.78v20.59c0,4.1,1.8,7.13,6.41,7.13,5.26,0,8.64-3.46,8.64-8.57v-19.15h7.78v33.84h-7.56v-8.93Z"/>
    <path class="cls-1" d="M324.14,93.46h-7.7v-33.84h7.56v8.93h.65c1.87-6.26,6.19-9.79,11.88-9.79,7.06,0,10.44,4.75,10.44,12.1v22.61h-7.7v-20.59c0-4.1-1.8-7.13-6.48-7.13-5.18,0-8.64,3.46-8.64,8.57v19.15Z"/>
    <path class="cls-1" d="M354.81,53.86v-6.26h8.42v6.26h-8.42ZM355.1,93.46v-33.84h7.78v33.84h-7.78Z"/>
    <path class="cls-1" d="M386.42,65.6c-5.54,0-9,3.53-9,10.94,0,6.84,3.17,11.02,9.22,11.02,5.47,0,7.34-3.38,8.35-7.49l7.13,1.73c-1.37,7.85-6.12,12.6-15.41,12.6-10.66,0-17.21-6.19-17.21-17.57s6.7-18.07,17.07-18.07c9.72,0,14.11,4.61,15.48,12.67l-7.27,1.37c-1.01-4.32-3.02-7.2-8.35-7.2Z"/>
    <path class="cls-1" d="M429.04,85.4h-.79c-1.73,5.47-5.62,8.78-11.59,8.78s-10.3-2.88-10.3-9.5c0-6.05,3.67-10.44,12.24-10.44h10.08v-2.3c0-4.39-1.8-6.91-6.55-6.91-3.96,0-6.26,2.02-7.13,5.98l-7.34-1.66c1.3-6.41,6.12-10.51,14.76-10.51,9.79,0,13.97,4.61,13.97,13.03v21.6h-7.34v-8.06ZM428.68,80.72v-1.37h-8.78c-3.89,0-6.12,1.44-6.12,4.25,0,2.45,1.51,4.54,5.9,4.54,5.4,0,9-3.17,9-7.42Z"/>
    <path class="cls-1" d="M459.21,65.6c-5.54,0-9,3.53-9,10.94,0,6.84,3.17,11.02,9.22,11.02,5.47,0,7.34-3.38,8.35-7.49l7.13,1.73c-1.37,7.85-6.12,12.6-15.41,12.6-10.66,0-17.21-6.19-17.21-17.57s6.7-18.07,17.07-18.07c9.72,0,14.11,4.61,15.48,12.67l-7.27,1.37c-1.01-4.32-3.02-7.2-8.35-7.2Z"/>
    <path class="cls-1" d="M481.31,53.86v-6.26h8.42v6.26h-8.42ZM481.6,93.46v-33.84h7.78v33.84h-7.78Z"/>
    <path class="cls-1" d="M496,76.47c0-11.16,6.7-17.71,17.21-17.71s17.07,6.55,17.07,17.71-6.34,17.93-17.07,17.93-17.21-6.84-17.21-17.93ZM503.77,76.4c0,6.98,2.88,11.3,9.36,11.3s9.43-4.32,9.43-11.3-3.17-11.09-9.43-11.09-9.36,4.1-9.36,11.09ZM505.93,52.35l16.85-9.72,2.88,5.54-17.79,7.99-1.94-3.82Z"/>
    <path class="cls-1" d="M544.09,93.46h-7.7v-33.84h7.56v8.93h.65c1.87-6.26,6.19-9.79,11.88-9.79,7.06,0,10.44,4.75,10.44,12.1v22.61h-7.7v-20.59c0-4.1-1.8-7.13-6.48-7.13-5.18,0-8.64,3.46-8.64,8.57v19.15Z"/>
    <path class="cls-1" d="M584.48,105.63l1.22-6.98c1.44.29,2.88.5,4.32.5,3.82,0,5.83-.94,8.06-6.05l-13.61-33.48h8.5l3.96,12.24c1.37,4.25,3.24,9.87,4.68,14.76h1.15c1.51-5.04,3.17-10.44,4.46-14.62l3.67-12.38h8.28l-13.97,34.27c-3.46,8.42-7.63,12.17-15.41,12.17-2.23,0-3.74-.22-5.33-.43Z"/>
    <path class="cls-1" d="M644.75,93.46h-7.63v-43.2h13.47l6.7,18.65c1.08,2.81,2.95,8.64,4.32,13.61h1.15c1.44-4.97,3.17-10.66,4.32-13.9l6.84-18.36h12.6v43.2h-8.21v-20.02c0-5.04.22-11.45.36-16.49h-1.22c-1.51,5.47-3.53,12.03-5.76,18l-6.26,16.06h-7.99l-6.05-16.35c-2.23-6.34-4.03-12.39-5.47-17.71h-1.22c.14,5.04.07,11.31.07,16.49v20.02Z"/>
    <path class="cls-1" d="M715.52,85.4h-.79c-1.73,5.47-5.62,8.78-11.59,8.78s-10.3-2.88-10.3-9.5c0-6.05,3.67-10.44,12.24-10.44h10.08v-2.3c0-4.39-1.8-6.91-6.55-6.91-3.96,0-6.26,2.02-7.13,5.98l-7.34-1.66c1.3-6.41,6.12-10.51,14.76-10.51,9.79,0,13.97,4.61,13.97,13.03v21.6h-7.34v-8.06ZM715.16,80.72v-1.37h-8.78c-3.89,0-6.12,1.44-6.12,4.25,0,2.45,1.51,4.54,5.9,4.54,5.4,0,9-3.17,9-7.42Z"/>
    <path class="cls-1" d="M730.71,93.46v-33.84h7.34v10.15l.65.07c1.94-8.21,5.11-10.58,10.01-10.58h1.22v8.71h-1.87c-7.13,0-9.65,2.52-9.65,9.43v16.06h-7.7Z"/>
    <path class="cls-1" d="M763.19,73.52h3.1l10.66-13.9h8.86v.79l-13.39,15.84,14.33,16.42v.79h-8.86l-11.59-14.19h-3.1v14.19h-7.78v-46.23h7.78v26.28Z"/>
    <path class="cls-1" d="M788.6,76.97c0-11.45,6.48-18.22,17.07-18.22s15.19,6.19,15.19,15.48c0,1.3,0,2.81-.14,4.54h-24.41c.58,6.12,3.67,9.22,9.43,9.22,5.4,0,7.27-2.59,8.21-5.83l6.62,1.87c-1.58,6.12-5.83,10.3-14.91,10.3-10.37,0-17.07-6.05-17.07-17.35ZM796.38,73.59h17.35c-.29-5.83-2.88-8.86-8.28-8.86s-8.35,2.81-9.07,8.86Z"/>
    <path class="cls-1" d="M829.06,65.88h-4.75v-6.26h4.75v-9.15h7.78v9.15h9.94v6.26h-9.94v16.2c0,3.31,1.22,5.04,4.61,5.04,1.73,0,3.24-.36,4.9-.86l.94,6.91c-2.52.79-4.25,1.22-7.63,1.22-7.42,0-10.58-4.9-10.58-11.23v-17.28Z"/>
    <path class="cls-1" d="M852.9,53.86v-6.26h8.42v6.26h-8.42ZM853.18,93.46v-33.84h7.78v33.84h-7.78Z"/>
    <path class="cls-1" d="M877.23,93.46h-7.7v-33.84h7.56v8.93h.65c1.87-6.26,6.19-9.79,11.88-9.79,7.06,0,10.44,4.75,10.44,12.1v22.61h-7.7v-20.59c0-4.1-1.8-7.13-6.48-7.13-5.18,0-8.64,3.46-8.64,8.57v19.15Z"/>
    <path class="cls-1" d="M921.01,105.85c-12.82,0-16.56-2.74-16.56-7.06,0-2.95,3.17-5.11,7.78-6.12v-.29c-3.02-.58-4.61-2.16-4.61-4.54,0-1.8,1.44-3.38,3.82-4.54l2.59-1.44c-5.04-1.66-7.7-5.33-7.7-10.44,0-7.63,5.54-11.81,14.91-11.81h16.78v5.98h-3.89c-1.8,0-3.96-.14-6.84-.36l-.07.65c4.46.86,8.21,2.74,8.21,7.2,0,6.05-5.11,9.72-14.54,9.72-2.16,0-4.03-.22-5.69-.65l-.79,1.22c-.5.86-.86,1.44-.86,2.16,0,1.37,1.08,1.87,3.31,1.87,3.82,0,7.7-.07,11.38-.07,7.13,0,10.58,3.1,10.58,8.35,0,6.84-4.39,10.15-17.79,10.15ZM932.6,95.91c0-1.94-1.37-3.31-4.68-3.31h-11.88c-3.67,0-5.54,1.87-5.54,3.74,0,2.74,2.16,3.89,10.94,3.89s11.16-1.44,11.16-4.32ZM913.3,71.57c0,3.6,2.02,5.9,7.63,5.9s7.85-2.3,7.85-5.9-2.59-5.9-7.92-5.9-7.56,2.38-7.56,5.9Z"/>
    <path class="cls-1" d="M957.72,50.26h17.57c14.91,0,21.75,7.56,21.75,21.24s-8.21,21.96-21.75,21.96h-17.57v-43.2ZM965.93,57.1v29.59h8.71c10.15,0,14.19-5.47,14.19-15.19s-4.25-14.4-14.62-14.4h-8.28Z"/>
    <path class="cls-1" d="M1003.23,53.86v-6.26h8.42v6.26h-8.42ZM1003.52,93.46v-33.84h7.78v33.84h-7.78Z"/>
    <path class="cls-1" d="M1033.11,105.85c-12.82,0-16.56-2.74-16.56-7.06,0-2.95,3.17-5.11,7.78-6.12v-.29c-3.02-.58-4.61-2.16-4.61-4.54,0-1.8,1.44-3.38,3.82-4.54l2.59-1.44c-5.04-1.66-7.7-5.33-7.7-10.44,0-7.63,5.54-11.81,14.91-11.81h16.78v5.98h-3.89c-1.8,0-3.96-.14-6.84-.36l-.07.65c4.46.86,8.21,2.74,8.21,7.2,0,6.05-5.11,9.72-14.54,9.72-2.16,0-4.03-.22-5.69-.65l-.79,1.22c-.5.86-.86,1.44-.86,2.16,0,1.37,1.08,1.87,3.31,1.87,3.82,0,7.7-.07,11.38-.07,7.13,0,10.58,3.1,10.58,8.35,0,6.84-4.39,10.15-17.79,10.15ZM1044.7,95.91c0-1.94-1.37-3.31-4.68-3.31h-11.88c-3.67,0-5.54,1.87-5.54,3.74,0,2.74,2.16,3.89,10.94,3.89s11.16-1.44,11.16-4.32ZM1025.4,71.57c0,3.6,2.02,5.9,7.63,5.9s7.85-2.3,7.85-5.9-2.59-5.9-7.92-5.9-7.56,2.38-7.56,5.9Z"/>
    <path class="cls-1" d="M1056.07,53.86v-6.26h8.42v6.26h-8.42ZM1056.36,93.46v-33.84h7.78v33.84h-7.78Z"/>
    <path class="cls-1" d="M1074.65,65.88h-4.75v-6.26h4.75v-9.15h7.78v9.15h9.94v6.26h-9.94v16.2c0,3.31,1.22,5.04,4.61,5.04,1.73,0,3.24-.36,4.9-.86l.94,6.91c-2.52.79-4.25,1.22-7.63,1.22-7.42,0-10.58-4.9-10.58-11.23v-17.28Z"/>
    <path class="cls-1" d="M1119,85.4h-.79c-1.73,5.47-5.62,8.78-11.59,8.78s-10.3-2.88-10.3-9.5c0-6.05,3.67-10.44,12.24-10.44h10.08v-2.3c0-4.39-1.8-6.91-6.55-6.91-3.96,0-6.26,2.02-7.13,5.98l-7.34-1.66c1.3-6.41,6.12-10.51,14.76-10.51,9.79,0,13.97,4.61,13.97,13.03v21.6h-7.34v-8.06ZM1118.64,80.72v-1.37h-8.78c-3.89,0-6.12,1.44-6.12,4.25,0,2.45,1.51,4.54,5.9,4.54,5.4,0,9-3.17,9-7.42Z"/>
    <path class="cls-1" d="M1142.18,93.46h-7.78v-46.23h7.78v46.23Z"/>
  </g>
  <path class="cls-1" d="M65.28,115.89c-24,0-43.52-19.52-43.52-43.52s19.52-43.52,43.52-43.52,43.52,19.52,43.52,43.52-19.52,43.52-43.52,43.52ZM65.28,30.85c-22.89,0-41.52,18.63-41.52,41.52s18.63,41.52,41.52,41.52,41.52-18.63,41.52-41.52-18.63-41.52-41.52-41.52Z"/>
  <g>
    <g>
      <path class="cls-1" d="M55.81,55.57c-.11,0-.22-.05-.34-.15-.16-.14-.41-.62-.63-1.05-.29-.56-.46-.88-.61-.97-.16-.1-.45-.13-.76-.16-.19-.02-.38-.04-.5-.07-.57-.17-1.1-.72-1.21-1.26-.16-.81-.13-5.67,0-6.46.13-.76.79-1.12,1.45-1.42h19.97c.87.29,1.43.98,1.53,1.94.14,1.36.11,4.05,0,5.31-.12,1.32-.79,1.93-2.26,2.05h-14.95s-.04.04-.04.04c-.13.15-.28.43-.44.75-.32.62-.76,1.46-1.21,1.46ZM54.27,52.25c.18,0,.37,0,.5.06.1.05.35.48.51.74.34.58.47.78.64.78h.04l.06-.03.16-.29c.17-.36.58-1.19.84-1.24h15.33c.77-.06,1.2-.14,1.31-1.07.11-.99.06-2.12,0-3.21-.04-.78-.07-1.52-.05-2.21-.15-.34-.38-.7-.81-.7l-19.53.03-.46.64.03,5.94.13.28c.31.26.67.28,1,.28h.3Z"/>
      <path class="cls-1" d="M79.2,100.71c-.06,0-.13,0-.19-.03-.29-.09-.69-.87-.99-1.44-.19-.37-.35-.68-.49-.86l-.04-.05h-.06c-1.58-.16-3.09-.58-4.47-1.26l-29.1-.02c-1.34-.05-2.57-1.02-2.91-2.3-.17-.64-.22-3.01-.11-3.71.04-.23.25-.5.46-.5h1.98v-20.56c.06-.4.57-1.37.85-1.68.85-.94,2.16-1.06,3.2-1.06.52,0,1.06.03,1.59.07.52.03,1.04.06,1.53.06.57,0,1.02-.04,1.41-.13.41-.1,4.03-2.2,4.38-2.49l6.31-8.76c.12-.13.29-.22.46-.22.1,0,.2.03.29.09.29.2.77,1.13,1.18,1.94.34.67.66,1.3.91,1.6l.04.05h.16c.23,0,.44-.04.64-.09.2-.05.4-.09.63-.09,1.59.02,2.9.94,3.46,2.4.58,1.52.19,3.22-1,4.31l-.09.08.64,1.06c.17.13.46.2,1.51.2.36,0,.77,0,1.16-.01.39,0,.78-.01,1.12-.01.52,0,.85.02,1.04.05,1.32.24,2.47,1.58,2.55,2.98v11.1s.15,0,.15,0c1.19,0,1.65.75,2.19,1.62l.15.24c.82,1.31,1.58,2.7,2.32,4.04.84,1.54,1.72,3.14,2.69,4.64.3.37.25.95.21,1.42-.02.25-.04.47,0,.64.03.16.18.38.43.77.36.54.9,1.35.74,1.72-.05.11-.16.18-.36.21-.06.01-.11.02-.16.02-.19,0-.28-.08-.47-.31-.2-.25-1.24-2.06-1.3-2.3-.04-.17,0-.32.06-.49.06-.18.12-.38.09-.62-.02-.21-.2-.54-.41-.93l-.1-.19c-.8-1.55-1.75-3.09-2.66-4.59-.87-1.42-1.77-2.88-2.54-4.35-.18-.3-.45-.46-.74-.46-.21,0-.42.09-.55.25-.16.18-.22.44-.18.71l2.08,3.67c.05.17.03.34-.07.48-.1.13-.27.21-.45.21-.17,0-.34-.07-.48-.2-.19-.22-.55-.93-.91-1.62-.61-1.18-1-1.91-1.25-2.07-.15-.09-.31-.14-.47-.14-.24,0-.46.12-.6.32-.17.25-.19.6-.06.94.22.57.62,1.17,1.01,1.76.36.54.73,1.1.96,1.62.05.19.03.38-.08.53-.1.13-.25.21-.41.21-.15,0-.3-.07-.42-.19l-2.15-3.59c-.2-.17-.39-.25-.57-.25-.2,0-.38.08-.52.23-.16.18-.25.43-.23.7l2.06,3.7c.05.18.02.38-.09.53-.09.12-.23.19-.38.19-.11,0-.23-.04-.35-.11l-4.47-7.68c-.34-.17-.57-.22-.76-.22-.29,0-.43.13-.5.24-.21.33-.03.89.17,1.29.63,1.32,1.51,2.78,2.37,4.18.37.6.73,1.2,1.05,1.76.07.12.2.32.36.56.3.46.93,1.43.94,1.61,0,.21-.29.53-.51.55h0c-.16,0-.74-.22-1.26-.42-.62-.24-1.27-.48-1.61-.53-.19-.03-.39-.04-.58-.04h-.43s-.07.13-.07.13c-.06.54.36.97.73,1.28,1.19,1.01,4.97,3.34,6.45,3.76.29.08.84.16,1.38.23.55.08,1.29.18,1.4.26.16.15,1.53,2.5,1.6,2.72.03.17-.01.33-.11.45-.09.11-.24.18-.4.18ZM41.89,94.36c0,.49,1.15,1.64,1.64,1.64h27.77l-3.49-2.43c-.39-.5-.8-1.07-.72-1.7l.02-.16h-1.31v2.09c-.01.11-.41.48-.63.48-.63-.05-1.23-.06-1.84-.06-.93,0-1.88.04-2.83.07-.94.04-1.89.07-2.81.07-.8,0-1.5-.03-2.14-.09-.33-.03-.81-.24-.81-.48v-2.09l-12.86-.11v2.76ZM55.8,93.22h8.96v-1.51h-8.96v1.51ZM45.98,68.34c-.6,0-1.64,1.29-1.64,1.87v20.34h26.09l-1.13-1.96-22.81-.1-.18-.27.06-17.7s.18-.2.23-.24l4.09.02-.06-.19c-.17-.5-.13-1.01.11-1.57l.09-.2h-4.84ZM47.34,87.54h21.26l-.07-.19c-.17-.49-.51-1.02-.86-1.59-.87-1.39-1.78-2.82-.55-3.91.33-.29.78-.45,1.26-.45.15,0,.31.02.46.05.87.18,1.49,1.4,1.98,2.39.16.32.31.62.46.86l.07.12.12-.07c.11-.06.21-.13.32-.2.35-.23.68-.45,1.1-.45.05,0,.1,0,.16.01l.16.02v-12.77h-13.08l-.19.38.06.07c.8.96,1.69,1.88,2.55,2.77.61.63,1.22,1.26,1.8,1.91.1.11.2.21.3.32.35.36.69.71.66,1.03-.02.18-.15.36-.4.54-.65.47-2.2,1.33-2.95,1.69-.06.03-.12.06-.19.1-.18.1-.38.21-.54.21-.23,0-.89-.7-1.13-.96l-.16-.17c-.66-.67-1.29-1.38-1.91-2.09-.84-.95-1.72-1.93-2.65-2.82l-.05-.05-.07.02c-.26.05-.51.08-.75.08-1.52,0-2.19-1.14-2.97-2.46l-.34-.57h-3.84v16.2ZM70.71,70.23c3.52,0,3.56.41,3.56.43v12.51l.24-.22c.13-.12.54-.14.82-.15.26-.01.39-.02.48-.07.16-.1.41-.89.43-1.03.19-1.91.1-4.01.02-6.04-.07-1.82-.15-3.69-.03-5.42-.05-.73-.92-1.74-1.61-1.88-.22-.05-.49-.07-.83-.07-.36,0-.75.03-1.15.05-.39.03-.78.05-1.13.05-.22,0-.44,0-.63-.04l-.23-.03.08.22c.03.08.07.16.11.24.12.25.21.44.11.6-.23.37-1.32.58-3.26.63v.28h.04c.19,0,.42,0,.71-.01.58-.02,1.42-.04,2.28-.04ZM58.89,72.28c-.5,0-2.32,1.26-2.48,1.38l-.13.1,4.89,5.24c.09.07.16.1.25.1.04,0,.09,0,.14-.02.29-.07.63-.31,1-.57.41-.29.84-.59,1.19-.64l.27-.04-5.01-5.54h-.11ZM56.37,65.94c-.47.27-.95.53-1.43.79-.73.39-1.49.8-2.18,1.25l-.17.11c-.59.38-1.01.65-.91,1.58.04.41,1.29,2.58,1.54,2.9.35.44.68.63,1.1.63.18,0,.38-.03.63-.11l4.29-2.51-2.75-4.71-.12.07ZM57.51,64.92c-.04.15-.08.34,1.48,2.98.08.14.19.33.32.56.65,1.16.86,1.51.93,1.57.07.07.16.15.31.15l9.31-.8-6.95-12.07-5.4,7.61ZM66.82,60.35c-.14,0-.29,0-.45.03-.31.2-.19.37-.14.44.13.27.26.49.39.71.06.1.12.21.18.31,1.73,3.12,1.93,3.12,2.02,3.12h.02s.1-.06.1-.06c.68-.97.78-2.17.29-3.12-.46-.89-1.37-1.42-2.42-1.42Z"/>
      <path class="cls-1" d="M46.57,65.66c-3.28,0-5.96-2.67-5.96-5.96s2.67-5.96,5.96-5.96,5.96,2.67,5.96,5.96-2.67,5.96-5.96,5.96ZM46.49,61.39c-.31,0-.63.03-.95.08-.8.12-1.85.75-2.39,1.43l-.07.09.08.09c.79.94,2.04,1.47,3.42,1.47h0c1.39,0,2.65-.54,3.46-1.49l.08-.1-.09-.09c-.91-.97-2.14-1.48-3.54-1.48ZM46.55,54.79c-1.72,0-3.34.94-4.22,2.46-.87,1.49-.89,3.22-.03,4.74l.09.17.13-.14c.59-.62,1.3-1.08,2-1.3l.2-.06-.13-.16c-.57-.7-.74-1.65-.45-2.53.27-.83.89-1.43,1.71-1.64.26-.07.52-.1.77-.1.96,0,1.79.51,2.23,1.37.47.91.37,1.98-.25,2.86l-.09.12,2.38,1.57.07-.15c.66-1.45.67-3.07.02-4.44-.61-1.29-1.73-2.2-3.14-2.57-.42-.11-.85-.17-1.28-.17ZM46.57,57.27c-.84,0-1.52.68-1.52,1.52s.68,1.52,1.52,1.52,1.52-.68,1.52-1.52-.68-1.52-1.52-1.52Z"/>
      <path class="cls-1" d="M87.93,64.33c-.36,0-1.2-.52-1.95-.97-.7-.43-1.36-.83-1.73-.89-.05,0-.11-.01-.17-.01-.15,0-.34.02-.54.04-.22.02-.45.05-.66.05-.05,0-.1,0-.15,0-3.96-.31-5.76-3.52-5.76-6.37,0-2.92,1.79-6.01,5.78-6.32.17-.01.35-.02.52-.02,2.04,0,3.9.96,5.1,2.62,1.22,1.7,1.53,3.83.86,5.83-.08.23-.26.57-.43.86-.19.34-.35.63-.38.8-.08.42-.05,1.07-.01,1.75.05.93.1,1.98-.15,2.36-.07.11-.21.25-.27.26h-.05ZM84.17,61.38c.55,0,1.29.46,1.94.86.38.23.74.45,1.05.59l.2.08v-3.27c0-.09.25-.47.39-.69.14-.21.27-.41.32-.53.76-1.71.63-3.55-.35-5.06-1-1.54-2.73-2.49-4.5-2.49-1.18,0-2.32.42-3.31,1.21-1.56,1.26-2.25,3.27-1.81,5.25.44,1.99,1.93,3.51,3.88,3.99.39.09.7.14,1.01.14.18,0,.34-.01.53-.03.19-.02.39-.03.65-.04h.02Z"/>
      <path class="cls-1" d="M84.5,79.84c-3,0-5.44-2.44-5.44-5.44s2.44-5.44,5.44-5.44,5.44,2.44,5.44,5.44-2.44,5.44-5.44,5.44ZM84.5,70.01c-2.42,0-4.39,1.97-4.39,4.39s1.97,4.39,4.39,4.39,4.39-1.97,4.39-4.39-1.97-4.39-4.39-4.39Z"/>
      <path class="cls-1" d="M76.93,64.11c-.36-.01-3.53-.87-3.91-1.04-.31-.13-.46-.42-.45-.64,0-.17.11-.3.29-.35.06-.02.14-.03.24-.03.55,0,1.53.31,2.38.58.69.22,1.33.42,1.73.46.26.15.31.44.26.63-.05.19-.21.39-.52.39h-.02Z"/>
      <path class="cls-1" d="M70.58,58.64c-.27,0-.57-.25-.57-.64.18-.31.35-1.07.52-1.87.2-.92.43-1.97.69-2.23.07-.07.21-.15.29-.16h.01c.35,0,.55.29.59.57l-1.1,4.06c-.1.17-.26.29-.44.29Z"/>
      <path class="cls-1" d="M71.92,60.84c-.3,0-.52-.12-.58-.31-.08-.22.05-.5.32-.72.26-.21,3.2-1.89,3.42-1.95.05-.01.11-.02.17-.02.21,0,.4.08.5.22.08.11.11.25.06.41-.09.32-1.99,1.34-2.9,1.83-.44.23-.8.43-.99.55Z"/>
      <path class="cls-1" d="M53.62,83.47c-.75,0-1.39-.03-1.96-.1-.33-.04-.57-.2-.62-.43-.05-.22.09-.46.37-.62h9.14c.33.03.55.21.54.47,0,.26-.24.55-.66.58-.47-.04-1-.06-1.61-.06-.85,0-1.73.04-2.61.08-.87.04-1.75.08-2.59.08Z"/>
      <path class="cls-1" d="M58.14,85.91c-.73,0-1.35-.03-1.9-.09-.43-.05-.78-.25-.83-.49-.04-.18.09-.38.36-.56h9.25c.32.08.5.26.47.49-.03.26-.35.55-.82.56-.49-.04-1.01-.06-1.54-.06-.82,0-1.66.04-2.51.08-.84.04-1.68.08-2.49.08Z"/>
      <path class="cls-1" d="M64.12,83.39c-.47,0-.75-.02-.83-.04-.25-.07-.38-.35-.37-.57,0-.11.05-.37.37-.44.13-.03.57-.05,1.04-.05s.77.02.85.04c.21.06.3.31.3.5,0,.1-.04.43-.4.51-.12.03-.52.05-.95.05Z"/>
      <path class="cls-1" d="M52.35,85.83c-.66,0-1.1-.12-1.18-.24-.1-.13-.12-.4-.05-.61.02-.06.07-.18.16-.21.06-.02.45-.03,1.05-.03s.99.02,1.05.03c.09.03.16.16.19.34.03.24-.04.47-.16.55-.12.08-.52.16-1.06.16Z"/>
      <path class="cls-1" d="M81.61,56.37c-1.06,0-1.39-.08-1.49-.15-.1-.07-.17-.2-.18-.36-.01-.19.05-.39.16-.49.08-.08.26-.09.41-.1.49-.04.9-.05,1.32-.05.54,0,1.1.02,1.65.04.56.02,1.12.04,1.67.04.34,0,.67,0,1-.03.25.05.36.3.37.5,0,.21-.1.48-.41.55-.11-.03-.38-.04-.76-.04-.48,0-1.09.02-1.73.04-.69.02-1.41.05-2.02.05Z"/>
      <path class="cls-1" d="M82.99,59.09c-1.07,0-1.96-.03-2.5-.1-.34-.04-.55-.19-.57-.41-.03-.21.12-.5.5-.65.26.04.59.05.93.05.55,0,1.11-.03,1.67-.05.56-.03,1.12-.05,1.65-.05.47,0,.87.02,1.23.06.29.03.54.21.62.45.06.18.02.36-.12.5-.07.07-.29.09-.42.1-.76.06-1.91.1-3,.1Z"/>
      <path class="cls-1" d="M83.36,54.17c-.91,0-1.74-.03-2.07-.08-.3-.04-.56-.24-.64-.49-.04-.12-.05-.29.12-.46.11-.11.3-.17.57-.17.17,0,.35.02.52.04.15.02.28.03.39.03.27,0,.6-.01.96-.03.42-.02.88-.04,1.29-.04s.73.02.95.06c.25.05.39.21.39.43,0,.26-.21.55-.61.61-.29.05-1.01.08-1.87.08Z"/>
      <path class="cls-1" d="M83.48,77.34c-.72,0-1.15-.47-1.25-1.36-.08-.72-.08-2.84.05-3.47.11-.54.6-1,1.14-1.08.09-.01.16-.02.23-.02.11,0,.2.02.37.08.5.16,2.57,1.36,3.03,1.69.43.31.69.74.72,1.18.03.39-.13.76-.45,1.07-.33.31-2.24,1.36-2.77,1.62-.38.18-.75.28-1.07.28ZM83.28,72.69v3.39l.33.19c.31,0,2.66-1.4,2.79-1.5.14-.11.33-.25.28-.47v-.06s-2.99-1.79-2.99-1.79l-.41.24Z"/>
    </g>
    <path class="cls-1" d="M55.13,51.24c-.14,0-.28-.04-.4-.13-.24-.17-.34-.48-.25-.76l.33-1.01-.86-.62c-.24-.17-.34-.48-.25-.76.09-.28.35-.47.64-.47h1.06l.33-1.01c.09-.28.35-.47.64-.47.29,0,.55.19.64.47l.33,1.01h1.06c.29,0,.55.19.64.47.09.28,0,.58-.25.76l-.86.62.33,1.01c.09.28,0,.58-.25.76-.24.17-.56.17-.79,0l-.86-.62-.86.62c-.12.09-.26.13-.4.13ZM56.38,49.65c.08,0,.16.02.22.07l.88.64-.34-1.04c-.05-.16,0-.33.14-.42l.88-.64h-1.09c-.16,0-.31-.11-.36-.26l-.36-1.12-.31,1.12c-.05.16-.2.26-.36.26h-1.09l.88.64c.13.1.19.27.14.42l-.34,1.04.88-.64c.07-.05.14-.07.22-.07ZM58.41,48.26h0,0ZM56.31,46.73h0s0,0,0,0h0Z"/>
    <path class="cls-1" d="M61.93,51.24c-.14,0-.28-.04-.4-.13-.24-.17-.34-.48-.25-.76l.33-1.01-.86-.62c-.24-.17-.34-.48-.25-.76.09-.28.35-.47.64-.47h1.06l.33-1.01c.09-.28.35-.47.64-.47.29,0,.55.19.64.47l.33,1.01h1.06c.29,0,.55.19.64.47.09.28,0,.58-.25.76l-.86.62.33,1.01c.09.28,0,.58-.25.76-.24.17-.56.17-.79,0l-.86-.62-.86.62c-.12.09-.26.13-.4.13ZM63.18,49.65c.08,0,.16.02.22.07l.88.64-.34-1.04c-.05-.16,0-.33.14-.42l.88-.64h-1.09c-.16,0-.31-.11-.36-.26l-.36-1.12-.31,1.12c-.05.16-.2.26-.36.26h-1.09l.88.64c.13.1.19.27.14.42l-.34,1.04.88-.64c.07-.05.14-.07.22-.07ZM65.21,48.26h0,0Z"/>
    <path class="cls-1" d="M68.73,51.24c-.14,0-.28-.04-.4-.13-.24-.17-.34-.48-.25-.76l.33-1.01-.86-.62c-.24-.17-.34-.48-.25-.76.09-.28.35-.47.64-.47h1.06l.33-1.01c.09-.28.35-.47.64-.47s.55.19.64.47l.33,1.01h1.06c.29,0,.55.19.64.47.09.28,0,.58-.25.76l-.86.62.33,1.01c.09.28,0,.58-.25.76-.24.17-.56.17-.79,0l-.86-.62-.86.62c-.12.09-.26.13-.4.13ZM69.98,49.65c.08,0,.16.02.22.07l.88.64-.34-1.04c-.05-.16,0-.33.14-.42l.88-.64h-1.09c-.16,0-.31-.11-.36-.26l-.36-1.12-.31,1.12c-.05.16-.2.26-.36.26h-1.09l.88.64c.13.1.19.27.14.42l-.34,1.04.88-.64c.07-.05.14-.07.22-.07ZM72.01,48.26h0,0ZM69.91,46.73h0s0,0,0,0h0Z"/>
  </g>
</svg>