<?xml version="1.0" encoding="UTF-8"?>
<svg id="Capa_1" data-name="Capa 1" xmlns="http://www.w3.org/2000/svg" viewBox="0 0 978.12 144.73">
  <defs>
    <style>
      .cls-1 {
        fill: #edf0f4;
      }
    </style>
  </defs>
  <path class="cls-1" d="M905.75,144.73H72.37C32.46,144.73,0,112.27,0,72.37S32.46,0,72.37,0h833.39C945.66,0,978.12,32.46,978.12,72.37s-32.46,72.37-72.37,72.37ZM72.37,3C34.12,3,3,34.12,3,72.37s31.12,69.37,69.37,69.37h833.39c38.25,0,69.37-31.12,69.37-69.37S944,3,905.75,3H72.37Z"/>
  <g>
    <path class="cls-1" d="M133.92,50.26h31.18v7.13h-22.97v10.66h20.81v7.06h-20.81v11.23h22.9v7.13h-31.11v-43.2Z"/>
    <path class="cls-1" d="M194.4,84.53h-.5c-1.73,5.83-5.76,9.86-11.81,9.86-7.78,0-12.31-6.26-12.31-17.71s4.61-18,12.53-17.93c6.12-.07,9.86,3.82,11.59,9.72h.5v-21.24h7.7v46.23h-7.7v-8.93ZM194.4,78.05v-2.59c0-5.83-3.38-9.72-8.64-9.72-5.62,0-8.35,3.53-8.35,10.95s2.59,10.8,8.35,10.8c5.18,0,8.64-3.67,8.64-9.43Z"/>
    <path class="cls-1" d="M232.92,84.53h-.72c-1.87,6.26-6.19,9.86-11.81,9.86-7.13,0-10.51-4.82-10.51-12.17v-22.61h7.78v20.59c0,4.1,1.8,7.13,6.41,7.13,5.26,0,8.64-3.46,8.64-8.57v-19.15h7.78v33.84h-7.56v-8.93Z"/>
    <path class="cls-1" d="M263.52,65.6c-5.54,0-9,3.53-9,10.94,0,6.84,3.17,11.02,9.22,11.02,5.47,0,7.34-3.38,8.35-7.49l7.13,1.73c-1.37,7.85-6.12,12.6-15.41,12.6-10.66,0-17.21-6.19-17.21-17.57s6.7-18.07,17.07-18.07c9.72,0,14.11,4.61,15.48,12.67l-7.27,1.37c-1.01-4.32-3.02-7.2-8.35-7.2Z"/>
    <path class="cls-1" d="M306.14,85.4h-.79c-1.73,5.47-5.62,8.78-11.59,8.78s-10.3-2.88-10.3-9.5c0-6.05,3.67-10.44,12.24-10.44h10.08v-2.3c0-4.39-1.8-6.91-6.55-6.91-3.96,0-6.26,2.02-7.13,5.98l-7.34-1.66c1.3-6.41,6.12-10.51,14.76-10.51,9.79,0,13.97,4.61,13.97,13.03v21.6h-7.34v-8.06ZM305.78,80.72v-1.37h-8.78c-3.89,0-6.12,1.44-6.12,4.25,0,2.45,1.51,4.54,5.9,4.54,5.4,0,9-3.17,9-7.42Z"/>
    <path class="cls-1" d="M336.31,65.6c-5.54,0-9,3.53-9,10.94,0,6.84,3.17,11.02,9.22,11.02,5.47,0,7.34-3.38,8.35-7.49l7.13,1.73c-1.37,7.85-6.12,12.6-15.41,12.6-10.66,0-17.21-6.19-17.21-17.57s6.7-18.07,17.07-18.07c9.72,0,14.11,4.61,15.48,12.67l-7.27,1.37c-1.01-4.32-3.02-7.2-8.35-7.2Z"/>
    <path class="cls-1" d="M358.41,53.86v-6.26h8.42v6.26h-8.42ZM358.7,93.46v-33.84h7.78v33.84h-7.78Z"/>
    <path class="cls-1" d="M373.09,76.47c0-11.16,6.7-17.71,17.21-17.71s17.07,6.55,17.07,17.71-6.34,17.93-17.07,17.93-17.21-6.84-17.21-17.93ZM380.87,76.4c0,6.98,2.88,11.3,9.36,11.3s9.43-4.32,9.43-11.3-3.17-11.09-9.43-11.09-9.36,4.1-9.36,11.09ZM383.03,52.35l16.85-9.72,2.88,5.54-17.79,7.99-1.94-3.82Z"/>
    <path class="cls-1" d="M421.19,93.46h-7.7v-33.84h7.56v8.93h.65c1.87-6.26,6.19-9.79,11.88-9.79,7.06,0,10.44,4.75,10.44,12.1v22.61h-7.7v-20.59c0-4.1-1.8-7.13-6.48-7.13-5.18,0-8.64,3.46-8.64,8.57v19.15Z"/>
    <path class="cls-1" d="M473.82,77.84v15.63h-8.21v-43.2h29.81v7.56h-21.6v12.89h19.51v7.13h-19.51Z"/>
    <path class="cls-1" d="M499.45,52.35l16.85-9.72,2.88,5.54-17.79,7.99-1.94-3.82ZM502.77,93.46v-33.84h7.78v33.84h-7.78Z"/>
    <path class="cls-1" d="M517.38,83.45l6.98-1.44c1.08,4.1,3.46,6.7,8.93,6.7,4.1,0,6.26-1.44,6.26-4.32,0-2.66-1.87-3.96-8.57-5.18-9-1.8-12.17-4.82-12.17-10.44,0-6.12,4.46-10.01,13.47-10.01s12.46,3.82,13.83,9.79l-6.98,1.51c-.94-4.18-2.95-5.76-6.98-5.76s-5.98,1.51-5.98,4.03c0,2.38,1.44,4.03,7.85,5.18,10.01,1.87,13.03,5.26,13.03,10.58,0,6.26-4.18,10.3-13.9,10.3-10.94,0-14.54-4.46-15.77-10.94Z"/>
    <path class="cls-1" d="M553.16,53.86v-6.26h8.42v6.26h-8.42ZM553.45,93.46v-33.84h7.78v33.84h-7.78Z"/>
    <path class="cls-1" d="M584.77,65.6c-5.54,0-9,3.53-9,10.94,0,6.84,3.17,11.02,9.22,11.02,5.47,0,7.34-3.38,8.35-7.49l7.13,1.73c-1.37,7.85-6.12,12.6-15.41,12.6-10.66,0-17.21-6.19-17.21-17.57s6.7-18.07,17.07-18.07c9.72,0,14.11,4.61,15.48,12.67l-7.27,1.37c-1.01-4.32-3.02-7.2-8.35-7.2Z"/>
    <path class="cls-1" d="M627.4,85.4h-.79c-1.73,5.47-5.62,8.78-11.59,8.78s-10.3-2.88-10.3-9.5c0-6.05,3.67-10.44,12.24-10.44h10.08v-2.3c0-4.39-1.8-6.91-6.55-6.91-3.96,0-6.26,2.02-7.13,5.98l-7.34-1.66c1.3-6.41,6.12-10.51,14.76-10.51,9.79,0,13.97,4.61,13.97,13.03v21.6h-7.34v-8.06ZM627.04,80.72v-1.37h-8.78c-3.89,0-6.12,1.44-6.12,4.25,0,2.45,1.51,4.54,5.9,4.54,5.4,0,9-3.17,9-7.42Z"/>
    <path class="cls-1" d="M652.45,105.63l1.22-6.98c1.44.29,2.88.5,4.32.5,3.82,0,5.83-.94,8.06-6.05l-13.61-33.48h8.5l3.96,12.24c1.37,4.25,3.24,9.87,4.68,14.76h1.15c1.51-5.04,3.17-10.44,4.46-14.62l3.67-12.38h8.28l-13.97,34.27c-3.46,8.42-7.63,12.17-15.41,12.17-2.23,0-3.74-.22-5.33-.43Z"/>
    <path class="cls-1" d="M713.29,77.84v15.63h-8.21v-43.2h29.81v7.56h-21.6v12.89h19.51v7.13h-19.51Z"/>
    <path class="cls-1" d="M741.22,53.86v-6.26h8.42v6.26h-8.42ZM741.51,93.46v-33.84h7.78v33.84h-7.78Z"/>
    <path class="cls-1" d="M759.8,65.88h-4.75v-6.26h4.75v-9.15h7.78v9.15h9.94v6.26h-9.94v16.2c0,3.31,1.22,5.04,4.61,5.04,1.73,0,3.24-.36,4.9-.86l.94,6.91c-2.52.79-4.25,1.22-7.63,1.22-7.42,0-10.58-4.9-10.58-11.23v-17.28Z"/>
    <path class="cls-1" d="M791.19,93.46h-7.7v-33.84h7.56v8.93h.65c1.87-6.26,6.19-9.79,11.88-9.79,7.06,0,10.44,4.75,10.44,12.1v22.61h-7.7v-20.59c0-4.1-1.8-7.13-6.48-7.13-5.18,0-8.64,3.46-8.64,8.57v19.15Z"/>
    <path class="cls-1" d="M819.77,76.97c0-11.45,6.48-18.22,17.07-18.22s15.19,6.19,15.19,15.48c0,1.3,0,2.81-.14,4.54h-24.41c.58,6.12,3.67,9.22,9.43,9.22,5.4,0,7.27-2.59,8.21-5.83l6.62,1.87c-1.58,6.12-5.83,10.3-14.91,10.3-10.37,0-17.07-6.05-17.07-17.35ZM827.55,73.59h17.35c-.29-5.83-2.88-8.86-8.28-8.86s-8.35,2.81-9.07,8.86Z"/>
    <path class="cls-1" d="M855.92,83.45l6.98-1.44c1.08,4.1,3.46,6.7,8.93,6.7,4.1,0,6.26-1.44,6.26-4.32,0-2.66-1.87-3.96-8.57-5.18-9-1.8-12.17-4.82-12.17-10.44,0-6.12,4.46-10.01,13.47-10.01s12.46,3.82,13.83,9.79l-6.98,1.51c-.94-4.18-2.95-5.76-6.98-5.76s-5.98,1.51-5.98,4.03c0,2.38,1.44,4.03,7.85,5.18,10.01,1.87,13.03,5.26,13.03,10.58,0,6.26-4.18,10.3-13.9,10.3-10.94,0-14.54-4.46-15.77-10.94Z"/>
    <path class="cls-1" d="M889.18,83.45l6.98-1.44c1.08,4.1,3.46,6.7,8.93,6.7,4.1,0,6.26-1.44,6.26-4.32,0-2.66-1.87-3.96-8.57-5.18-9-1.8-12.17-4.82-12.17-10.44,0-6.12,4.46-10.01,13.47-10.01s12.46,3.82,13.83,9.79l-6.98,1.51c-.94-4.18-2.95-5.76-6.98-5.76s-5.98,1.51-5.98,4.03c0,2.38,1.44,4.03,7.85,5.18,10.01,1.87,13.03,5.26,13.03,10.58,0,6.26-4.18,10.3-13.9,10.3-10.94,0-14.54-4.46-15.77-10.94Z"/>
  </g>
  <path class="cls-1" d="M65.28,115.89c-24,0-43.52-19.52-43.52-43.52s19.52-43.52,43.52-43.52,43.52,19.52,43.52,43.52-19.52,43.52-43.52,43.52ZM65.28,30.85c-22.89,0-41.52,18.63-41.52,41.52s18.63,41.52,41.52,41.52,41.52-18.63,41.52-41.52-18.63-41.52-41.52-41.52Z"/>
  <path class="cls-1" d="M90.34,87.4c-.1-.14-.28-.27-.39-.41-.94-.66-2.18-.77-3.12-.05-.02-.73,0-1.51-.38-2.17-1.32-2.22-4.75-1.29-4.8,1.3l-.08,5.08-4.52-.09c.77-2.24,1.12-4.66.97-7.18.52-.31,1.08-.44,1.64-.73,7.09-3.73,10.18-12.38,7.4-19.81l-1.2-2.42c-.38-.64-1.06-1.48-1.55-2.06-3.93-4.67-10.57-6.69-16.42-4.95-.73-7.06-6-14.28-13.76-13.33-10.91,1.33-16.41,15.16-13.64,24.8.88,3.05,2.35,5.51,4.67,7.68-3.96,4.51-5.37,11.02-3.81,16.81.47,1.73,1.24,3.16,1.97,4.79l-1.4,6.03c-.08.85.04,1.39.69,1.98.59.53,2.92,1.04,3.68.77,1.54-.54,1.41-2.18,1.82-3.49,2.83,2.04,6.09,3.36,9.56,3.68,1.61.15,3.18.09,4.69-.16,1.22.79,3,.37,3.69-.99,3.25-1.25,6.06-3.39,8.15-6.11l7.16.12-.05,5.34c.24,2.56,3.55,3.27,4.82,1.06.38-.65.28-1.31.34-2.02,1.68,1.23,3.93.29,4.16-1.83l.17-10.43c-.04-.38-.23-.93-.45-1.23ZM82.54,79.74c-.68,1.11-2.88,2.08-3.93,2.84.83-2.49,1.62-5.08,1.25-7.73.97,0,1.95.08,2.9-.19.22.12.33,1.83.33,2.16,0,.56-.28,2.49-.55,2.93ZM83.95,78.16c.15-1.23.22-2.55-.2-3.73l2.64-1.03c-.44,1.72-1.29,3.39-2.44,4.76ZM86.33,64.39c.49,1.71.8,3.46.74,5.25-.01.41-.1,1.81-.25,2.12-.4.84-3.11,1.65-4.04,1.87-2.19.52-4.1.24-5.99-.98-.22-.14-.82-.53-.96-.68-.26-.29.71-.42.91-.51,3.63-1.62,6.84-4.25,9.59-7.07ZM84.06,60.14c.37.5,1.83,2.64,1.79,3.12-.52.78-1.22,1.46-1.91,2.1-2.62,2.46-5.73,4.46-9.09,5.72-1.33-1.16-2.41-2.55-3.53-3.91l-.02-.23c1.59-3.35,4.08-6.27,7.32-8.16.57-.33,2.16-1.24,2.75-1.23.53.01,2.32,2.07,2.7,2.58ZM72.71,54.28l-2.2,1.77-2.34-.15-.22-.16-.05-.71c1.5-.67,3.2-.66,4.81-.75ZM67.87,56.94c.22-.07,1.65-.16,1.59.17l-1.6,1.75v-1.92ZM74.5,54.51c2.07.3,4.16,1.07,5.88,2.27-4.38,1.85-7.74,5.2-9.87,9.39-1.01-1.66-2.24-3.2-3-5,1.57-2.82,4.18-5.09,6.99-6.66ZM77.63,74.22c.3.14,1.06.26,1.21.51.24,2.31-.08,4.83-1.11,6.91-1.22-6.7-6.22-12.33-12.69-14.34l1.33-2.84.64-1.89c2.65,4.19,5.99,9.48,10.62,11.66ZM43.62,65.45c-.14-.09-.47-1.23-.49-1.46-.02-.14-.14-.16.1-.24l2.71.64-.3,1.45-2.02-.39ZM45.37,66.88l-.18,1.25c-.17.3-.98-1.34-1.14-1.49l1.32.24ZM46.99,51.92l1.68.27c.17.09-.1,1.41-.27,1.5l-1.78-.43.38-1.34ZM46.67,48.1l.25-.23-.07.28-.19-.05ZM61.61,47.64l-.2,1.24c-.23.35-1.48-.32-1.84-.17l.3-1.51,1.74.43ZM60.1,46.17l.14-.66c.14-.07,1.04.72,1.09.96l-1.23-.3ZM64.06,50.75c.35.29.38,1.19.59,1.62l-2.92-.68.32-1.26c.18-.21,1.82.18,2,.32ZM62.28,49.22c.1-.14.2-1.37.47-1.26l.87,1.49c-.07.23-1.17-.14-1.34-.23ZM58,63.59l-1.83-.41.31-1.43,1.78.42c-.04.48-.34.96-.25,1.43ZM54.64,65.38l-1.84-.41.32-1.42,1.76.4c-.02.49-.33.96-.25,1.42ZM48.4,58.79l.14-1.35,1.94.34c-.2.3-.16,1.14-.39,1.34-.21.18-1.38-.23-1.69-.33ZM49.92,60.25l-.38,1.34-1.71-.32.21-1.38,1.88.36ZM48.85,56.4c.17-.31.14-1.13.39-1.34.21-.18,1.38.19,1.7.33l-.31,1.43-1.78-.42ZM49.41,53.93l.38-1.34,1.71.32-.16,1.36c-.13.23-1.64-.28-1.93-.34ZM51.4,58.09l1.88.37-.38,1.33-1.7-.32.2-1.38ZM55.26,53.85l1.83.41-.31,1.43-1.78-.42c.04-.48.34-.96.25-1.43ZM58.62,52.06l1.83.41-.31,1.43-1.77-.42c.02-.49.34-.96.25-1.42ZM62.06,57.98l-.19,1.38-1.69-.28c-.22-.14.07-1.39.27-1.49l1.61.39ZM60.91,55.17l1.72.33c.18.19-.14,1.09-.22,1.37-.15.11-1.58-.18-1.71-.33-.22-.26.22-1,.2-1.37ZM59.8,54.78c.22.14-.07,1.4-.27,1.49l-1.61-.39.19-1.38,1.69.28ZM59.27,57.3c.18.21-.14,1.07-.22,1.37l-1.71-.33c-.22-.25.21-1.02.21-1.38l1.72.34ZM57.34,53.21l-1.77-.4.38-1.34,1.7.32c.11.15-.21,1.36-.32,1.41ZM56.44,56.57c.22.14-.07,1.4-.27,1.49l-1.61-.39.19-1.38,1.69.28ZM54.65,52.52c-.25.18-1.52-.29-1.89-.38l.38-1.34,1.68.26-.18,1.46ZM54.29,53.6l-.31,1.43-1.78-.42.39-1.33,1.7.32ZM53.73,56.06l-.31,1.43-1.66-.5.14-1.35c.08-.15,1.6.27,1.83.41ZM53.33,62.42l.35-1.35,1.76.37-.29,1.51-1.82-.52ZM53.99,60.14c-.22-.23.2-1.04.21-1.38.14-.11,1.59.19,1.71.34.19.22-.14,1.06-.21,1.37l-1.71-.33ZM55.93,64.23l1.77.4-.38,1.34-1.71-.32c-.1-.12.2-1.34.32-1.42ZM56.82,60.87c-.22-.14.07-1.4.27-1.49l1.61.39-.19,1.38-1.69-.28ZM58.61,64.92c.26-.19,1.53.27,1.89.38l-.35,1.07-1.71.02.18-1.46ZM58.97,63.85c-.11-.15.21-1.36.32-1.41l1.77.4-.38,1.34-1.7-.32ZM59.53,61.38l.31-1.43,1.78.42-.25,1.43-1.83-.41ZM61.46,65.44l1.01.25c0,.68-.63,1.11-1.27.76l.25-1.01ZM61.79,64.59l.18-1.46c.25-.18,1.36.26,1.72.32l-.55,1.28-1.35-.14ZM62.33,62.05l.31-1.43,1.77.44-.31,1.41-1.77-.42ZM62.88,59.58l.31-1.43,1.75.37-.28,1.51-1.79-.45ZM63.5,57.23c-.18-.19.13-1.08.22-1.37l1.35.15-.02,1.49c-.13.1-1.49-.21-1.55-.27ZM64.26,53.38c1.05-.15.57.99.87,1.63-1.49,0-1.13-.52-.87-1.63ZM63.29,53.23l-.35,1.35-1.76-.37.29-1.51,1.82.52ZM61.01,49.99c.1.12-.2,1.34-.32,1.42l-1.76-.4.38-1.34,1.71.32ZM59.08,45.92l-1.75-.41.23-1.28c.21-.17,1.45.5,1.72.61l-.21,1.08ZM58.8,46.97l-.28,1.44-1.78-.43.32-1.43,1.75.42ZM58.25,49.43l-.2,1.24c-.19.28-1.59-.23-1.92-.33l.38-1.34,1.74.43ZM56.27,45.27l-1.74-.43.25-.99,1.87.08-.38,1.34ZM56.04,46.3l-.32,1.43-1.75-.42.28-1.44,1.78.43ZM55.45,48.76l-.28,1.44-1.78-.42.32-1.43,1.75.41ZM53.39,44.63l-1.22-.35c.25-.04,1.42-.44,1.51-.27l-.29.61ZM53.21,45.56l-.3,1.51-1.73-.43.23-1.29c.35-.25,1.38.35,1.81.22ZM52.68,48.1l-.31,1.42-1.76-.42.29-1.43,1.78.43ZM52.09,50.56l-.33,1.34-1.71-.26.3-1.51,1.74.43ZM50.11,46.39l-1.27-.25,1.51-1.09c.17.06-.11,1.19-.25,1.34ZM49.93,47.51l-.44,1.33-1.78-.47.4-1.37,1.82.5ZM49.32,49.89l-.31,1.43-1.77-.42.31-1.43,1.77.42ZM48.14,54.71l-.15,1.35-1.94-.34.39-1.33,1.7.32ZM45.6,58.12l.31-1.43,1.67.5-.31,1.43-1.67-.49ZM47.13,59.58l-.39,1.33-1.7-.32.14-1.35,1.94.34ZM46.2,50.63c-.19-.04-1.13-.12-1.09-.4.35-.27.61-1.14,1.07-1.15l.33.13-.32,1.42ZM45.96,51.68l-.31,1.43-1.67-.47.65-1.3,1.33.35ZM45.34,54.04l-.21,1.38-1.88-.38.28-1.27c.29-.25,1.41.24,1.81.27ZM44.78,56.51l-.14,1.35-1.94-.34.15-1.37c.12-.22,1.66.25,1.93.36ZM44.33,58.9c-.27,1.41-.29,1.67-1.75,1.12l-.03-1.41,1.78.28ZM43.77,61.37l-.46,1.38c-.8-.06-.52-.99-.71-1.56l1.18.17ZM44.51,63.12c-.17-.09.1-1.41.27-1.5l1.78.43-.38,1.34-1.68-.27ZM46.42,67.12l1.74.43-.36,1.33-1.68-.26c-.15-.08.17-1.31.3-1.51ZM48.25,70.18l-.82.53-1.04-.98c.05-.15,1.71.28,1.86.45ZM46.58,66.11l.35-1.49,1.87.44-.35,1.49-1.87-.44ZM47.18,63.54l.35-1.35,1.75.37-.29,1.51-1.82-.52ZM49.22,67.79l2.06.48-1.6.79c-.26.13-.28.44-.83.07l.36-1.33ZM51.16,67.09l-1.71-.31.32-1.42,1.75.4-.36,1.33ZM50.01,64.29l.31-1.43,1.78.42-.31,1.45-1.78-.43ZM50.67,61.99c-.25-.16.11-1.24.27-1.49.08-.04.97.15,1.13.2,1.04.34.32.74.29,1.57l-1.69-.28ZM52.66,65.96l3.08.8c-.91.04-1.97.67-2.79.8-.09.01-.71-.05-.73-.21.03-.26.2-1.32.44-1.39ZM54.54,68.09c2.33-.71,4.77-.74,7.18-.58l-2.27,1.84c-1.15,1.07-2.17,2.26-3.09,3.53-1.8-.88-2.61-2.94-1.82-4.78ZM63.62,67.97c.86-.03,3.55,1.21,4.38,1.67,1.21.68,2.54,1.6,3.46,2.64l-1.7-.53c-4.25-.77-8.24,3.42-12.47,1.5,1.22-1.53,4.31-5.21,6.32-5.28ZM44.34,70.77c-7.84-9.35-1.87-29.3,11.12-29.27,10.47.02,13.14,13.49,10.38,21.58-.2.6-1.44,3.51-1.79,3.8-.24.2-.71-.05-.95-.19,2.71-4.02,3.73-9.56,2.57-14.3-2.66-10.86-13.69-12.88-20.41-4.08-4.92,6.44-5.37,17.57,1.36,23.01l-.66.79c-.29.17-1.39-1.07-1.62-1.34ZM53.31,68.5c.09.47-.1.91-.06,1.4.12,1.65,1.08,2.95,2.46,3.78l-2.92,5.05c-2.93-.82-5.82-1.8-8.83-2.27,2.02-3.64,5.39-6.6,9.34-7.97ZM58.35,86.43l-.54.53c-.26.33-.44.89-.49,1.31l-.02.75c-1.2-2.38-2.82-4.74-5.3-5.73-.1-.14.15-.72.22-.91.16-.44.74-1.97.94-2.25.12-.16.15-.1.3-.08.38.05,2.01.83,2.49,1.04,2.07.93,4.1,1.99,6.1,3.14-.05.06-.1.12-.14.19-.42.68-.37,1.39-.46,2.15-.91-.75-2.14-.76-3.12-.14ZM61.26,97.89c0,.24,0,.49-.01.73-.04.24-.11.46-.21.64-.7,1.24-2.74.93-2.9-.73l.05-4.71.03-2.84.03-2.35c.03-.34.1-.7.31-.98.81-1.07,2.39-.77,2.8.49.1,3.24-.06,6.49-.09,9.74ZM43.46,77.49c3.01.26,5.89,1.33,8.78,2.16l-1.28,3.5c-2.93,0-4.98,2.25-6.51,4.48l-1.8,3.1c-1.47-4.32-1.18-9.17.8-13.25ZM45.05,102.48c-2.2-.36-2.33-.66-1.91-2.74.21-1.05.52-2.58.84-3.56.05-.16.04-.28.25-.33.77,1.31,1.9,2.35,2.99,3.38-.5,1.44-.03,3.6-2.17,3.25ZM43.26,92.18c-.06-.34,1.37-2.93,1.65-3.38,1.22-1.97,3.23-4.64,5.76-4.55-1.42,5.56-.71,11.57,1.48,16.86-3.95-1.64-7.24-4.96-8.89-8.93ZM57.73,102.66c-.71-.07-3.88-.59-4.22-1.06-2.52-5.32-3.27-11.5-1.86-17.22.38-.32,1.99,1.06,2.28,1.37,1.55,1.63,2.5,3.62,3.33,5.67l-.15,7.13c.11,2.05,2.5,3.15,4.1,1.87.05.62-.08,1.2.15,1.81.05.12.11.23.17.34-1.27.16-2.57.2-3.8.08ZM65.54,86.31h0c0,5.04-.07,10.12-.25,15.16,0,.15,0,.29-.01.44-.51,1.23-1.92,1.31-2.63.51-.21-.24-.37-.56-.41-.96v-.92s.04-1.38.04-1.38l.22-13.47c.02-.34.17-.72.4-.98,0,0,0,0,0,0,.3-.33.69-.49,1.09-.5.6-.02,1.19.31,1.48.89.03.07.07.12.1.2,0,.34,0,.69,0,1.03ZM62.85,83.53c-2.55-1.47-5.15-2.83-7.84-3.96-.23-.1-1.35-.35-1.31-.58l3.03-4.77c2.19.78,4.27.56,6.46-.09,3.13-.93,4.66-2.27,8-.9,2.29.93,2.98,1.84,4.07,4.06,2.1,4.29,2.31,9.3.71,13.76l-1.44-.03c-2.59-1.74-5.2-3.5-7.87-5.18v-.41c-.25-1.94-2.34-2.73-3.81-1.9ZM72.63,90.99l-6.02-.11.05-3.86c2.02,1.29,4.01,2.63,5.98,3.98ZM69.79,99.34c-.56.4-2.3,1.54-3.46,2l.08-5.08,6.52.11c-.91,1.1-1.94,2.1-3.14,2.97ZM81.45,95.48l-6.53-.11-1.21-.02-7.19-.12.05-3.26,7.69.12,2.37.04,4.87.08-.05,3.26ZM85.54,101.88c-.25,1.68-2.47,1.9-3.05.31-.03-5.51.09-11.07.25-16.58.06-.12.12-.29.2-.4.92-1.22,2.68-.71,2.86.76l-.26,15.91ZM89.77,98.91c-.2,2.07-3.02,2.03-3.16-.05.26-3.14-.17-6.66.15-9.76.04-.34.09-.69.31-.98.94-1.25,2.79-.59,2.86.94l-.16,9.85Z"/>
</svg>