<?xml version="1.0" encoding="UTF-8"?>
<svg id="Capa_1" data-name="Capa 1" xmlns="http://www.w3.org/2000/svg" viewBox="0 0 428.2 144.73">
  <defs>
    <style>
      .cls-1 {
        fill: #edf0f4;
      }
    </style>
  </defs>
  <path class="cls-1" d="M355.83,144.73H72.37C32.46,144.73,0,112.27,0,72.37S32.46,0,72.37,0h283.46C395.73,0,428.2,32.46,428.2,72.37s-32.46,72.37-72.37,72.37ZM72.37,3C34.12,3,3,34.12,3,72.37s31.12,69.37,69.37,69.37h283.46c38.25,0,69.37-31.12,69.37-69.37S394.08,3,355.83,3H72.37Z"/>
  <g>
    <path class="cls-1" d="M136.47,93.46v-43.2h8.21v43.2h-8.21Z"/>
    <path class="cls-1" d="M175.78,84.53h-.5c-1.73,5.83-5.76,9.87-11.81,9.87-7.78,0-12.31-6.27-12.31-17.71s4.61-18,12.53-17.93c6.12-.07,9.86,3.82,11.59,9.72h.5v-21.24h7.7v46.23h-7.7v-8.93ZM175.78,78.05v-2.59c0-5.83-3.38-9.72-8.64-9.72-5.62,0-8.35,3.53-8.35,10.94s2.59,10.8,8.35,10.8c5.18,0,8.64-3.67,8.64-9.43Z"/>
    <path class="cls-1" d="M191.69,53.86v-6.26h8.42v6.26h-8.42ZM191.98,93.46v-33.84h7.78v33.84h-7.78Z"/>
    <path class="cls-1" d="M206.38,76.47c0-11.16,6.7-17.71,17.21-17.71s17.07,6.55,17.07,17.71-6.34,17.93-17.07,17.93-17.21-6.84-17.21-17.93ZM214.15,76.4c0,6.98,2.88,11.3,9.36,11.3s9.43-4.32,9.43-11.3-3.17-11.09-9.43-11.09-9.36,4.1-9.36,11.09Z"/>
    <path class="cls-1" d="M254.47,93.46h-7.7v-33.84h7.56v8.93h.65c1.87-6.34,6.12-9.79,11.88-9.79,6.34,0,9.5,3.89,10.01,10.15h.79c1.66-6.48,5.62-10.15,11.88-10.15,7.13,0,10.58,4.75,10.58,12.1v22.61h-7.78v-20.59c0-4.1-1.87-7.13-6.41-7.13-5.33,0-8.64,3.46-8.64,8.57v19.15h-7.7v-20.59c0-4.1-1.94-7.13-6.48-7.13-5.18,0-8.64,3.46-8.64,8.57v19.15Z"/>
    <path class="cls-1" d="M328.56,85.4h-.79c-1.73,5.47-5.62,8.78-11.59,8.78s-10.3-2.88-10.3-9.5c0-6.05,3.67-10.44,12.24-10.44h10.08v-2.3c0-4.39-1.8-6.91-6.55-6.91-3.96,0-6.26,2.02-7.13,5.98l-7.34-1.66c1.3-6.41,6.12-10.51,14.76-10.51,9.79,0,13.97,4.61,13.97,13.03v21.6h-7.34v-8.06ZM328.2,80.72v-1.37h-8.78c-3.89,0-6.12,1.44-6.12,4.25,0,2.45,1.51,4.54,5.9,4.54,5.4,0,9-3.17,9-7.42Z"/>
    <path class="cls-1" d="M341.38,83.45l6.98-1.44c1.08,4.1,3.46,6.7,8.93,6.7,4.1,0,6.26-1.44,6.26-4.32,0-2.66-1.87-3.96-8.57-5.18-9-1.8-12.17-4.82-12.17-10.44,0-6.12,4.46-10.01,13.47-10.01s12.46,3.82,13.83,9.79l-6.98,1.51c-.94-4.18-2.95-5.76-6.98-5.76s-5.98,1.51-5.98,4.03c0,2.38,1.44,4.03,7.85,5.18,10.01,1.87,13.03,5.26,13.03,10.59,0,6.26-4.18,10.3-13.9,10.3-10.94,0-14.54-4.46-15.77-10.95Z"/>
  </g>
  <path class="cls-1" d="M65.28,115.89c-24,0-43.52-19.52-43.52-43.52s19.52-43.52,43.52-43.52,43.52,19.52,43.52,43.52-19.52,43.52-43.52,43.52ZM65.28,30.85c-22.89,0-41.52,18.63-41.52,41.52s18.63,41.52,41.52,41.52,41.52-18.63,41.52-41.52-18.63-41.52-41.52-41.52Z"/>
  <g>
    <path class="cls-1" d="M87.76,61.31c-.15-.15.18-3.6-.08-4.25-.1-.26-.4-.5-.7-.45l-16.16.02c-1.65.25-3.09,1.19-3.98,2.59-.63-.96-1.52-1.77-2.59-2.21-.28-.11-1.26-.32-1.31-.46-.18-2.46.19-5.15-.03-7.59-.17-1.86-1.29-3.11-3.16-3.3l-11.97.03h0s-4.2,0-4.2,0c-.67-.05-1.47.12-1.86.31-1.16.56-1.76,1.7-1.85,2.95-.34,4.9.26,10.19,0,15.13.15,1.49,1.45,3.01,3.02,2.97v24.26c.11,1.36.94,2.33,2.25,2.65h12.41s.36.17.36.17v2.3c0,.16.42,1.05.54,1.23.51.75,1.34,1.16,2.17,1.43h17.53c.99-.3,1.81-.77,2.31-1.7.07-.13.4-.9.4-.96v-2.45h7.77c.87,0,2.19-1.66,2.14-2.56v-27.44c-.13-1.59-1.42-2.78-3.02-2.66ZM43.27,65.59c-.96-.1-1.79-.69-1.83-1.72v-15.12c.14-.78.74-1.41,1.53-1.51.29-.04.68.01,1.02-.03h3.8s11.97.02,11.97.02c1.01.11,1.56.96,1.62,1.93-.27,4.69.35,9.76,0,14.4-.21,2.83-2.52,1.75-4.33,2.04-.21.03-.58.26-.58.46v3.44l-.26.16-3.39-4.02-9.55-.05ZM57.93,92.4h-12.57c-.23,0-.89-.66-.89-.89v-24.36h1.46v23c0,.23.44.44.68.47,3.41.37,7.48-.27,10.96,0l.36.16v1.62ZM57.93,89.06h-10.43v-3.13h10.43v3.13ZM57.93,80.24v4.12h-10.43v-17.21h4.64l2.88,3.59c.68.56,1.46.64,2.22.15,1.15-.75.72-2.57.8-3.74h1.83c1.46,0,3.08-1.74,3.08-3.18v-5.69c1.29.13,2.48,1.27,2.9,2.47.05.14.23.73.23.81v12.67c-.73-.74-1.79-1.03-2.66-.31-.15.12-.57.73-.57.89v2.76h-1.93c-1.09,0-2.97,1.53-2.97,2.66ZM78.19,97.38c-5.73.29-11.53.06-17.28.12-.74-.16-1.36-.72-1.42-1.5l.02-15.52c.58-2.01,2.88-1.07,4.3-1.33.24-.05.58-.47.58-.68v-3.39c.19-.03.23,0,.36.11.83.72,1.83,2.48,2.67,3.38.13.14.44.51.59.56l9.67.03c.75.09,1.25.48,1.55,1.16l.08,15.57c-.02.68-.48,1.29-1.12,1.48ZM80.48,79.28c-.58-1.05-1.72-1.61-2.89-1.7h-8.95c-.35-.56-.95-.92-1.02-1.61-.42-4.55.32-9.77.02-14.39.02-1.34,1.86-3.4,3.17-3.4h15.39v26.18h-5.32v-4.12c0-.05-.33-.84-.4-.96ZM86.2,85.93v3.13h-5.32v-3.13h5.32ZM89.15,91.54c-.04.28-.57.85-.82.85h-7.46v-1.77h6.42s.56-.51.47-.67v-8.63h-.01v-3.66s0-.02,0-.03v-14.76c.77-.13,1.47.54,1.46,1.3l-.07,27.37Z"/>
    <path class="cls-1" d="M55.28,62.13c.62.39,1.39-.06,1.22-.8-1.48-3.37-2.43-7.34-3.98-10.63-.24-.52-.36-.86-1.01-.88-.99-.03-1.07.8-1.38,1.55-1.33,3.21-2.38,6.54-3.71,9.75-.34.78.42,1.46,1.14,1.03.46-.27.96-2.47,1.16-2.52l5.55.02c.16.48.65,2.25,1.01,2.48ZM49.27,58.08l2.09-5.63,2.19,5.63h-4.28Z"/>
    <path class="cls-1" d="M84.08,70.42c-.15-.15-.53-.22-.75-.24-4.04-.37-8.63.29-12.73,0-1.04.05-1.24,1.44-.1,1.57h13.15c.64-.07.87-.89.43-1.33Z"/>
    <path class="cls-1" d="M83.54,63.39l-13.23.02c-.92.32-.66,1.54.29,1.54,4.09-.31,8.81.42,12.83,0,1.14-.12,1.13-1.45.11-1.57Z"/>
    <path class="cls-1" d="M70.5,61.52h13.04c.68,0,1-.87.54-1.33-.15-.15-.53-.22-.75-.24-4.04-.37-8.63.29-12.73,0-1.05.04-1.2,1.44-.1,1.57Z"/>
    <path class="cls-1" d="M70.71,68.4h12.62c1.03-.04,1.42-1.26.32-1.57l-13.44.03c-.89.54-.42,1.48.5,1.54Z"/>
    <path class="cls-1" d="M76.97,73.62c-1.97-.25-4.45.19-6.47,0-.95.04-1.02,1.42-.1,1.56,2.06-.18,4.57.26,6.57.01.67-.08.92-.86.54-1.33-.09-.12-.38-.22-.54-.24Z"/>
    <path class="cls-1" d="M74.98,82.49c-.65-.98-1.6.25-2.01.79-.98,1.3-1.56,2.89-1.69,4.52h-1.36s0-5.06,0-5.06c0-.42-.77-.74-1.21-.48-.07.04-.36.43-.36.48v5.06h-1.36c-.12-1.63-.71-3.22-1.69-4.52-.39-.52-1.27-1.71-1.97-.86-.6.74.35,1.28.72,1.79.73,1.03,1.2,2.15,1.36,3.42-.07.31-.97-.07-1.2.68-.21.67.51,1.04,1.09,1.06.02.87-.38,1.82-.81,2.56-.36.62-2.19,2.28-.86,2.7.76.24,1.2-.48,1.61-1,.91-1.17,1.51-2.69,1.67-4.17l1.42-.1v4.75c0,.42.77.74,1.21.48.07-.04.36-.43.36-.48v-4.75l1.42.1c.16,1.49.75,2.98,1.67,4.17.19.25.73.93.98,1.01.62.2,1.27-.23,1.11-.89-.09-.35-1.04-1.3-1.33-1.81-.43-.75-.83-1.69-.81-2.56,1.43-.03,1.55-1.66.06-1.59l-.16-.15c.16-1.33.68-2.46,1.45-3.54.34-.47,1.16-.88.67-1.61Z"/>
    <path class="cls-1" d="M61.21,73.93l-11.45.02c-.82.19-.6,1.56.29,1.54h11.06c.99-.06,1.12-1.47.1-1.57Z"/>
    <path class="cls-1" d="M56.3,77.28c-1.16-.16-5.07-.15-6.22.02-1.09.16-1.06,1.4-.23,1.53,2.1-.17,4.62.25,6.67,0,.99-.12.96-1.4-.22-1.56Z"/>
    <path class="cls-1" d="M49.76,72.03c.29.08,2.63.07,3,.02.88-.14.9-1.35.09-1.54-.37-.08-2.61-.08-2.98,0-.81.18-.77,1.33-.1,1.52Z"/>
    <path class="cls-1" d="M58.92,72.05c.39.06,2.12.07,2.47-.02.76-.18.71-1.39-.19-1.54-.48-.08-2.42-.08-2.73.23-.43.43-.15,1.23.45,1.32Z"/>
  </g>
</svg>