<?xml version="1.0" encoding="UTF-8"?>
<svg id="Capa_1" data-name="Capa 1" xmlns="http://www.w3.org/2000/svg" viewBox="0 0 1151.03 144.73">
  <defs>
    <style>
      .cls-1 {
        fill: #edf0f4;
      }
    </style>
  </defs>
  <path class="cls-1" d="M1078.67,144.73H72.37C32.46,144.73,0,112.27,0,72.37S32.46,0,72.37,0h1006.3C1118.57,0,1151.03,32.46,1151.03,72.37s-32.46,72.37-72.37,72.37ZM72.37,3C34.12,3,3,34.12,3,72.37s31.12,69.37,69.37,69.37h1006.3c38.25,0,69.37-31.12,69.37-69.37s-31.12-69.37-69.37-69.37H72.37Z"/>
  <g>
    <path class="cls-1" d="M133.92,50.26h17.57c14.91,0,21.75,7.56,21.75,21.24s-8.21,21.96-21.75,21.96h-17.57v-43.2ZM142.13,57.1v29.59h8.71c10.15,0,14.19-5.47,14.19-15.19s-4.25-14.4-14.62-14.4h-8.28Z"/>
    <path class="cls-1" d="M179.42,53.86v-6.26h8.42v6.26h-8.42ZM179.71,93.46v-33.84h7.78v33.84h-7.78Z"/>
    <path class="cls-1" d="M193.67,83.45l6.98-1.44c1.08,4.1,3.46,6.7,8.93,6.7,4.1,0,6.26-1.44,6.26-4.32,0-2.66-1.87-3.96-8.57-5.18-9-1.8-12.17-4.82-12.17-10.44,0-6.12,4.46-10.01,13.47-10.01s12.46,3.82,13.83,9.79l-6.98,1.51c-.94-4.18-2.95-5.76-6.98-5.76s-5.98,1.51-5.98,4.03c0,2.38,1.44,4.03,7.85,5.18,10.01,1.87,13.03,5.26,13.03,10.58,0,6.26-4.18,10.3-13.9,10.3-10.94,0-14.54-4.46-15.77-10.94Z"/>
    <path class="cls-1" d="M227.37,76.97c0-11.45,6.48-18.22,17.07-18.22s15.19,6.19,15.19,15.48c0,1.3,0,2.81-.14,4.54h-24.41c.58,6.12,3.67,9.22,9.43,9.22,5.4,0,7.27-2.59,8.21-5.83l6.62,1.87c-1.58,6.12-5.83,10.3-14.91,10.3-10.37,0-17.07-6.05-17.07-17.35ZM235.15,73.59h17.35c-.29-5.83-2.88-8.86-8.28-8.86s-8.35,2.81-9.07,8.86Z"/>
    <path class="cls-1" d="M273.59,93.46h-7.7v-33.84h7.56v8.93h.65c1.87-6.26,6.19-9.79,11.88-9.79,7.06,0,10.44,4.75,10.44,12.1v22.61h-7.7v-20.59c0-4.1-1.8-7.13-6.48-7.13-5.18,0-8.64,3.46-8.64,8.57v19.15ZM285.76,49.68c2.16,0,2.66-2.09,2.59-6.34h3.6c.14,1.15.22,2.23.22,3.24,0,5.76-2.3,8.5-5.9,8.5-5.11,0-6.19-6.62-9.65-6.62-2.16,0-2.74,1.73-2.66,6.19h-3.6c-.14-1.22-.22-2.23-.22-3.24,0-5.69,2.38-8.42,5.9-8.42,5.62,0,6.62,6.7,9.72,6.7Z"/>
    <path class="cls-1" d="M302.18,76.47c0-11.16,6.7-17.71,17.21-17.71s17.07,6.55,17.07,17.71-6.34,17.93-17.07,17.93-17.21-6.84-17.21-17.93ZM309.95,76.4c0,6.98,2.88,11.3,9.36,11.3s9.43-4.32,9.43-11.3-3.17-11.09-9.43-11.09-9.36,4.1-9.36,11.09Z"/>
    <path class="cls-1" d="M349.99,83.52l-7.42,20.09h-5.69v-.43l5.18-19.66h7.92Z"/>
    <path class="cls-1" d="M369.71,93.46v-43.2h8.21v43.2h-8.21Z"/>
    <path class="cls-1" d="M394.05,93.46h-7.7v-33.84h7.56v8.93h.65c1.87-6.34,6.12-9.79,11.88-9.79,6.34,0,9.5,3.89,10.01,10.15h.79c1.66-6.48,5.62-10.15,11.88-10.15,7.13,0,10.58,4.75,10.58,12.1v22.61h-7.78v-20.59c0-4.1-1.87-7.13-6.41-7.13-5.33,0-8.64,3.46-8.64,8.57v19.15h-7.7v-20.59c0-4.1-1.94-7.13-6.48-7.13-5.18,0-8.64,3.46-8.64,8.57v19.15Z"/>
    <path class="cls-1" d="M468.14,85.4h-.79c-1.73,5.47-5.62,8.78-11.59,8.78s-10.3-2.88-10.3-9.5c0-6.05,3.67-10.44,12.24-10.44h10.08v-2.3c0-4.39-1.8-6.91-6.55-6.91-3.96,0-6.26,2.02-7.13,5.98l-7.34-1.66c1.3-6.41,6.12-10.51,14.76-10.51,9.79,0,13.97,4.61,13.97,13.03v21.6h-7.34v-8.06ZM467.78,80.72v-1.37h-8.78c-3.89,0-6.12,1.44-6.12,4.25,0,2.45,1.51,4.54,5.9,4.54,5.4,0,9-3.17,9-7.42Z"/>
    <path class="cls-1" d="M496.57,105.85c-12.82,0-16.56-2.74-16.56-7.06,0-2.95,3.17-5.11,7.78-6.12v-.29c-3.02-.58-4.61-2.16-4.61-4.54,0-1.8,1.44-3.38,3.82-4.54l2.59-1.44c-5.04-1.66-7.7-5.33-7.7-10.44,0-7.63,5.54-11.81,14.91-11.81h16.78v5.98h-3.89c-1.8,0-3.96-.14-6.84-.36l-.07.65c4.46.86,8.21,2.74,8.21,7.2,0,6.05-5.11,9.72-14.54,9.72-2.16,0-4.03-.22-5.69-.65l-.79,1.22c-.5.86-.86,1.44-.86,2.16,0,1.37,1.08,1.87,3.31,1.87,3.82,0,7.7-.07,11.38-.07,7.13,0,10.58,3.1,10.58,8.35,0,6.84-4.39,10.15-17.79,10.15ZM508.17,95.91c0-1.94-1.37-3.31-4.68-3.31h-11.88c-3.67,0-5.54,1.87-5.54,3.74,0,2.74,2.16,3.89,10.94,3.89s11.16-1.44,11.16-4.32ZM488.87,71.57c0,3.6,2.02,5.9,7.63,5.9s7.85-2.3,7.85-5.9-2.59-5.9-7.92-5.9-7.56,2.38-7.56,5.9Z"/>
    <path class="cls-1" d="M517.45,76.97c0-11.45,6.48-18.22,17.07-18.22s15.19,6.19,15.19,15.48c0,1.3,0,2.81-.14,4.54h-24.41c.58,6.12,3.67,9.22,9.43,9.22,5.4,0,7.27-2.59,8.21-5.83l6.62,1.87c-1.58,6.12-5.83,10.3-14.91,10.3-10.37,0-17.07-6.05-17.07-17.35ZM525.23,73.59h17.35c-.29-5.83-2.88-8.86-8.28-8.86s-8.35,2.81-9.07,8.86Z"/>
    <path class="cls-1" d="M563.68,93.46h-7.7v-33.84h7.56v8.93h.65c1.87-6.26,6.19-9.79,11.88-9.79,7.06,0,10.44,4.75,10.44,12.1v22.61h-7.7v-20.59c0-4.1-1.8-7.13-6.48-7.13-5.18,0-8.64,3.46-8.64,8.57v19.15Z"/>
    <path class="cls-1" d="M604.07,105.63l1.22-6.98c1.44.29,2.88.5,4.32.5,3.82,0,5.83-.94,8.06-6.05l-13.61-33.48h8.5l3.96,12.24c1.37,4.25,3.24,9.87,4.68,14.76h1.15c1.51-5.04,3.17-10.44,4.46-14.62l3.67-12.38h8.28l-13.97,34.27c-3.46,8.42-7.63,12.17-15.41,12.17-2.23,0-3.74-.22-5.33-.43Z"/>
    <path class="cls-1" d="M654.47,71.79c0-13.97,8.06-22.47,21.03-22.47,11.16,0,17.93,6.12,19.44,16.49l-7.85,1.51c-1.3-6.98-4.9-10.8-11.74-10.8-8.79,0-12.67,6.41-12.67,15.27,0,9.5,3.89,15.48,12.6,15.48,7.27,0,10.58-3.89,12.02-11.09l7.78,1.44c-1.44,10.44-8.35,16.78-19.8,16.78-13.25,0-20.81-8.64-20.81-22.61Z"/>
    <path class="cls-1" d="M699.32,76.47c0-11.16,6.7-17.71,17.21-17.71s17.07,6.55,17.07,17.71-6.34,17.93-17.07,17.93-17.21-6.84-17.21-17.93ZM707.1,76.4c0,6.98,2.88,11.3,9.36,11.3s9.43-4.32,9.43-11.3-3.17-11.09-9.43-11.09-9.36,4.1-9.36,11.09Z"/>
    <path class="cls-1" d="M747.42,93.46h-7.7v-33.84h7.56v8.93h.65c1.87-6.34,6.12-9.79,11.88-9.79,6.34,0,9.5,3.89,10.01,10.15h.79c1.66-6.48,5.62-10.15,11.88-10.15,7.13,0,10.58,4.75,10.58,12.1v22.61h-7.78v-20.59c0-4.1-1.87-7.13-6.41-7.13-5.33,0-8.64,3.46-8.64,8.57v19.15h-7.7v-20.59c0-4.1-1.94-7.13-6.48-7.13-5.18,0-8.64,3.46-8.64,8.57v19.15Z"/>
    <path class="cls-1" d="M823.6,84.53h-.72c-1.87,6.26-6.19,9.86-11.81,9.86-7.13,0-10.51-4.82-10.51-12.17v-22.61h7.78v20.59c0,4.1,1.8,7.13,6.41,7.13,5.26,0,8.64-3.46,8.64-8.57v-19.15h7.78v33.84h-7.56v-8.93Z"/>
    <path class="cls-1" d="M846.92,93.46h-7.7v-33.84h7.56v8.93h.65c1.87-6.26,6.19-9.79,11.88-9.79,7.06,0,10.44,4.75,10.44,12.1v22.61h-7.7v-20.59c0-4.1-1.8-7.13-6.48-7.13-5.18,0-8.64,3.46-8.64,8.57v19.15Z"/>
    <path class="cls-1" d="M877.59,53.86v-6.26h8.42v6.26h-8.42ZM877.88,93.46v-33.84h7.78v33.84h-7.78Z"/>
    <path class="cls-1" d="M909.2,65.6c-5.54,0-9,3.53-9,10.94,0,6.84,3.17,11.02,9.22,11.02,5.47,0,7.34-3.38,8.35-7.49l7.13,1.73c-1.37,7.85-6.12,12.6-15.41,12.6-10.66,0-17.21-6.19-17.21-17.57s6.7-18.07,17.07-18.07c9.72,0,14.11,4.61,15.48,12.67l-7.27,1.37c-1.01-4.32-3.02-7.2-8.35-7.2Z"/>
    <path class="cls-1" d="M951.82,85.4h-.79c-1.73,5.47-5.62,8.78-11.59,8.78s-10.3-2.88-10.3-9.5c0-6.05,3.67-10.44,12.24-10.44h10.08v-2.3c0-4.39-1.8-6.91-6.55-6.91-3.96,0-6.26,2.02-7.13,5.98l-7.34-1.66c1.3-6.41,6.12-10.51,14.76-10.51,9.79,0,13.97,4.61,13.97,13.03v21.6h-7.34v-8.06ZM951.46,80.72v-1.37h-8.78c-3.89,0-6.12,1.44-6.12,4.25,0,2.45,1.51,4.54,5.9,4.54,5.4,0,9-3.17,9-7.42Z"/>
    <path class="cls-1" d="M981.99,65.6c-5.54,0-9,3.53-9,10.94,0,6.84,3.17,11.02,9.22,11.02,5.47,0,7.34-3.38,8.35-7.49l7.13,1.73c-1.37,7.85-6.12,12.6-15.41,12.6-10.66,0-17.21-6.19-17.21-17.57s6.7-18.07,17.07-18.07c9.72,0,14.11,4.61,15.48,12.67l-7.27,1.37c-1.01-4.32-3.02-7.2-8.35-7.2Z"/>
    <path class="cls-1" d="M1004.09,53.86v-6.26h8.42v6.26h-8.42ZM1004.38,93.46v-33.84h7.78v33.84h-7.78Z"/>
    <path class="cls-1" d="M1018.78,76.47c0-11.16,6.7-17.71,17.21-17.71s17.07,6.55,17.07,17.71-6.34,17.93-17.07,17.93-17.21-6.84-17.21-17.93ZM1026.55,76.4c0,6.98,2.88,11.3,9.36,11.3s9.43-4.32,9.43-11.3-3.17-11.09-9.43-11.09-9.36,4.1-9.36,11.09ZM1028.72,52.35l16.85-9.72,2.88,5.54-17.79,7.99-1.94-3.82Z"/>
    <path class="cls-1" d="M1066.87,93.46h-7.7v-33.84h7.56v8.93h.65c1.87-6.26,6.19-9.79,11.88-9.79,7.06,0,10.44,4.75,10.44,12.1v22.61h-7.7v-20.59c0-4.1-1.8-7.13-6.48-7.13-5.18,0-8.64,3.46-8.64,8.57v19.15Z"/>
  </g>
  <path class="cls-1" d="M65.28,115.89c-24,0-43.52-19.52-43.52-43.52s19.52-43.52,43.52-43.52,43.52,19.52,43.52,43.52-19.52,43.52-43.52,43.52ZM65.28,30.85c-22.89,0-41.52,18.63-41.52,41.52s18.63,41.52,41.52,41.52,41.52-18.63,41.52-41.52-18.63-41.52-41.52-41.52Z"/>
  <g>
    <path class="cls-1" d="M73.03,85.73c3.34-.2,4.62,2.16,4.2,5.23-.18,1.33-1.58,2.78-2.97,2.81-.2,1.02.55,3.75-.78,4.05l-16.5-.03c-1.18-.37-.49-3.03-.68-4.01-2.63-.31-3.28-2.77-2.97-5.09.27-2.05,2.3-3.07,4.2-3l-4.65-9.49-.08-.82c3.35-5.49,6.21-11.33,9.61-16.78.22-.35.47-.95.83-1.07.87-.29,1.3.29,1.37,1.09.44,4.79-.35,10.25,0,15.11-.11.98-1.2,1.03-1.44,2.23-.67,3.36,4.79,3.41,4.26.11-.21-1.29-1.35-1.36-1.47-2.34v-15.24c.06-.95,1.11-1.43,1.75-.66l10.02,17.45v.83s-4.7,9.65-4.7,9.65ZM62.69,73.35v-11.29l-7.79,13.37-.05.5,4.73,9.77,11.42-.06,4.73-10.02-7.87-13.56v11.29s.21,0,.33.14c3.48,4.17-1.68,9.05-5.48,6.03-1.95-1.54-1.91-4.12-.4-5.96.16-.2.38-.2.39-.22ZM56.4,87.67c-1.3.26-1.35,1.97-1.18,3.02.11.67.9,1.26,1.57,1.28,5.38-.37,11.56.55,16.85.01.73-.07,1.57-.51,1.69-1.3.18-1.12.11-2.83-1.29-3.04l-17.64.02ZM72.35,93.89h-14.15v2.04h14.15v-2.04Z"/>
    <path class="cls-1" d="M62.01,49.28l.07-1.9c.06-.13.33-.3.47-.35.45-.14,4.99-.14,5.45,0,.89.27.44,1.54.54,2.25h15.57c.94-2.4,4.16-3.22,5.85-1.09,3.26,4.1-4.1,8.2-5.78,3h-7.62c1.1.81,2.34,1.4,3.44,2.2,5.02,3.65,8.3,9.66,8.53,15.89.73-.01,1.94-.15,2.15.78.12.53.12,4.17,0,4.7-.15.7-.81.74-1.39.78-.78.06-3.74.1-4.28-.22-.15-.09-.34-.25-.39-.43v-4.98c.43-.8,1.24-.65,2.01-.64-.35-9.57-8.51-17.71-18.09-17.96-.1.98.45,2.16-.88,2.32-.73.08-4.55.1-5.11-.06-.89-.27-.44-1.54-.54-2.25-9.57.24-17.75,8.38-18.09,17.96.64-.05,1.89-.05,2.04.75.08.44.05,4.7-.07,4.96-.06.14-.29.31-.44.38-.53.26-3.73.25-4.46.17s-1.07-.29-1.16-1.02-.11-3.81.03-4.46c.21-.92,1.42-.79,2.15-.78.21-6.24,3.51-12.25,8.53-15.89,1.11-.8,2.34-1.39,3.44-2.2h-7.62c-.81,3.31-5.79,3.18-6.47-.13-.86-4.16,5.01-5.74,6.54-1.78h15.57ZM44.6,50.29c0-.79-.64-1.43-1.43-1.43s-1.43.64-1.43,1.43.64,1.43,1.43,1.43,1.43-.64,1.43-1.43ZM66.64,48.87h-2.72v2.86h2.72v-2.86ZM88.81,50.3c0-.79-.64-1.43-1.43-1.43s-1.43.64-1.43,1.43.64,1.43,1.43,1.43,1.43-.64,1.43-1.43ZM41.75,71.18v2.45h2.31v-2.45h-2.31ZM86.5,71.18v2.45h2.31v-2.45h-2.31Z"/>
  </g>
</svg>