<?xml version="1.0" encoding="UTF-8"?>
<svg id="Capa_1" data-name="Capa 1" xmlns="http://www.w3.org/2000/svg" viewBox="0 0 1111.35 144.73">
  <defs>
    <style>
      .cls-1 {
        fill: #edf0f4;
      }
    </style>
  </defs>
  <path class="cls-1" d="M1038.98,144.73H72.37C32.46,144.73,0,112.27,0,72.37S32.46,0,72.37,0h966.61c39.9,0,72.37,32.46,72.37,72.37s-32.46,72.37-72.37,72.37ZM72.37,3C34.12,3,3,34.12,3,72.37s31.12,69.37,69.37,69.37h966.61c38.25,0,69.37-31.12,69.37-69.37s-31.12-69.37-69.37-69.37H72.37Z"/>
  <g>
    <path class="cls-1" d="M131.68,71.72c0-13.61,8.06-22.39,21.6-22.39s21.6,8.78,21.6,22.39-7.78,22.68-21.6,22.68-21.6-9-21.6-22.68ZM166.68,71.72c0-9.07-4.18-15.19-13.39-15.19s-13.46,6.12-13.46,15.19,4.1,15.55,13.39,15.55,13.46-6.12,13.46-15.55Z"/>
    <path class="cls-1" d="M191.52,59.62h9.29v6.26h-9.29v27.58h-7.78v-27.58h-5.62v-6.26h5.62v-1.87c0-6.84,3.74-11.52,11.59-11.52,2.66,0,4.39.29,5.76.58l-.29,5.54c-1.51-.22-2.74-.36-4.1-.36-3.53,0-5.18,1.94-5.18,5.9v1.73Z"/>
    <path class="cls-1" d="M205.84,53.86v-6.26h8.42v6.26h-8.42ZM206.13,93.46v-33.84h7.78v33.84h-7.78Z"/>
    <path class="cls-1" d="M237.45,65.6c-5.54,0-9,3.53-9,10.94,0,6.84,3.17,11.02,9.22,11.02,5.47,0,7.34-3.38,8.35-7.49l7.13,1.73c-1.37,7.85-6.12,12.6-15.41,12.6-10.66,0-17.21-6.19-17.21-17.57s6.7-18.07,17.07-18.07c9.72,0,14.11,4.61,15.48,12.67l-7.27,1.37c-1.01-4.32-3.02-7.2-8.35-7.2Z"/>
    <path class="cls-1" d="M259.55,53.86v-6.26h8.42v6.26h-8.42ZM259.84,93.46v-33.84h7.78v33.84h-7.78Z"/>
    <path class="cls-1" d="M274.24,76.47c0-11.16,6.7-17.71,17.21-17.71s17.07,6.55,17.07,17.71-6.34,17.93-17.07,17.93-17.21-6.84-17.21-17.93ZM282.02,76.4c0,6.98,2.88,11.3,9.36,11.3s9.43-4.32,9.43-11.3-3.17-11.09-9.43-11.09-9.36,4.1-9.36,11.09Z"/>
    <path class="cls-1" d="M312.26,83.45l6.98-1.44c1.08,4.1,3.46,6.7,8.93,6.7,4.1,0,6.26-1.44,6.26-4.32,0-2.66-1.87-3.96-8.57-5.18-9-1.8-12.17-4.82-12.17-10.44,0-6.12,4.46-10.01,13.47-10.01s12.46,3.82,13.83,9.79l-6.98,1.51c-.94-4.18-2.95-5.76-6.98-5.76s-5.98,1.51-5.98,4.03c0,2.38,1.44,4.03,7.85,5.18,10.01,1.87,13.03,5.26,13.03,10.58,0,6.26-4.18,10.3-13.9,10.3-10.94,0-14.54-4.46-15.77-10.94Z"/>
    <path class="cls-1" d="M357.76,105.63l1.22-6.98c1.44.29,2.88.5,4.32.5,3.82,0,5.83-.94,8.06-6.05l-13.61-33.48h8.5l3.96,12.24c1.37,4.25,3.24,9.87,4.68,14.76h1.15c1.51-5.04,3.17-10.44,4.46-14.62l3.67-12.38h8.28l-13.97,34.27c-3.46,8.43-7.63,12.17-15.41,12.17-2.23,0-3.74-.22-5.33-.43Z"/>
    <path class="cls-1" d="M408.16,71.79c0-13.97,8.06-22.47,21.03-22.47,11.16,0,17.93,6.12,19.44,16.49l-7.85,1.51c-1.3-6.98-4.9-10.8-11.74-10.8-8.79,0-12.67,6.41-12.67,15.27,0,9.5,3.89,15.48,12.6,15.48,7.27,0,10.58-3.89,12.02-11.09l7.78,1.44c-1.44,10.44-8.35,16.78-19.8,16.78-13.25,0-20.81-8.64-20.81-22.61Z"/>
    <path class="cls-1" d="M475.62,85.4h-.79c-1.73,5.47-5.62,8.78-11.59,8.78s-10.3-2.88-10.3-9.5c0-6.05,3.67-10.44,12.24-10.44h10.08v-2.3c0-4.39-1.8-6.91-6.55-6.91-3.96,0-6.26,2.02-7.13,5.98l-7.34-1.66c1.3-6.41,6.12-10.51,14.76-10.51,9.79,0,13.97,4.61,13.97,13.03v21.6h-7.34v-8.06ZM475.26,80.72v-1.37h-8.78c-3.89,0-6.12,1.44-6.12,4.25,0,2.45,1.51,4.54,5.9,4.54,5.4,0,9-3.17,9-7.42Z"/>
    <path class="cls-1" d="M510.83,94.4c-6.19,0-10.15-4.03-11.81-9.94h-.5v19.95h-7.7v-44.79h7.7v8.78h.5c1.8-5.83,5.54-9.65,11.67-9.65,7.99,0,12.46,6.34,12.46,17.86s-4.68,17.79-12.31,17.79ZM515.51,76.61c0-7.34-2.59-10.87-8.28-10.87-5.33,0-8.71,3.74-8.71,9.65v2.59c0,5.69,3.46,9.58,8.64,9.58,5.69,0,8.35-3.67,8.35-10.95Z"/>
    <path class="cls-1" d="M549.93,85.4h-.79c-1.73,5.47-5.62,8.78-11.59,8.78s-10.3-2.88-10.3-9.5c0-6.05,3.67-10.44,12.24-10.44h10.08v-2.3c0-4.39-1.8-6.91-6.55-6.91-3.96,0-6.26,2.02-7.13,5.98l-7.34-1.66c1.3-6.41,6.12-10.51,14.76-10.51,9.79,0,13.97,4.61,13.97,13.03v21.6h-7.34v-8.06ZM549.57,80.72v-1.37h-8.78c-3.89,0-6.12,1.44-6.12,4.25,0,2.45,1.51,4.54,5.9,4.54,5.4,0,9-3.17,9-7.42Z"/>
    <path class="cls-1" d="M580.09,65.6c-5.54,0-9,3.53-9,10.94,0,6.84,3.17,11.02,9.22,11.02,5.47,0,7.34-3.38,8.35-7.49l7.13,1.73c-1.37,7.85-6.12,12.6-15.41,12.6-10.66,0-17.21-6.19-17.21-17.57s6.7-18.07,17.07-18.07c9.72,0,14.11,4.61,15.48,12.67l-7.27,1.37c-1.01-4.32-3.02-7.2-8.35-7.2Z"/>
    <path class="cls-1" d="M602.19,53.86v-6.26h8.42v6.26h-8.42ZM602.48,93.46v-33.84h7.78v33.84h-7.78Z"/>
    <path class="cls-1" d="M620.77,65.88h-4.75v-6.26h4.75v-9.15h7.78v9.15h9.94v6.26h-9.94v16.2c0,3.31,1.22,5.04,4.61,5.04,1.73,0,3.24-.36,4.9-.86l.94,6.91c-2.52.79-4.25,1.22-7.63,1.22-7.42,0-10.58-4.9-10.58-11.23v-17.28Z"/>
    <path class="cls-1" d="M665.12,85.4h-.79c-1.73,5.47-5.62,8.78-11.59,8.78s-10.3-2.88-10.3-9.5c0-6.05,3.67-10.44,12.24-10.44h10.08v-2.3c0-4.39-1.8-6.91-6.55-6.91-3.96,0-6.26,2.02-7.13,5.98l-7.34-1.66c1.3-6.41,6.12-10.51,14.76-10.51,9.79,0,13.97,4.61,13.97,13.03v21.6h-7.34v-8.06ZM664.76,80.72v-1.37h-8.78c-3.89,0-6.12,1.44-6.12,4.25,0,2.45,1.51,4.54,5.9,4.54,5.4,0,9-3.17,9-7.42Z"/>
    <path class="cls-1" d="M695.29,65.6c-5.54,0-9,3.53-9,10.94,0,6.84,3.17,11.02,9.22,11.02,5.47,0,7.34-3.38,8.35-7.49l7.13,1.73c-1.37,7.85-6.12,12.6-15.41,12.6-10.66,0-17.21-6.19-17.21-17.57s6.7-18.07,17.07-18.07c9.72,0,14.11,4.61,15.48,12.67l-7.27,1.37c-1.01-4.32-3.02-7.2-8.35-7.2Z"/>
    <path class="cls-1" d="M717.39,53.86v-6.26h8.42v6.26h-8.42ZM717.68,93.46v-33.84h7.78v33.84h-7.78Z"/>
    <path class="cls-1" d="M732.08,76.47c0-11.16,6.7-17.71,17.21-17.71s17.07,6.55,17.07,17.71-6.34,17.93-17.07,17.93-17.21-6.84-17.21-17.93ZM739.85,76.4c0,6.98,2.88,11.3,9.36,11.3s9.43-4.32,9.43-11.3-3.17-11.09-9.43-11.09-9.36,4.1-9.36,11.09ZM742.01,52.35l16.85-9.72,2.88,5.54-17.79,7.99-1.94-3.82Z"/>
    <path class="cls-1" d="M780.17,93.46h-7.7v-33.84h7.56v8.93h.65c1.87-6.26,6.19-9.79,11.88-9.79,7.06,0,10.44,4.75,10.44,12.1v22.61h-7.7v-20.59c0-4.1-1.8-7.13-6.48-7.13-5.18,0-8.64,3.46-8.64,8.57v19.15Z"/>
    <path class="cls-1" d="M821.28,50.26h34.85v7.56h-13.32v35.64h-8.21v-35.64h-13.32v-7.56Z"/>
    <path class="cls-1" d="M856.35,76.97c0-11.45,6.48-18.22,17.07-18.22s15.19,6.19,15.19,15.48c0,1.3,0,2.81-.14,4.54h-24.41c.58,6.12,3.67,9.22,9.43,9.22,5.4,0,7.27-2.59,8.21-5.83l6.62,1.87c-1.58,6.12-5.83,10.3-14.91,10.3-10.37,0-17.07-6.05-17.07-17.35ZM864.12,73.59h17.35c-.29-5.83-2.88-8.86-8.28-8.86s-8.35,2.81-9.07,8.86ZM865.85,52.35l16.85-9.72,2.88,5.54-17.79,7.99-1.94-3.82Z"/>
    <path class="cls-1" d="M909.85,65.6c-5.54,0-9,3.53-9,10.94,0,6.84,3.17,11.02,9.22,11.02,5.47,0,7.34-3.38,8.35-7.49l7.13,1.73c-1.37,7.85-6.12,12.6-15.41,12.6-10.66,0-17.21-6.19-17.21-17.57s6.7-18.07,17.07-18.07c9.72,0,14.11,4.61,15.48,12.67l-7.27,1.37c-1.01-4.32-3.02-7.2-8.35-7.2Z"/>
    <path class="cls-1" d="M939.51,93.46h-7.7v-33.84h7.56v8.93h.65c1.87-6.26,6.19-9.79,11.88-9.79,7.06,0,10.44,4.75,10.44,12.1v22.61h-7.7v-20.59c0-4.1-1.8-7.13-6.48-7.13-5.18,0-8.64,3.46-8.64,8.57v19.15Z"/>
    <path class="cls-1" d="M970.18,53.86v-6.26h8.42v6.26h-8.42ZM970.47,93.46v-33.84h7.78v33.84h-7.78Z"/>
    <path class="cls-1" d="M1001.79,65.6c-5.54,0-9,3.53-9,10.94,0,6.84,3.17,11.02,9.22,11.02,5.47,0,7.34-3.38,8.35-7.49l7.13,1.73c-1.37,7.85-6.12,12.6-15.41,12.6-10.66,0-17.21-6.19-17.21-17.57s6.7-18.07,17.07-18.07c9.72,0,14.11,4.61,15.48,12.67l-7.27,1.37c-1.01-4.32-3.02-7.2-8.35-7.2Z"/>
    <path class="cls-1" d="M1044.41,85.4h-.79c-1.73,5.47-5.62,8.78-11.59,8.78s-10.3-2.88-10.3-9.5c0-6.05,3.67-10.44,12.24-10.44h10.08v-2.3c0-4.39-1.8-6.91-6.55-6.91-3.96,0-6.26,2.02-7.13,5.98l-7.34-1.66c1.3-6.41,6.12-10.51,14.76-10.51,9.79,0,13.97,4.61,13.97,13.03v21.6h-7.34v-8.06ZM1044.05,80.72v-1.37h-8.78c-3.89,0-6.12,1.44-6.12,4.25,0,2.45,1.51,4.54,5.9,4.54,5.4,0,9-3.17,9-7.42Z"/>
  </g>
  <path class="cls-1" d="M65.28,115.89c-24,0-43.52-19.52-43.52-43.52s19.52-43.52,43.52-43.52,43.52,19.52,43.52,43.52-19.52,43.52-43.52,43.52ZM65.28,30.85c-22.89,0-41.52,18.63-41.52,41.52s18.63,41.52,41.52,41.52,41.52-18.63,41.52-41.52-18.63-41.52-41.52-41.52Z"/>
  <g>
    <path class="cls-1" d="M87.78,66.33l-1.01,2.58c.3.81,1.68,1.97,1.41,2.86-.16.53-2.75,2.56-3.18,3.24-.83.93-2.58-1.33-3.11-1.23l-2.75,1.07c-.1.11.04,2.58,0,3.04-.06.54-.41.77-.94.83-.69.08-3.81.11-4.41-.03-1.23-.27-.57-2.81-.76-3.73l-3.14-1.19c-.66.31-2,1.64-2.69,1.44-.74-.21-2.72-2.81-3.51-3.36-.5-.86,1.45-2.46,1.37-3.02l-1-2.5c-.64-.27-2.74-.26-3.02-.91l-.05-4.81c.18-.93,2.35-.75,3.04-1.17l1.03-2.59c-.51-1.29-2.13-1.94-.98-3.34.43-.53,2.16-2.31,2.67-2.65,1.32-.88,2.1,1.02,3.34,1.14l2.46-1.09c.41-1.02-.03-2.86,1.44-2.99.75-.07,3.55-.11,4.19.03,1,.22.84,2.1,1.1,2.89l2.68,1.19c1.23-.41,1.94-2.09,3.28-1.05.31.24,2.82,2.77,2.9,2.96.45,1.1-1.06,1.99-1.33,3l1.08,2.56c.65.29,2.65.27,2.93.94-.04,1.44.25,3.32.06,4.71-.14,1.03-2.31.83-3.09,1.18ZM73.03,73.06v-3.32c-5.31-2.17-6.44-9.16-1.99-12.9.6-.51,3.47-2.42,3.76-.88.15,1.86-.2,4.03.02,5.85s2.24,1.76,2.51.43c.34-1.66-.24-4.22.03-5.95.22-1.38,1.66-.61,2.39-.19,5.41,3.12,4.86,10.91-.63,13.58v3.38c.79-.1,2.17-1.23,2.82-1.23.82,0,1.62,1.1,2.42,1.32l1.79-1.75c.13-.28-1.49-1.9-1.37-2.58.06-.34.6-1.04.78-1.45.2-.46.73-2.31.9-2.48.37-.37,2.06-.5,2.63-.59v-2.7c-.01-.12-1.97-.37-2.28-.5-.67-.28-.82-1.66-1.1-2.33-.18-.45-.92-1.59-.92-1.94,0-.63,1.15-1.71,1.4-2.33,0-.12-1.64-1.72-1.75-1.77-.53-.24-1.68,1.45-2.68,1.25-.32-.06-.86-.5-1.23-.66-.55-.24-2.38-.77-2.63-1.03-.48-.49-.37-1.94-.67-2.6l-2.66.05c-.23.63-.2,2.09-.64,2.55-.28.28-2.06.77-2.63,1.02-.59.26-1.1.87-1.81.64-.4-.13-1.61-1.28-1.93-1.28l-1.91,1.83c-.02.22,1.4,1.72,1.4,2.33,0,.4-.72,1.45-.92,1.94-.28.68-.43,2.05-1.1,2.33-.3.13-2.26.38-2.28.5v2.7c.56.06,2.29.22,2.63.59.22.24.68,1.97.9,2.48.18.41.72,1.1.78,1.45.12.68-1.5,2.29-1.37,2.58l1.79,1.75c.34.07,1.69-1.32,2.42-1.32.5,0,1.84.92,2.54,1.12.2.06.39.14.61.11ZM73.03,57.67c-.95.41-1.79,1.31-2.27,2.21-1.44,2.71-.64,6.13,1.99,7.76.37.23,2.05.87,2.05,1.16v7.97l.17.17h2.38v-8.14c0-.4,1.42-.97,1.79-1.2,3-1.94,3.52-6.16,1.15-8.82-.3-.34-.72-.77-1.16-.88v4.6c0,.81-1.19,2.01-1.93,2.28-1.84.66-4.16-.65-4.16-2.72v-4.37Z"/>
    <g>
      <path class="cls-1" d="M36.93,77.05c.33-.7.81-1.21,1.62-1.32,3.1-.42,7.09.3,10.29,0,.62.02,1.4.63,1.55,1.22.08.32.02.56.05.84.02.16-.06.19.17.16,2.46-.93,4.78-2.29,7.32-2.98.91-.1,1.63.08,2.48.38,4.72,1.64,9.44,4.37,14.18,6.08.72.41,1.09,1.36,1.1,2.17l14.45-4.65c3.2-.26,4.78,3.8,2.2,5.74l-23.25,11.85c-1.26.52-2.61.44-3.85-.11l-8.44-5.19-6.25,1.6c-.23.17-.06,1.41-.11,1.78-.09.73-.79,1.39-1.51,1.48-3.29-.23-7.05.34-10.29,0-.9-.09-1.33-.55-1.72-1.33v-17.72ZM50.44,91l5.84-1.52c1.01-.21,1.79.41,2.61.88,2.19,1.26,4.91,3.45,7.09,4.43.6.27,1.1.38,1.76.28,1.14-.16,5.19-2.46,6.51-3.12,5.69-2.86,11.3-5.88,17.02-8.67,1.22-.87.39-2.85-1.08-2.52l-14.53,4.74c-.79,1.11-1.42,2.06-2.85,2.46-1.15.33-1.49.16-2.54-.23-2.18-.81-4.32-1.97-6.5-2.8-.92-.53-.43-1.92.64-1.64,2.27.74,4.59,2.2,6.83,2.92,1.88.6,3.44-1.63,2.46-3.24l-14.79-6.25-1.05.04-7.41,3.16v11.07ZM48.67,77.49h-9.97v16.83h9.97v-16.83Z"/>
      <circle class="cls-1" cx="45.26" cy="80.11" r=".92"/>
    </g>
  </g>
</svg>