<?xml version="1.0" encoding="UTF-8"?>
<svg id="Capa_1" data-name="Capa 1" xmlns="http://www.w3.org/2000/svg" viewBox="0 0 1202.06 144.73">
  <defs>
    <style>
      .cls-1 {
        fill: #edf0f4;
      }
    </style>
  </defs>
  <path class="cls-1" d="M1129.69,144.73H72.37C32.46,144.73,0,112.27,0,72.37S32.46,0,72.37,0h1057.32c39.9,0,72.37,32.46,72.37,72.37s-32.46,72.37-72.37,72.37ZM72.37,3C34.12,3,3,34.12,3,72.37s31.12,69.37,69.37,69.37h1057.32c38.25,0,69.37-31.12,69.37-69.37s-31.12-69.37-69.37-69.37H72.37Z"/>
  <g>
    <path class="cls-1" d="M142.13,77.84v15.63h-8.21v-43.2h29.81v7.56h-21.6v12.89h19.51v7.13h-19.51Z"/>
    <path class="cls-1" d="M167.97,76.47c0-11.16,6.7-17.71,17.21-17.71s17.07,6.55,17.07,17.71-6.34,17.93-17.07,17.93-17.21-6.84-17.21-17.93ZM175.75,76.4c0,6.98,2.88,11.3,9.36,11.3s9.43-4.32,9.43-11.3-3.17-11.09-9.43-11.09-9.36,4.1-9.36,11.09Z"/>
    <path class="cls-1" d="M208.36,93.46v-33.84h7.34v10.15l.65.07c1.94-8.21,5.11-10.58,10.01-10.58h1.22v8.71h-1.87c-7.13,0-9.65,2.52-9.65,9.43v16.06h-7.7Z"/>
    <path class="cls-1" d="M240.55,93.46h-7.7v-33.84h7.56v8.93h.65c1.87-6.34,6.12-9.79,11.88-9.79,6.34,0,9.5,3.89,10.01,10.15h.79c1.66-6.48,5.62-10.15,11.88-10.15,7.13,0,10.58,4.75,10.58,12.1v22.61h-7.78v-20.59c0-4.1-1.87-7.13-6.41-7.13-5.33,0-8.64,3.46-8.64,8.57v19.15h-7.7v-20.59c0-4.1-1.94-7.13-6.48-7.13-5.18,0-8.64,3.46-8.64,8.57v19.15Z"/>
    <path class="cls-1" d="M314.64,85.4h-.79c-1.73,5.47-5.62,8.78-11.59,8.78s-10.3-2.88-10.3-9.5c0-6.05,3.67-10.44,12.24-10.44h10.08v-2.3c0-4.39-1.8-6.91-6.55-6.91-3.96,0-6.26,2.02-7.13,5.98l-7.34-1.66c1.3-6.41,6.12-10.51,14.76-10.51,9.79,0,13.97,4.61,13.97,13.03v21.6h-7.34v-8.06ZM314.28,80.72v-1.37h-8.78c-3.89,0-6.12,1.44-6.12,4.25,0,2.45,1.51,4.54,5.9,4.54,5.4,0,9-3.17,9-7.42Z"/>
    <path class="cls-1" d="M344.8,65.6c-5.54,0-9,3.53-9,10.94,0,6.84,3.17,11.02,9.22,11.02,5.47,0,7.34-3.38,8.35-7.49l7.13,1.73c-1.37,7.85-6.12,12.6-15.41,12.6-10.66,0-17.21-6.19-17.21-17.57s6.7-18.07,17.07-18.07c9.72,0,14.11,4.61,15.48,12.67l-7.27,1.37c-1.01-4.32-3.02-7.2-8.35-7.2Z"/>
    <path class="cls-1" d="M366.91,53.86v-6.26h8.42v6.26h-8.42ZM367.19,93.46v-33.84h7.78v33.84h-7.78Z"/>
    <path class="cls-1" d="M381.59,76.47c0-11.16,6.7-17.71,17.21-17.71s17.07,6.55,17.07,17.71-6.34,17.93-17.07,17.93-17.21-6.84-17.21-17.93ZM389.37,76.4c0,6.98,2.88,11.3,9.36,11.3s9.43-4.32,9.43-11.3-3.17-11.09-9.43-11.09-9.36,4.1-9.36,11.09ZM391.53,52.35l16.85-9.72,2.88,5.54-17.79,7.99-1.94-3.82Z"/>
    <path class="cls-1" d="M429.69,93.46h-7.7v-33.84h7.56v8.93h.65c1.87-6.26,6.19-9.79,11.88-9.79,7.06,0,10.44,4.75,10.44,12.1v22.61h-7.7v-20.59c0-4.1-1.8-7.13-6.48-7.13-5.18,0-8.64,3.46-8.64,8.57v19.15Z"/>
    <path class="cls-1" d="M470.08,105.63l1.22-6.98c1.44.29,2.88.5,4.32.5,3.82,0,5.83-.94,8.06-6.05l-13.61-33.48h8.5l3.96,12.24c1.37,4.25,3.24,9.87,4.68,14.76h1.15c1.51-5.04,3.17-10.44,4.46-14.62l3.67-12.38h8.28l-13.97,34.27c-3.46,8.42-7.63,12.17-15.41,12.17-2.23,0-3.74-.22-5.33-.43Z"/>
    <path class="cls-1" d="M522.71,50.26h17.57c14.91,0,21.75,7.56,21.75,21.24s-8.21,21.96-21.75,21.96h-17.57v-43.2ZM530.92,57.1v29.59h8.71c10.15,0,14.19-5.47,14.19-15.19s-4.25-14.4-14.62-14.4h-8.28Z"/>
    <path class="cls-1" d="M566.13,76.97c0-11.45,6.48-18.22,17.07-18.22s15.19,6.19,15.19,15.48c0,1.3,0,2.81-.14,4.54h-24.41c.58,6.12,3.67,9.22,9.43,9.22,5.4,0,7.27-2.59,8.21-5.83l6.62,1.87c-1.58,6.12-5.83,10.3-14.91,10.3-10.37,0-17.07-6.05-17.07-17.35ZM573.9,73.59h17.35c-.29-5.83-2.88-8.86-8.28-8.86s-8.35,2.81-9.07,8.86Z"/>
    <path class="cls-1" d="M602.27,83.45l6.98-1.44c1.08,4.1,3.46,6.7,8.93,6.7,4.1,0,6.26-1.44,6.26-4.32,0-2.66-1.87-3.96-8.57-5.18-9-1.8-12.17-4.82-12.17-10.44,0-6.12,4.46-10.01,13.47-10.01s12.46,3.82,13.83,9.79l-6.98,1.51c-.94-4.18-2.95-5.76-6.98-5.76s-5.98,1.51-5.98,4.03c0,2.38,1.44,4.03,7.85,5.18,10.01,1.87,13.03,5.26,13.03,10.58,0,6.26-4.18,10.3-13.9,10.3-10.94,0-14.54-4.46-15.77-10.94Z"/>
    <path class="cls-1" d="M658.57,85.4h-.79c-1.73,5.47-5.62,8.78-11.59,8.78s-10.3-2.88-10.3-9.5c0-6.05,3.67-10.44,12.24-10.44h10.08v-2.3c0-4.39-1.8-6.91-6.55-6.91-3.96,0-6.26,2.02-7.13,5.98l-7.34-1.66c1.3-6.41,6.12-10.51,14.76-10.51,9.79,0,13.97,4.61,13.97,13.03v21.6h-7.34v-8.06ZM658.21,80.72v-1.37h-8.78c-3.89,0-6.12,1.44-6.12,4.25,0,2.45,1.51,4.54,5.9,4.54,5.4,0,9-3.17,9-7.42Z"/>
    <path class="cls-1" d="M673.76,93.46v-33.84h7.34v10.15l.65.07c1.94-8.21,5.11-10.58,10.01-10.58h1.22v8.71h-1.87c-7.13,0-9.65,2.52-9.65,9.43v16.06h-7.7Z"/>
    <path class="cls-1" d="M698.24,93.46v-33.84h7.34v10.15l.65.07c1.94-8.21,5.11-10.58,10.01-10.58h1.22v8.71h-1.87c-7.13,0-9.65,2.52-9.65,9.43v16.06h-7.7Z"/>
    <path class="cls-1" d="M720.78,76.47c0-11.16,6.7-17.71,17.21-17.71s17.07,6.55,17.07,17.71-6.34,17.93-17.07,17.93-17.21-6.84-17.21-17.93ZM728.56,76.4c0,6.98,2.88,11.3,9.36,11.3s9.43-4.32,9.43-11.3-3.17-11.09-9.43-11.09-9.36,4.1-9.36,11.09Z"/>
    <path class="cls-1" d="M769.16,93.46h-7.78v-46.23h7.78v46.23Z"/>
    <path class="cls-1" d="M785.44,93.46h-7.78v-46.23h7.78v46.23Z"/>
    <path class="cls-1" d="M791.77,76.47c0-11.16,6.7-17.71,17.21-17.71s17.07,6.55,17.07,17.71-6.34,17.93-17.07,17.93-17.21-6.84-17.21-17.93ZM799.55,76.4c0,6.98,2.88,11.3,9.36,11.3s9.43-4.32,9.43-11.3-3.17-11.09-9.43-11.09-9.36,4.1-9.36,11.09Z"/>
    <path class="cls-1" d="M846.06,50.26h31.18v7.13h-22.97v10.66h20.81v7.06h-20.81v11.23h22.9v7.13h-31.11v-43.2Z"/>
    <path class="cls-1" d="M906.54,84.53h-.5c-1.73,5.83-5.76,9.86-11.81,9.86-7.78,0-12.31-6.26-12.31-17.71s4.61-18,12.53-17.93c6.12-.07,9.86,3.82,11.59,9.72h.5v-21.24h7.7v46.23h-7.7v-8.93ZM906.54,78.05v-2.59c0-5.83-3.38-9.72-8.64-9.72-5.62,0-8.35,3.53-8.35,10.94s2.59,10.8,8.35,10.8c5.18,0,8.64-3.67,8.64-9.43Z"/>
    <path class="cls-1" d="M945.06,84.53h-.72c-1.87,6.26-6.19,9.86-11.81,9.86-7.13,0-10.51-4.82-10.51-12.17v-22.61h7.78v20.59c0,4.1,1.8,7.13,6.41,7.13,5.26,0,8.64-3.46,8.64-8.57v-19.15h7.78v33.84h-7.56v-8.93Z"/>
    <path class="cls-1" d="M975.66,65.6c-5.54,0-9,3.53-9,10.94,0,6.84,3.17,11.02,9.22,11.02,5.47,0,7.34-3.38,8.35-7.49l7.13,1.73c-1.37,7.85-6.12,12.6-15.41,12.6-10.66,0-17.21-6.19-17.21-17.57s6.7-18.07,17.07-18.07c9.72,0,14.11,4.61,15.48,12.67l-7.27,1.37c-1.01-4.32-3.02-7.2-8.35-7.2Z"/>
    <path class="cls-1" d="M1018.28,85.4h-.79c-1.73,5.47-5.62,8.78-11.59,8.78s-10.3-2.88-10.3-9.5c0-6.05,3.67-10.44,12.24-10.44h10.08v-2.3c0-4.39-1.8-6.91-6.55-6.91-3.96,0-6.26,2.02-7.13,5.98l-7.34-1.66c1.3-6.41,6.12-10.51,14.76-10.51,9.79,0,13.97,4.61,13.97,13.03v21.6h-7.34v-8.06ZM1017.92,80.72v-1.37h-8.78c-3.89,0-6.12,1.44-6.12,4.25,0,2.45,1.51,4.54,5.9,4.54,5.4,0,9-3.17,9-7.42Z"/>
    <path class="cls-1" d="M1035.41,65.88h-4.75v-6.26h4.75v-9.15h7.78v9.15h9.94v6.26h-9.94v16.2c0,3.31,1.22,5.04,4.61,5.04,1.73,0,3.24-.36,4.9-.86l.94,6.91c-2.52.79-4.25,1.22-7.63,1.22-7.42,0-10.58-4.9-10.58-11.23v-17.28Z"/>
    <path class="cls-1" d="M1059.24,53.86v-6.26h8.42v6.26h-8.42ZM1059.53,93.46v-33.84h7.78v33.84h-7.78Z"/>
    <path class="cls-1" d="M1084.01,93.46l-12.53-33.84h8.42l4.18,13.1c1.51,4.82,3.1,9.5,4.39,14.11h1.44c1.3-4.61,2.88-9.43,4.39-14.11l4.18-13.1h8.21l-12.46,33.84h-10.23Z"/>
    <path class="cls-1" d="M1108.42,76.47c0-11.16,6.7-17.71,17.21-17.71s17.07,6.55,17.07,17.71-6.34,17.93-17.07,17.93-17.21-6.84-17.21-17.93ZM1116.2,76.4c0,6.98,2.88,11.3,9.36,11.3s9.43-4.32,9.43-11.3-3.17-11.09-9.43-11.09-9.36,4.1-9.36,11.09Z"/>
  </g>
  <path class="cls-1" d="M65.28,115.89c-24,0-43.52-19.52-43.52-43.52s19.52-43.52,43.52-43.52,43.52,19.52,43.52,43.52-19.52,43.52-43.52,43.52ZM65.28,30.85c-22.89,0-41.52,18.63-41.52,41.52s18.63,41.52,41.52,41.52,41.52-18.63,41.52-41.52-18.63-41.52-41.52-41.52Z"/>
  <g>
    <path class="cls-1" d="M49.85,46.86h40.94v28.19c-.11.12-.4.5-.55.5h-32.92v16.44l.69-.85c.94-1,2.1-1.77,3.39-2.24.11-.15-.57-.69-.69-.85-1.32-1.73-1.41-5.28-.24-7.11,1.79-2.8,5.85-2.94,7.85-.3,1.37,1.81,1.34,5.62-.04,7.41-.12.16-.8.7-.69.85,2.09.74,3.81,2.34,4.77,4.32l.21.06c.92-2.03,2.69-3.62,4.78-4.38.11-.15-.57-.69-.69-.85-1.3-1.7-1.4-5.16-.32-6.99,1.7-2.88,5.82-3.12,7.88-.48,1.42,1.82,1.4,5.66,0,7.47-.12.16-.8.7-.69.85,2.85,1,5.05,3.68,5.55,6.66.11.65.42,2.1-.44,2.29-1.29.28-1-1.38-1.15-2.19-1.42-7.6-12.67-7.6-14.09,0-.15.81.14,2.48-1.15,2.19-.77-.17-.57-1.52-.7-2.19-1.42-7.6-12.67-7.6-14.09,0-.09.48-.05,1.45-.2,1.79-.26.61-1.28.56-1.47-.07-.13-.42-.08-1.27-.19-1.8-1.51-7.54-12.66-7.47-14.07.08-.14.75.12,2.18-.88,2.22-1.29.05-.8-2.02-.62-2.82.65-2.8,2.75-5.2,5.45-6.16.04-.15-.04-.16-.1-.25-.24-.35-.66-.64-.92-1.08-.3-.51-.57-1.16-.59-1.76-1.89-.29-3.15-1.87-3.28-3.74-.25-3.52.08-7.49.15-11.02.67-2.74,3.23-4.51,6.03-4.28-1.41-1.51-1.58-3.74-1.38-5.72.21-2.09,1.88-4.1,3.97-4.45v-9.01c0-.37.25-.54.5-.75ZM89.2,48.45h-38.25v7.97c2.53.2,4.56,2.21,4.78,4.73.18,1.99,0,4.1-1.39,5.63h8.32c.95-1.05,1.76-2.23,2.69-3.29.84-.96,1.74-2.13,3.14-2.19v-10.6c.13-.77,1.17-.9,1.52-.23l.07,10.78c.04.28.36.28.55.45,2.11,1.81.7,3.38-.55,5.03-1.17,1.54-2.78,3.71-4.08,5.08-.11.12-.52.55-.64.55h-8.02v1.59h31.88v-25.5ZM50.02,58.04c-5,.68-3.78,10.45,1.75,8.52,2.29-.8,2.57-3.17,2.36-5.31-.2-2.01-2.11-3.48-4.11-3.21ZM43.77,84.12v-12c0-.69,1.59-.69,1.59,0v7.82c2.98-2.57,7.66-.71,7.97,3.23.13,1.64.03,3.55-1,4.88-.12.16-.8.7-.69.85,1.67.56,3.01,1.73,4.08,3.09v-20.67c0-.19.5-.61.74-.55l8.4-.02,5.13-6.48c.33-1.14-.41-1.69-1.5-1.4-.8.21-1.85,1.63-2.41,2.28-.83.96-1.59,2-2.39,2.99-.25.21-.63.23-.95.25-5.47.39-11.42-.31-16.94,0-1.9.2-3.46,1.71-3.64,3.64-.29,3.24.21,6.88,0,10.16.09.84.75,1.75,1.59,1.94ZM48.13,80.36c-2.61.31-2.96,2.84-2.77,5,.35,3.85,5.95,3.88,6.36.09.27-2.52-.45-5.46-3.6-5.09ZM64.07,80.36c-2.61.31-2.96,2.84-2.77,5,.35,3.85,5.95,3.88,6.36.09.27-2.52-.45-5.46-3.6-5.09ZM80.01,80.36c-2.61.31-2.96,2.84-2.77,5,.35,3.85,5.95,3.88,6.36.09.27-2.52-.45-5.46-3.6-5.09Z"/>
    <path class="cls-1" d="M44.34,94.69c.34-.07.73.02.91.34.16.28.17,1.9.09,2.26-.17.78-1.43.78-1.57-.08-.1-.62-.2-2.35.56-2.51Z"/>
    <path class="cls-1" d="M52.31,94.69c.34-.07.73.02.91.34.16.28.17,1.9.09,2.26-.17.78-1.43.78-1.57-.08-.1-.62-.2-2.35.56-2.51Z"/>
    <path class="cls-1" d="M60.28,94.69c.34-.07.73.02.91.34.16.28.17,1.9.09,2.26-.17.78-1.43.78-1.57-.08-.1-.62-.2-2.35.56-2.51Z"/>
    <path class="cls-1" d="M68.25,94.69c.34-.07.73.02.91.34.16.28.17,1.9.09,2.26-.17.78-1.43.78-1.57-.08-.1-.62-.2-2.35.56-2.51Z"/>
    <path class="cls-1" d="M76.22,94.69c.34-.07.73.02.91.34.16.28.17,1.9.09,2.26-.17.78-1.43.78-1.57-.08-.1-.62-.2-2.35.56-2.51Z"/>
    <path class="cls-1" d="M84.19,94.69c.34-.07.73.02.91.34.16.28.17,1.9.09,2.26-.17.78-1.43.78-1.57-.08-.1-.62-.2-2.35.56-2.51Z"/>
  </g>
</svg>