<?xml version="1.0" encoding="UTF-8"?>
<svg id="Capa_1" data-name="Capa 1" xmlns="http://www.w3.org/2000/svg" viewBox="0 0 703.16 144.73">
  <defs>
    <style>
      .cls-1 {
        fill: #edf0f4;
      }
    </style>
  </defs>
  <path class="cls-1" d="M630.79,144.73H72.37C32.46,144.73,0,112.27,0,72.37S32.46,0,72.37,0h558.43C670.69,0,703.16,32.46,703.16,72.37s-32.46,72.37-72.37,72.37ZM72.37,3C34.12,3,3,34.12,3,72.37s31.12,69.37,69.37,69.37h558.43c38.25,0,69.37-31.12,69.37-69.37S669.04,3,630.79,3H72.37Z"/>
  <g>
    <path class="cls-1" d="M133.92,50.26h17.57c14.91,0,21.75,7.56,21.75,21.24s-8.21,21.96-21.75,21.96h-17.57v-43.2ZM142.13,57.1v29.6h8.71c10.15,0,14.19-5.47,14.19-15.19s-4.25-14.4-14.62-14.4h-8.28Z"/>
    <path class="cls-1" d="M177.33,76.97c0-11.45,6.48-18.22,17.07-18.22s15.19,6.19,15.19,15.48c0,1.29,0,2.81-.14,4.54h-24.41c.58,6.12,3.67,9.22,9.43,9.22,5.4,0,7.27-2.59,8.21-5.83l6.62,1.87c-1.58,6.12-5.83,10.3-14.91,10.3-10.37,0-17.07-6.05-17.07-17.35ZM185.11,73.59h17.35c-.29-5.83-2.88-8.86-8.28-8.86s-8.35,2.81-9.07,8.86Z"/>
    <path class="cls-1" d="M213.47,83.45l6.98-1.44c1.08,4.11,3.46,6.7,8.93,6.7,4.1,0,6.26-1.44,6.26-4.32,0-2.66-1.87-3.96-8.57-5.18-9-1.8-12.17-4.82-12.17-10.44,0-6.12,4.46-10.01,13.47-10.01s12.46,3.82,13.83,9.79l-6.98,1.51c-.94-4.18-2.95-5.76-6.98-5.76s-5.98,1.51-5.98,4.03c0,2.38,1.44,4.03,7.85,5.18,10.01,1.87,13.03,5.26,13.03,10.58,0,6.26-4.18,10.3-13.9,10.3-10.94,0-14.54-4.46-15.77-10.94Z"/>
    <path class="cls-1" d="M269.78,85.4h-.79c-1.73,5.47-5.62,8.79-11.59,8.79s-10.3-2.88-10.3-9.5c0-6.05,3.67-10.44,12.24-10.44h10.08v-2.3c0-4.39-1.8-6.91-6.55-6.91-3.96,0-6.26,2.02-7.13,5.98l-7.34-1.66c1.3-6.41,6.12-10.51,14.76-10.51,9.79,0,13.97,4.61,13.97,13.03v21.6h-7.34v-8.06ZM269.42,80.72v-1.37h-8.78c-3.89,0-6.12,1.44-6.12,4.25,0,2.45,1.51,4.54,5.9,4.54,5.4,0,9-3.17,9-7.42Z"/>
    <path class="cls-1" d="M284.97,93.46v-33.84h7.34v10.15l.65.07c1.94-8.21,5.11-10.59,10.01-10.59h1.22v8.71h-1.87c-7.13,0-9.65,2.52-9.65,9.43v16.06h-7.7Z"/>
    <path class="cls-1" d="M309.45,93.46v-33.84h7.34v10.15l.65.07c1.94-8.21,5.11-10.59,10.01-10.59h1.22v8.71h-1.87c-7.13,0-9.65,2.52-9.65,9.43v16.06h-7.7Z"/>
    <path class="cls-1" d="M331.99,76.47c0-11.16,6.7-17.71,17.21-17.71s17.07,6.55,17.07,17.71-6.34,17.93-17.07,17.93-17.21-6.84-17.21-17.93ZM339.76,76.4c0,6.98,2.88,11.3,9.36,11.3s9.43-4.32,9.43-11.3-3.17-11.09-9.43-11.09-9.36,4.1-9.36,11.09Z"/>
    <path class="cls-1" d="M380.37,93.46h-7.78v-46.23h7.78v46.23Z"/>
    <path class="cls-1" d="M396.64,93.46h-7.78v-46.23h7.78v46.23Z"/>
    <path class="cls-1" d="M402.98,76.47c0-11.16,6.7-17.71,17.21-17.71s17.07,6.55,17.07,17.71-6.34,17.93-17.07,17.93-17.21-6.84-17.21-17.93ZM410.75,76.4c0,6.98,2.88,11.3,9.36,11.3s9.43-4.32,9.43-11.3-3.17-11.09-9.43-11.09-9.36,4.1-9.36,11.09Z"/>
    <path class="cls-1" d="M457.26,50.26h17.57c14.91,0,21.75,7.56,21.75,21.24s-8.21,21.96-21.75,21.96h-17.57v-43.2ZM465.47,57.1v29.6h8.71c10.15,0,14.19-5.47,14.19-15.19s-4.25-14.4-14.62-14.4h-8.28Z"/>
    <path class="cls-1" d="M502.77,53.86v-6.26h8.42v6.26h-8.42ZM503.05,93.46v-33.84h7.78v33.84h-7.78Z"/>
    <path class="cls-1" d="M532.65,105.85c-12.82,0-16.56-2.74-16.56-7.06,0-2.95,3.17-5.11,7.78-6.12v-.29c-3.02-.58-4.61-2.16-4.61-4.54,0-1.8,1.44-3.38,3.82-4.54l2.59-1.44c-5.04-1.66-7.7-5.33-7.7-10.44,0-7.63,5.54-11.81,14.91-11.81h16.78v5.98h-3.89c-1.8,0-3.96-.14-6.84-.36l-.07.65c4.46.86,8.21,2.74,8.21,7.2,0,6.05-5.11,9.72-14.54,9.72-2.16,0-4.03-.22-5.69-.65l-.79,1.22c-.5.86-.86,1.44-.86,2.16,0,1.37,1.08,1.87,3.31,1.87,3.82,0,7.7-.07,11.38-.07,7.13,0,10.58,3.1,10.58,8.35,0,6.84-4.39,10.15-17.79,10.15ZM544.24,95.91c0-1.95-1.37-3.31-4.68-3.31h-11.88c-3.67,0-5.54,1.87-5.54,3.74,0,2.74,2.16,3.89,10.94,3.89s11.16-1.44,11.16-4.32ZM524.94,71.57c0,3.6,2.02,5.9,7.63,5.9s7.85-2.3,7.85-5.9-2.59-5.91-7.92-5.91-7.56,2.38-7.56,5.91Z"/>
    <path class="cls-1" d="M555.61,53.86v-6.26h8.42v6.26h-8.42ZM555.9,93.46v-33.84h7.78v33.84h-7.78Z"/>
    <path class="cls-1" d="M574.19,65.88h-4.75v-6.26h4.75v-9.15h7.78v9.15h9.94v6.26h-9.94v16.2c0,3.31,1.22,5.04,4.61,5.04,1.73,0,3.24-.36,4.9-.86l.94,6.91c-2.52.79-4.25,1.22-7.63,1.22-7.42,0-10.58-4.9-10.58-11.23v-17.28Z"/>
    <path class="cls-1" d="M618.54,85.4h-.79c-1.73,5.47-5.62,8.79-11.59,8.79s-10.3-2.88-10.3-9.5c0-6.05,3.67-10.44,12.24-10.44h10.08v-2.3c0-4.39-1.8-6.91-6.55-6.91-3.96,0-6.26,2.02-7.13,5.98l-7.34-1.66c1.3-6.41,6.12-10.51,14.76-10.51,9.79,0,13.97,4.61,13.97,13.03v21.6h-7.34v-8.06ZM618.18,80.72v-1.37h-8.78c-3.89,0-6.12,1.44-6.12,4.25,0,2.45,1.51,4.54,5.9,4.54,5.4,0,9-3.17,9-7.42Z"/>
    <path class="cls-1" d="M641.72,93.46h-7.78v-46.23h7.78v46.23Z"/>
  </g>
  <path class="cls-1" d="M65.28,115.89c-24,0-43.52-19.52-43.52-43.52s19.52-43.52,43.52-43.52,43.52,19.52,43.52,43.52-19.52,43.52-43.52,43.52ZM65.28,30.85c-22.89,0-41.52,18.63-41.52,41.52s18.63,41.52,41.52,41.52,41.52-18.63,41.52-41.52-18.63-41.52-41.52-41.52Z"/>
  <g>
    <path class="cls-1" d="M72.3,84.33c.09,1.91.36,3.88.96,5.7.08.24.44,1.31.54,1.42.18.22,2.68.06,3.2.1,3.23.29,3.77,4.51.8,5.65-8.08.31-16.23.04-24.34.14-3.59-.47-3.52-5.5.21-5.79.48-.04,2.87.09,3.03-.01.99-2.26,1.35-4.75,1.46-7.21h-14.92c-1.47,0-3.59-2.45-3.46-3.97v-29.02c.18-2.06,1.8-3.75,3.87-3.97h43.99c1.69.09,2.96,1.41,3.14,3.05v29.84c.19,1.56-1.96,4.07-3.46,4.07h-15.02ZM89.33,75.87v-25.55s-.27-.62-.33-.71c-.32-.48-.91-.76-1.48-.8h-43.68c-1.04-.08-2.63,1.33-2.63,2.33v24.73h48.11ZM89.33,77.31h-48.11v3.25c0,.96,1.44,2.29,2.43,2.32h43.05c1.06.12,2.63-1.32,2.63-2.32v-3.25ZM70.85,84.33h-11.25c-.09,2.46-.46,4.93-1.34,7.23h14.04c-.95-2.27-1.34-4.77-1.45-7.23ZM53.48,93.03c-1.64.34-1.64,2.67.08,2.87,7.95-.06,15.93.13,23.85-.1,1.42-.66,1.05-2.62-.52-2.79l-23.41.03Z"/>
    <path class="cls-1" d="M57.31,56.55s.11-.32.22-.45c.36-.42,1.5-1.61,1.98-1.73,1.22-.32,1.63,1.26,2.91.53.84-.48.34-1.83,1.38-2.34.45-.22,2.58-.21,3.01.04,1.03.58.38,1.9,1.45,2.37,1.38.59,1.79-1.39,3.25-.36.53.37,1.4,1.38,1.72,1.95h3.11s3.02-2.98,3.02-2.98c.1-.24-.13-.68-.16-.98-.22-2.62,3.12-3.77,4.52-1.63,1.45,2.21-1,4.68-3.29,3.6l-3.48,3.44c-1.18.2-2.89-.19-4,.02-.7.14-.49,1.34,0,1.75s.95.21,1.42.44.82.9.8,1.42l1.44-.05c1.12-2.89,5.27-1.89,4.84,1.23-.33,2.39-4.16,2.77-4.75.28h-1.53c0,.38-.11.72-.36,1.02-.51.61-1.13.33-1.7.67-.47.28-.85,1.25-.47,1.7.23.28,3.48-.03,4.19.15.83.22,2.77,2.82,3.61,3.41.24.11.57-.13.87-.16,2.84-.29,3.87,3.34,1.59,4.59-2.26,1.24-4.51-1.11-3.45-3.35l-3.21-3.09h-3.03c-.18.63-1.59,2.12-2.15,2.25-1.33.3-1.55-1.09-2.77-.6-1.12.44-.48,1.77-1.39,2.33-.59.36-2.46.36-3.09.11-1.2-.46-.38-2.11-1.75-2.48-1.14-.31-1.31.95-2.61.65-.57-.13-1.97-1.61-2.15-2.23l-3.24.08-2.99,3c1.08,2.24-1.2,4.58-3.45,3.35-2.28-1.25-1.25-4.88,1.59-4.59.3.03.63.27.87.16.84-.59,2.79-3.2,3.61-3.41.71-.18,3.95.13,4.19-.15.38-.45,0-1.42-.47-1.7-.57-.35-1.2-.06-1.7-.67-.25-.3-.35-.64-.36-1.03h-1.53c-.59,2.49-4.42,2.12-4.75-.27-.43-3.13,3.72-4.11,4.84-1.23l1.44.05c-.02-.52.32-1.19.8-1.42s.93-.02,1.42-.44.71-1.62,0-1.75c-1.12-.21-2.82.17-4-.02l-3.48-3.44c-2.25,1.06-4.7-1.31-3.33-3.53,1.32-2.14,4.62-1.16,4.57,1.36,0,.44-.22.77-.17,1.18l2.89,2.9c.21.12,3.1.17,3.24.08ZM49.9,52.32c0-.57-.46-1.03-1.03-1.03s-1.03.46-1.03,1.03.46,1.03,1.03,1.03,1.03-.46,1.03-1.03ZM82.72,52.32c0-.57-.46-1.03-1.03-1.03s-1.03.46-1.03,1.03.46,1.03,1.03,1.03,1.03-.46,1.03-1.03ZM66.1,53.88h-1.65c0,2.31-2.81,3.45-4.51,1.97l-1.14,1.07c1.47,1.81.37,4.52-1.99,4.6l.04,1.56c2.28.25,3.48,2.81,1.92,4.6l1.07,1.15c1.75-1.49,4.48-.44,4.6,1.88h1.65c.05-1.9,2.12-3.12,3.84-2.35.18.08.66.51.8.44l1.02-1.05c-1.47-1.8-.47-4.41,1.87-4.63l.1-1.6c-1.87,0-3.13-1.96-2.5-3.68.08-.22.54-.85.49-.96l-1.05-1.02c-1.78,1.43-4.54.41-4.58-1.97ZM52.56,62.33c0-.57-.46-1.04-1.04-1.04s-1.04.46-1.04,1.04.46,1.04,1.04,1.04,1.04-.46,1.04-1.04ZM80.07,62.33c0-.57-.46-1.04-1.04-1.04s-1.04.46-1.04,1.04.46,1.04,1.04,1.04,1.04-.46,1.04-1.04ZM49.9,72.32c0-.57-.46-1.03-1.03-1.03s-1.03.46-1.03,1.03.46,1.03,1.03,1.03,1.03-.46,1.03-1.03ZM82.71,72.32c0-.57-.46-1.03-1.03-1.03s-1.03.46-1.03,1.03.46,1.03,1.03,1.03,1.03-.46,1.03-1.03Z"/>
    <path class="cls-1" d="M63.18,79.4c.5-.11,3.55-.1,4.1-.02.9.14.81,1.3.11,1.44-.47.09-3.75.09-4.23,0-.69-.13-.78-1.24.02-1.42Z"/>
    <path class="cls-1" d="M70.47,62.32c0,2.87-2.33,5.19-5.19,5.19s-5.19-2.33-5.19-5.19,2.33-5.19,5.19-5.19,5.19,2.33,5.19,5.19ZM69.02,62.33c0-2.07-1.68-3.75-3.75-3.75s-3.75,1.68-3.75,3.75,1.68,3.75,3.75,3.75,3.75-1.68,3.75-3.75Z"/>
  </g>
</svg>