<?xml version="1.0" encoding="UTF-8"?>
<svg id="Capa_1" data-name="Capa 1" xmlns="http://www.w3.org/2000/svg" viewBox="0 0 1179.38 144.73">
  <defs>
    <style>
      .cls-1 {
        fill: #edf0f4;
      }
    </style>
  </defs>
  <path class="cls-1" d="M1107.01,144.73H72.37C32.46,144.73,0,112.27,0,72.37S32.46,0,72.37,0h1034.65C1146.91,0,1179.38,32.46,1179.38,72.37s-32.46,72.37-72.37,72.37ZM72.37,3C34.12,3,3,34.12,3,72.37s31.12,69.37,69.37,69.37h1034.65c38.25,0,69.37-31.12,69.37-69.37s-31.12-69.37-69.37-69.37H72.37Z"/>
  <g>
    <path class="cls-1" d="M133.92,50.26h31.18v7.13h-22.97v10.66h20.81v7.06h-20.81v11.23h22.9v7.13h-31.11v-43.2Z"/>
    <path class="cls-1" d="M181.22,93.46l-12.53-33.84h8.42l4.18,13.11c1.51,4.82,3.1,9.5,4.39,14.11h1.44c1.3-4.61,2.88-9.43,4.39-14.11l4.18-13.11h8.21l-12.46,33.84h-10.23Z"/>
    <path class="cls-1" d="M205.63,76.97c0-11.45,6.48-18.22,17.07-18.22s15.19,6.19,15.19,15.48c0,1.3,0,2.81-.14,4.54h-24.41c.58,6.12,3.67,9.22,9.43,9.22,5.4,0,7.27-2.59,8.21-5.83l6.62,1.87c-1.58,6.12-5.83,10.3-14.91,10.3-10.37,0-17.07-6.05-17.07-17.35ZM213.4,73.59h17.35c-.29-5.83-2.88-8.86-8.28-8.86s-8.35,2.81-9.07,8.86Z"/>
    <path class="cls-1" d="M251.85,93.46h-7.7v-33.84h7.56v8.93h.65c1.87-6.26,6.19-9.79,11.88-9.79,7.06,0,10.44,4.75,10.44,12.1v22.61h-7.7v-20.59c0-4.1-1.8-7.13-6.48-7.13-5.18,0-8.64,3.46-8.64,8.57v19.15Z"/>
    <path class="cls-1" d="M284.32,65.88h-4.75v-6.26h4.75v-9.14h7.78v9.14h9.94v6.26h-9.94v16.2c0,3.31,1.22,5.04,4.61,5.04,1.73,0,3.24-.36,4.9-.86l.94,6.91c-2.52.79-4.25,1.22-7.63,1.22-7.42,0-10.58-4.9-10.58-11.23v-17.28Z"/>
    <path class="cls-1" d="M306.06,76.47c0-11.16,6.7-17.71,17.21-17.71s17.07,6.55,17.07,17.71-6.34,17.93-17.07,17.93-17.21-6.84-17.21-17.93ZM313.84,76.4c0,6.98,2.88,11.3,9.36,11.3s9.43-4.32,9.43-11.3-3.17-11.09-9.43-11.09-9.36,4.1-9.36,11.09Z"/>
    <path class="cls-1" d="M344.08,83.45l6.98-1.44c1.08,4.1,3.46,6.7,8.93,6.7,4.1,0,6.26-1.44,6.26-4.32,0-2.66-1.87-3.96-8.57-5.18-9-1.8-12.17-4.82-12.17-10.44,0-6.12,4.46-10.01,13.47-10.01s12.46,3.82,13.83,9.79l-6.98,1.51c-.94-4.18-2.95-5.76-6.98-5.76s-5.98,1.51-5.98,4.03c0,2.38,1.44,4.03,7.85,5.18,10.01,1.87,13.03,5.26,13.03,10.58,0,6.26-4.18,10.3-13.9,10.3-10.94,0-14.54-4.46-15.77-10.95Z"/>
    <path class="cls-1" d="M390.95,83.45l6.98-1.44c1.08,4.1,3.46,6.7,8.93,6.7,4.1,0,6.26-1.44,6.26-4.32,0-2.66-1.87-3.96-8.57-5.18-9-1.8-12.17-4.82-12.17-10.44,0-6.12,4.46-10.01,13.47-10.01s12.46,3.82,13.83,9.79l-6.98,1.51c-.94-4.18-2.95-5.76-6.98-5.76s-5.98,1.51-5.98,4.03c0,2.38,1.44,4.03,7.85,5.18,10.01,1.87,13.03,5.26,13.03,10.58,0,6.26-4.18,10.3-13.9,10.3-10.94,0-14.54-4.46-15.77-10.95Z"/>
    <path class="cls-1" d="M424.65,76.47c0-11.16,6.7-17.71,17.21-17.71s17.07,6.55,17.07,17.71-6.34,17.93-17.07,17.93-17.21-6.84-17.21-17.93ZM432.42,76.4c0,6.98,2.88,11.3,9.36,11.3s9.43-4.32,9.43-11.3-3.17-11.09-9.43-11.09-9.36,4.1-9.36,11.09Z"/>
    <path class="cls-1" d="M480.01,65.6c-5.54,0-9,3.53-9,10.95,0,6.84,3.17,11.02,9.22,11.02,5.47,0,7.34-3.38,8.35-7.49l7.13,1.73c-1.37,7.85-6.12,12.6-15.41,12.6-10.66,0-17.21-6.19-17.21-17.57s6.7-18.07,17.07-18.07c9.72,0,14.11,4.61,15.48,12.67l-7.27,1.37c-1.01-4.32-3.02-7.2-8.35-7.2Z"/>
    <path class="cls-1" d="M502.12,53.86v-6.26h8.42v6.26h-8.42ZM502.4,93.46v-33.84h7.78v33.84h-7.78Z"/>
    <path class="cls-1" d="M539.41,85.4h-.79c-1.73,5.47-5.62,8.79-11.59,8.79s-10.3-2.88-10.3-9.5c0-6.05,3.67-10.44,12.24-10.44h10.08v-2.3c0-4.39-1.8-6.91-6.55-6.91-3.96,0-6.26,2.02-7.13,5.98l-7.34-1.66c1.3-6.41,6.12-10.51,14.76-10.51,9.79,0,13.97,4.61,13.97,13.03v21.6h-7.34v-8.06ZM539.05,80.72v-1.37h-8.78c-3.89,0-6.12,1.44-6.12,4.25,0,2.45,1.51,4.54,5.9,4.54,5.4,0,9-3.17,9-7.42Z"/>
    <path class="cls-1" d="M562.6,93.46h-7.78v-46.23h7.78v46.23Z"/>
    <path class="cls-1" d="M568.93,76.97c0-11.45,6.48-18.22,17.07-18.22s15.19,6.19,15.19,15.48c0,1.3,0,2.81-.14,4.54h-24.41c.58,6.12,3.67,9.22,9.43,9.22,5.4,0,7.27-2.59,8.21-5.83l6.62,1.87c-1.58,6.12-5.83,10.3-14.91,10.3-10.37,0-17.07-6.05-17.07-17.35ZM576.71,73.59h17.35c-.29-5.83-2.88-8.86-8.28-8.86s-8.35,2.81-9.07,8.86Z"/>
    <path class="cls-1" d="M605.07,83.45l6.98-1.44c1.08,4.1,3.46,6.7,8.93,6.7,4.1,0,6.26-1.44,6.26-4.32,0-2.66-1.87-3.96-8.57-5.18-9-1.8-12.17-4.82-12.17-10.44,0-6.12,4.46-10.01,13.47-10.01s12.46,3.82,13.83,9.79l-6.98,1.51c-.94-4.18-2.95-5.76-6.98-5.76s-5.98,1.51-5.98,4.03c0,2.38,1.44,4.03,7.85,5.18,10.01,1.87,13.03,5.26,13.03,10.58,0,6.26-4.18,10.3-13.9,10.3-10.94,0-14.54-4.46-15.77-10.95Z"/>
    <path class="cls-1" d="M650.58,105.63l1.22-6.98c1.44.29,2.88.5,4.32.5,3.82,0,5.83-.94,8.06-6.05l-13.61-33.48h8.5l3.96,12.24c1.37,4.25,3.24,9.87,4.68,14.76h1.15c1.51-5.04,3.17-10.44,4.46-14.62l3.67-12.38h8.28l-13.97,34.28c-3.46,8.42-7.63,12.17-15.41,12.17-2.23,0-3.74-.22-5.33-.43Z"/>
    <path class="cls-1" d="M717.9,65.6c-5.54,0-9,3.53-9,10.95,0,6.84,3.17,11.02,9.22,11.02,5.47,0,7.34-3.38,8.35-7.49l7.13,1.73c-1.37,7.85-6.12,12.6-15.41,12.6-10.66,0-17.21-6.19-17.21-17.57s6.7-18.07,17.07-18.07c9.72,0,14.11,4.61,15.48,12.67l-7.27,1.37c-1.01-4.32-3.02-7.2-8.35-7.2Z"/>
    <path class="cls-1" d="M737.91,76.97c0-11.45,6.48-18.22,17.07-18.22s15.19,6.19,15.19,15.48c0,1.3,0,2.81-.14,4.54h-24.41c.58,6.12,3.67,9.22,9.43,9.22,5.4,0,7.27-2.59,8.21-5.83l6.62,1.87c-1.58,6.12-5.83,10.3-14.91,10.3-10.37,0-17.07-6.05-17.07-17.35ZM745.69,73.59h17.35c-.29-5.83-2.88-8.86-8.28-8.86s-8.35,2.81-9.07,8.86Z"/>
    <path class="cls-1" d="M784.42,93.46h-7.78v-46.23h7.78v46.23Z"/>
    <path class="cls-1" d="M790.76,76.97c0-11.45,6.48-18.22,17.07-18.22s15.19,6.19,15.19,15.48c0,1.3,0,2.81-.14,4.54h-24.41c.58,6.12,3.67,9.22,9.43,9.22,5.4,0,7.27-2.59,8.21-5.83l6.62,1.87c-1.58,6.12-5.83,10.3-14.91,10.3-10.37,0-17.07-6.05-17.07-17.35ZM798.53,73.59h17.35c-.29-5.83-2.88-8.86-8.28-8.86s-8.35,2.81-9.07,8.86Z"/>
    <path class="cls-1" d="M836.98,68.4h.5c1.8-5.83,5.54-9.65,11.67-9.65,7.99,0,12.46,6.34,12.46,17.86s-4.68,17.79-12.31,17.79c-6.19,0-10.15-4.03-11.81-9.94h-.5v9h-7.7v-46.23h7.7v21.17ZM853.98,76.61c0-7.34-2.59-10.87-8.28-10.87-5.33,0-8.71,3.74-8.71,9.65v2.59c0,5.69,3.46,9.58,8.64,9.58,5.69,0,8.35-3.67,8.35-10.95Z"/>
    <path class="cls-1" d="M867.73,93.46v-33.84h7.34v10.15l.65.07c1.94-8.21,5.11-10.58,10.01-10.58h1.22v8.71h-1.87c-7.13,0-9.65,2.52-9.65,9.43v16.06h-7.7Z"/>
    <path class="cls-1" d="M912.87,85.4h-.79c-1.73,5.47-5.62,8.79-11.59,8.79s-10.3-2.88-10.3-9.5c0-6.05,3.67-10.44,12.24-10.44h10.08v-2.3c0-4.39-1.8-6.91-6.55-6.91-3.96,0-6.26,2.02-7.13,5.98l-7.34-1.66c1.3-6.41,6.12-10.51,14.76-10.51,9.79,0,13.97,4.61,13.97,13.03v21.6h-7.34v-8.06ZM912.51,80.72v-1.37h-8.78c-3.89,0-6.12,1.44-6.12,4.25,0,2.45,1.51,4.54,5.9,4.54,5.4,0,9-3.17,9-7.42Z"/>
    <path class="cls-1" d="M943.04,65.6c-5.54,0-9,3.53-9,10.95,0,6.84,3.17,11.02,9.22,11.02,5.47,0,7.34-3.38,8.35-7.49l7.13,1.73c-1.37,7.85-6.12,12.6-15.41,12.6-10.66,0-17.21-6.19-17.21-17.57s6.7-18.07,17.07-18.07c9.72,0,14.11,4.61,15.48,12.67l-7.27,1.37c-1.01-4.32-3.02-7.2-8.35-7.2Z"/>
    <path class="cls-1" d="M965.14,53.86v-6.26h8.42v6.26h-8.42ZM965.43,93.46v-33.84h7.78v33.84h-7.78Z"/>
    <path class="cls-1" d="M979.83,76.47c0-11.16,6.7-17.71,17.21-17.71s17.07,6.55,17.07,17.71-6.34,17.93-17.07,17.93-17.21-6.84-17.21-17.93ZM987.6,76.4c0,6.98,2.88,11.3,9.36,11.3s9.43-4.32,9.43-11.3-3.17-11.09-9.43-11.09-9.36,4.1-9.36,11.09Z"/>
    <path class="cls-1" d="M1027.92,93.46h-7.7v-33.84h7.56v8.93h.65c1.87-6.26,6.19-9.79,11.88-9.79,7.06,0,10.44,4.75,10.44,12.1v22.61h-7.7v-20.59c0-4.1-1.8-7.13-6.48-7.13-5.18,0-8.64,3.46-8.64,8.57v19.15Z"/>
    <path class="cls-1" d="M1056.51,76.97c0-11.45,6.48-18.22,17.07-18.22s15.19,6.19,15.19,15.48c0,1.3,0,2.81-.14,4.54h-24.41c.58,6.12,3.67,9.22,9.43,9.22,5.4,0,7.27-2.59,8.21-5.83l6.62,1.87c-1.58,6.12-5.83,10.3-14.91,10.3-10.37,0-17.07-6.05-17.07-17.35ZM1064.28,73.59h17.35c-.29-5.83-2.88-8.86-8.28-8.86s-8.35,2.81-9.07,8.86Z"/>
    <path class="cls-1" d="M1092.65,83.45l6.98-1.44c1.08,4.1,3.46,6.7,8.93,6.7,4.1,0,6.26-1.44,6.26-4.32,0-2.66-1.87-3.96-8.57-5.18-9-1.8-12.17-4.82-12.17-10.44,0-6.12,4.46-10.01,13.47-10.01s12.46,3.82,13.83,9.79l-6.98,1.51c-.94-4.18-2.95-5.76-6.98-5.76s-5.98,1.51-5.98,4.03c0,2.38,1.44,4.03,7.85,5.18,10.01,1.87,13.03,5.26,13.03,10.58,0,6.26-4.18,10.3-13.9,10.3-10.94,0-14.54-4.46-15.77-10.95Z"/>
  </g>
  <path class="cls-1" d="M65.28,115.89c-24,0-43.52-19.52-43.52-43.52s19.52-43.52,43.52-43.52,43.52,19.52,43.52,43.52-19.52,43.52-43.52,43.52ZM65.28,30.85c-22.89,0-41.52,18.63-41.52,41.52s18.63,41.52,41.52,41.52,41.52-18.63,41.52-41.52-18.63-41.52-41.52-41.52Z"/>
  <g>
    <path class="cls-1" d="M50.52,45.17c1.59.51,2.14,1.8,2.08,3.4h25.44c-.21-1.61.48-2.88,2.02-3.4h1.06c1.53.49,2.23,1.82,2.02,3.4,3.04.08,7.29-.9,7.65,3.34v35.92c-.11,1.42-1.03,2.7-2.43,3.1-.95.27-5.86.27-6.98.14s-1.04-1.55-.1-1.7c1.86-.29,4.78.36,6.53-.05.45-.11,1.27-.81,1.27-1.28v-29.27h-47.6v29.27c0,.48.8,1.18,1.27,1.28,1.85.39,4.63-.24,6.53.05.94.15.98,1.57-.1,1.7s-6.03.13-6.98-.14c-1.39-.4-2.32-1.68-2.42-3.1.1-12.27-.18-24.59.14-36.84,1.1-3.37,4.8-2.23,7.51-2.42-.21-1.6.48-2.87,2.02-3.4h1.06ZM49.75,46.89c-.32.07-.55.36-.6.68-.13.81-.11,3.61,0,4.46.13,1.08,1.55,1.04,1.7.1.13-.8.11-3.62,0-4.46-.07-.59-.5-.9-1.09-.77ZM80.35,46.89c-.32.07-.55.36-.6.68-.13.81-.11,3.61,0,4.46.13,1.08,1.55,1.04,1.7.1.13-.8.11-3.62,0-4.46-.07-.59-.5-.9-1.09-.77ZM47.44,50.27h-4.62c-.42,0-1.33.94-1.33,1.33v5.47h47.6v-5.47c0-.42-.9-1.33-1.33-1.33h-4.62v2.18c0,.06-.29.7-.36.81-1.02,1.68-3.37,1.68-4.39,0-.07-.11-.36-.75-.36-.81v-2.18h-25.5v2.18c0,.12-.34.79-.44.94-1.06,1.58-3.32,1.5-4.3-.13-.07-.11-.36-.75-.36-.81v-2.18Z"/>
    <path class="cls-1" d="M49.98,99.28c-.19,0-.35-.08-.46-.22-.11-.16-.14-.37-.07-.59l7.49-21.72c.12-.48.51-.82,1.03-.9.08-.01.16-.02.25-.02,2.01,0,5.78,3.16,6.88,4.12,2.04,1.79,7.68,7.58,7.77,10.43.02.54-.27,1.19-.82,1.33l-21.83,7.53c-.08.02-.16.04-.24.04ZM51,97.78l6.2-2.2-.09-.55h-5.31l-.8,2.76ZM52.25,93.9h10.07l3.13-1.22-1.34-.99-11.06-.07-.79,2.27ZM57.15,79.76c-.04.24-.17.53-.29.82-.14.32-.29.66-.33.97-.06.46.39,1.13,1.18,2.13l.14.17c1.87,2.41,4.62,5.17,7.01,7.01l.1.08c1.04.8,1.52,1.14,1.74,1.2.08.02.19.05.31.05.11,0,.21-.02.31-.06l2.22-.92-.5-.29c-3.41-1.99-6.68-5.01-9.99-9.25l-1.79-2.62-.11.7ZM58.08,77.05l-.1.1.02.14c.06.41.21.79.34,1.08,1.58,3.65,8.47,10.49,12.08,12.01,0,0,.79.33,1.01.33h.12s.1-.09.1-.09c.1-.1.19-.19-.21-1.15-1.57-3.83-8.61-10.83-12.36-12.29,0,0-.6-.22-.79-.22h-.12l-.1.09ZM53.39,90.5h9.2l-2.22-2.16-6.03-.09-.95,2.25ZM56.13,83.56c-.3.02-.39.27-.43.38-.2.45-.33.9-.46,1.34-.14.49-.29.99-.5,1.41l-.2.41h4.55l-2.79-3.55h-.15Z"/>
    <path class="cls-1" d="M68.67,81.44c-.18,0-.35-.08-.45-.23-.1-.14-.13-.33-.08-.53l6.91-7.01c.07-.07.16-.14.26-.17.06-.01.12-.02.18-.02.23,0,.43.11.52.31.1.21.06.46-.11.67l-6.83,6.83c-.11.08-.26.14-.4.14Z"/>
    <path class="cls-1" d="M72.08,84.84c-.1,0-.2-.03-.31-.1-.15-.08-.23-.19-.25-.32-.03-.21.08-.49.3-.71.96-1.01,2.89-1.77,4.49-1.78,1.57,0,3.3.64,4.36,1.59.33.3.56.74.5.99-.01.05-.04.19-.33.29-.1.03-.19.05-.27.05-.2,0-.32-.11-.53-.32-.12-.12-.25-.25-.42-.37-1.05-.7-2.2-1.08-3.33-1.08-1.06,0-2.08.32-3.03.95-.16.11-.31.24-.46.38-.25.23-.48.44-.72.44Z"/>
    <path class="cls-1" d="M65.22,78.06c-.13,0-.24-.06-.36-.2-.32-.36-.15-.62.33-1.16.14-.16.28-.32.38-.47,1.05-1.62,1.19-3.64.37-5.39-.14-.29-.44-.68-.74-1.06-.18-.23-.43-.55-.47-.65-.04-.18,0-.37.08-.52.07-.11.17-.18.29-.21.04,0,.08-.01.12-.01.6,0,1.18.97,1.43,1.38,1.29,2.15,1.26,4.83-.08,6.99-.5.81-1.01,1.29-1.36,1.29Z"/>
    <path class="cls-1" d="M56.79,73.81c-.14,0-.28-.07-.39-.2-.12-.15-.31-.5-.18-1.2l.07-.4-.4.07c-.16.03-.3.04-.43.04-.43,0-.76-.14-.9-.38-.08-.15-.08-.32,0-.46.14-.24.47-.38.9-.38.13,0,.28.01.43.04l.4.07-.07-.4c-.12-.7.06-1.05.18-1.2.11-.13.24-.2.39-.2s.28.07.39.2c.12.15.31.5.18,1.2l-.07.4.4-.07c.16-.03.3-.04.43-.04.66,0,.96.32.96.61s-.3.61-.96.61c-.13,0-.28-.01-.43-.04l-.4-.07.07.4c.13.7-.06,1.05-.18,1.2-.11.13-.24.2-.39.2Z"/>
    <path class="cls-1" d="M77.19,94.21c-.14,0-.28-.07-.39-.2-.12-.15-.31-.5-.18-1.2l.07-.4-.4.07c-.16.03-.3.04-.43.04-.43,0-.76-.14-.9-.38-.08-.15-.08-.32,0-.46.14-.24.47-.38.9-.38.13,0,.28.01.43.04l.4.07-.07-.4c-.12-.7.06-1.05.18-1.2.11-.13.24-.2.39-.2s.28.07.39.2c.12.15.31.5.18,1.2l-.07.4.4-.07c.16-.03.3-.04.43-.04.66,0,.96.32.96.61s-.3.61-.96.61c-.13,0-.28-.01-.43-.04l-.4-.07.07.4c.13.7-.06,1.05-.18,1.2-.11.13-.24.2-.39.2Z"/>
    <circle class="cls-1" cx="71.24" cy="71.51" r=".58"/>
    <circle class="cls-1" cx="62.74" cy="74.06" r=".58"/>
    <circle class="cls-1" cx="79.74" cy="75.76" r=".86"/>
    <circle class="cls-1" cx="76.34" cy="86.81" r=".58"/>
  </g>
</svg>