<?xml version="1.0" encoding="UTF-8"?>
<svg id="Capa_1" data-name="Capa 1" xmlns="http://www.w3.org/2000/svg" viewBox="0 0 496.23 144.73">
  <defs>
    <style>
      .cls-1 {
        fill: #edf0f4;
      }
    </style>
  </defs>
  <path class="cls-1" d="M423.86,144.73H72.37C32.46,144.73,0,112.27,0,72.37S32.46,0,72.37,0h351.5C463.77,0,496.23,32.46,496.23,72.37s-32.46,72.37-72.37,72.37ZM72.37,3C34.12,3,3,34.12,3,72.37s31.12,69.37,69.37,69.37h351.5c38.25,0,69.37-31.12,69.37-69.37S462.11,3,423.86,3H72.37Z"/>
  <g>
    <path class="cls-1" d="M144.68,79.2v14.26h-8.21v-43.2h17.35c10.73,0,15.99,4.9,15.99,14.54,0,8.21-5.54,14.4-15.7,14.4h-9.43ZM144.68,57.24v15.19h8.5c6.05,0,8.57-2.38,8.57-7.56s-2.23-7.63-8.64-7.63h-8.42Z"/>
    <path class="cls-1" d="M172.61,83.45l6.98-1.44c1.08,4.1,3.46,6.7,8.93,6.7,4.1,0,6.26-1.44,6.26-4.32,0-2.66-1.87-3.96-8.57-5.18-9-1.8-12.17-4.82-12.17-10.44,0-6.12,4.46-10.01,13.47-10.01s12.46,3.82,13.83,9.79l-6.98,1.51c-.94-4.18-2.95-5.76-6.98-5.76s-5.98,1.51-5.98,4.03c0,2.38,1.44,4.03,7.85,5.18,10.01,1.87,13.03,5.26,13.03,10.58,0,6.26-4.18,10.3-13.9,10.3-10.94,0-14.54-4.46-15.77-10.95Z"/>
    <path class="cls-1" d="M208.39,53.86v-6.26h8.42v6.26h-8.42ZM208.68,93.46v-33.84h7.78v33.84h-7.78Z"/>
    <path class="cls-1" d="M240,65.59c-5.54,0-9,3.53-9,10.95,0,6.84,3.17,11.02,9.22,11.02,5.47,0,7.34-3.38,8.35-7.49l7.13,1.73c-1.37,7.85-6.12,12.6-15.41,12.6-10.66,0-17.21-6.19-17.21-17.57s6.7-18.07,17.07-18.07c9.72,0,14.11,4.61,15.48,12.67l-7.27,1.37c-1.01-4.32-3.02-7.2-8.35-7.2Z"/>
    <path class="cls-1" d="M260.02,76.47c0-11.16,6.7-17.71,17.21-17.71s17.07,6.55,17.07,17.71-6.34,17.93-17.07,17.93-17.21-6.84-17.21-17.93ZM267.79,76.4c0,6.98,2.88,11.3,9.36,11.3s9.43-4.32,9.43-11.3-3.17-11.09-9.43-11.09-9.36,4.1-9.36,11.09Z"/>
    <path class="cls-1" d="M308.4,93.46h-7.78v-46.23h7.78v46.23Z"/>
    <path class="cls-1" d="M314.74,76.47c0-11.16,6.7-17.71,17.21-17.71s17.07,6.55,17.07,17.71-6.34,17.93-17.07,17.93-17.21-6.84-17.21-17.93ZM322.51,76.4c0,6.98,2.88,11.3,9.36,11.3s9.43-4.32,9.43-11.3-3.17-11.09-9.43-11.09-9.36,4.1-9.36,11.09Z"/>
    <path class="cls-1" d="M368.38,105.85c-12.82,0-16.56-2.74-16.56-7.06,0-2.95,3.17-5.11,7.78-6.12v-.29c-3.02-.58-4.61-2.16-4.61-4.54,0-1.8,1.44-3.38,3.82-4.54l2.59-1.44c-5.04-1.66-7.7-5.33-7.7-10.44,0-7.63,5.54-11.81,14.91-11.81h16.78v5.98h-3.89c-1.8,0-3.96-.14-6.84-.36l-.07.65c4.46.86,8.21,2.74,8.21,7.2,0,6.05-5.11,9.72-14.54,9.72-2.16,0-4.03-.22-5.69-.65l-.79,1.22c-.5.86-.86,1.44-.86,2.16,0,1.37,1.08,1.87,3.31,1.87,3.82,0,7.7-.07,11.38-.07,7.13,0,10.58,3.1,10.58,8.35,0,6.84-4.39,10.15-17.79,10.15ZM379.97,95.91c0-1.94-1.37-3.31-4.68-3.31h-11.88c-3.67,0-5.54,1.87-5.54,3.75,0,2.74,2.16,3.89,10.94,3.89s11.16-1.44,11.16-4.32ZM360.67,71.57c0,3.6,2.02,5.9,7.63,5.9s7.85-2.3,7.85-5.9-2.59-5.9-7.92-5.9-7.56,2.38-7.56,5.9Z"/>
    <path class="cls-1" d="M389.04,52.35l16.85-9.72,2.88,5.54-17.79,7.99-1.94-3.82ZM392.35,93.46v-33.84h7.78v33.84h-7.78Z"/>
    <path class="cls-1" d="M430.01,85.4h-.79c-1.73,5.47-5.62,8.79-11.59,8.79s-10.3-2.88-10.3-9.5c0-6.05,3.67-10.44,12.24-10.44h10.08v-2.3c0-4.39-1.8-6.91-6.55-6.91-3.96,0-6.26,2.02-7.13,5.98l-7.34-1.66c1.3-6.41,6.12-10.51,14.76-10.51,9.79,0,13.97,4.61,13.97,13.03v21.6h-7.34v-8.06ZM429.65,80.72v-1.37h-8.78c-3.89,0-6.12,1.44-6.12,4.25,0,2.45,1.51,4.54,5.9,4.54,5.4,0,9-3.17,9-7.42Z"/>
  </g>
  <path class="cls-1" d="M65.28,115.89c-24,0-43.52-19.52-43.52-43.52s19.52-43.52,43.52-43.52,43.52,19.52,43.52,43.52-19.52,43.52-43.52,43.52ZM65.28,30.85c-22.89,0-41.52,18.63-41.52,41.52s18.63,41.52,41.52,41.52,41.52-18.63,41.52-41.52-18.63-41.52-41.52-41.52Z"/>
  <g>
    <path class="cls-1" d="M63.83,64.84c1.62-.8,2.65-1.66,4.58-1.01,4.13,1.4,2.81,7.68-1.52,7.46-1.32-.07-1.91-.92-3.05-1.2v7.27h7.61c.75,0,1.47.82,1.55,1.55.21,1.92-1.91,2.87-.93,4.56,1.18,2.02,4.26.87,3.69-1.54-.13-.56-.69-1.01-.89-1.53-.58-1.5-.18-2.86,1.56-3.04,1.09-.11,3.65-.13,4.72,0,1.62.19.85,1.95.56,3-1.74,6.45-5.38,9.15-5.09,16.61.07,1.81,1.2,5.14-1.54,5.45h-16.55c-.71-.13-1.34-.56-1.57-1.27-.15-.49-.22-1.48-.26-2.03-.03-.47.17-2.21-.22-2.34-2.52.17-5.18,1.02-7.66,1.2-1.34.1-2.24-.02-3.3-.87-2.65-2.15-.97-4.73-1.07-7.41-.03-.8-.5-1.13-.55-1.63-.02-.23.17-.68.13-.72-.03-.03-.47-.1-.73-.42-.46-.56-.69-1.72-1.21-2.29-1.51-1.65-6.92-2.89-4.58-6.32,2.02-2.96,6.3-5.59,7.57-9,.92-2.45.68-5.26,1.64-7.78,1.71-4.47,6.94-7.65,11.45-8.62,1.06-.23,4.11-.72,5.02-.44.12.04.63.54.63.58v11.79ZM61.95,54.34c-5.29-.06-12.22,3.25-13.77,8.65-.63,2.18-.56,4.51-1.27,6.67-1.06,3.2-3.99,5.13-5.96,7.71h8.49c-.64-1.36-1.38-2.03-1.2-3.69.58-5.32,9.03-3.77,7.49,1.56-.24.82-.93,1.34-1.04,2.13h7.27v-7.48c0-.76.94-1.63,1.7-1.68,1.78-.12,2.79,2.08,4.62.86,1.71-1.14.58-3.98-1.48-3.64-1.2.2-1.67,1.42-3.42,1.15-.77-.12-1.42-.92-1.42-1.67v-10.57ZM61.95,79.26h-7.74c-.79,0-1.39-1.11-1.39-1.82,0-1.66,1.59-2.23,1.09-3.95-.46-1.6-2.81-1.86-3.62-.3-.92,1.78.72,2.32.88,3.85.13,1.26-.37,2.11-1.68,2.23h-10.24s-.32.22-.32.22c-.11.6-.05.81.4,1.18,1.22,1.03,3.5,1.79,4.41,3.13.35.51.57,1.43.96,1.87.45.51,1.92.83,1.66,1.79-.08.31-.4.51-.43.65-.03.16.3.67.35.95.23,1.3-.5,3.43-.52,4.82-.02,1.28,1.08,2.38,2.37,2.37,2.48-.03,5.74-1.27,8.24-1.35.92-.03,1.87.65,2.03,1.57.09.49.14,1.44.17,1.98.04.69-.04,1.4,0,2.09h3.37v-8.62c-.61-.02-1.03.56-1.56.79-2.67,1.16-5.56-.78-5.45-3.69.11-2.74,3.08-4.4,5.53-3.23.5.24.89.77,1.48.75v-7.27ZM71.24,79.26h-7.41v7.88c0,.37-.82,1.11-1.21,1.22-2.08.55-3.08-2.04-4.98-.81-1.21.79-1.22,2.56,0,3.35,1.92,1.25,2.87-1.36,4.98-.81.39.1,1.21.85,1.21,1.22v9.23h11.31c-.14-2.02-.53-4.25-.4-6.26.34-5.46,4.12-9.82,5.39-15.02h-3.64c.3,1.1,1.14,1.77,1.2,3.05.27,5.23-8.08,5.38-7.67-.16.09-1.25.79-1.81,1.22-2.89Z"/>
    <path class="cls-1" d="M87.14,69.15c.07.91.93,1.52,1.07,2.5.84,6.04-8.33,6.07-7.52,0,.14-1.05.98-1.55,1.07-2.5h-8.42c-.43,0-.7-.77-.74-1.14-.21-1.85-.17-6.07,0-7.95.15-1.69,1.41-2.25,2.93-1.71,1.03.37,1.26,1.16,2.63.94,1.83-.3,2.14-2.84.55-3.72s-2.47.84-4.02.93c-1.41.08-1.98-.63-2.1-1.95-.3-3.53.24-7.48,0-11.05.02-1.66,2.29-1.14,3.43-1.01,10.83,1.24,18.04,8.8,17.58,19.87-.06,1.38-.37,5.1-.88,6.26-.08.19-.36.54-.54.54h-5.05ZM74.47,44.24v10.51c1.63-.81,2.64-1.66,4.58-1.01,4.05,1.37,2.81,7.72-1.53,7.46-1.29-.08-1.94-.89-3.05-1.2v7.27h7.61c.8,0,1.5.92,1.55,1.69.12,1.72-1.51,2.37-1.12,3.95.53,2.17,3.62,1.9,3.94-.19.19-1.28-1.07-1.94-1.19-3.24-.31-3.26,3.93-1.92,5.9-2.22.64-3.79,1.04-8.14-.19-11.84-2.26-6.84-9.56-10.92-16.5-11.18Z"/>
  </g>
</svg>