<?xml version="1.0" encoding="UTF-8"?>
<svg id="Capa_1" data-name="Capa 1" xmlns="http://www.w3.org/2000/svg" viewBox="0 0 1182.21 144.73">
  <defs>
    <style>
      .cls-1 {
        fill: #edf0f4;
      }
    </style>
  </defs>
  <path class="cls-1" d="M1111.68,144.73H70.54C31.64,144.73,0,113.09,0,74.2v-3.66C0,31.64,31.64,0,70.54,0h1041.14c38.89,0,70.54,31.64,70.54,70.54v3.66c0,38.89-31.64,70.54-70.54,70.54ZM70.54,3C33.3,3,3,33.3,3,70.54v3.66c0,37.24,30.3,67.54,67.54,67.54h1041.14c37.24,0,67.54-30.3,67.54-67.54v-3.66c0-37.24-30.3-67.54-67.54-67.54H70.54Z"/>
  <g>
    <path class="cls-1" d="M160.27,82.45h-18.43l-3.74,11.02h-8.5l16.06-43.2h11.09l16.06,43.2h-8.78l-3.74-11.02ZM144,76.32h14.11l-1.8-5.33c-1.51-4.39-3.02-9.29-4.32-13.61h-1.8c-1.3,4.32-2.88,9.22-4.39,13.61l-1.8,5.33Z"/>
    <path class="cls-1" d="M196.49,94.4c-6.19,0-10.15-4.03-11.81-9.94h-.5v19.95h-7.7v-44.79h7.7v8.79h.5c1.8-5.83,5.54-9.65,11.67-9.65,7.99,0,12.46,6.34,12.46,17.86s-4.68,17.79-12.31,17.79ZM201.17,76.61c0-7.34-2.59-10.87-8.28-10.87-5.33,0-8.71,3.74-8.71,9.65v2.59c0,5.69,3.46,9.58,8.64,9.58,5.69,0,8.35-3.67,8.35-10.95Z"/>
    <path class="cls-1" d="M212.97,76.47c0-11.16,6.7-17.71,17.21-17.71s17.07,6.55,17.07,17.71-6.34,17.93-17.07,17.93-17.21-6.84-17.21-17.93ZM220.75,76.4c0,6.98,2.88,11.3,9.36,11.3s9.43-4.32,9.43-11.3-3.17-11.09-9.43-11.09-9.36,4.1-9.36,11.09Z"/>
    <path class="cls-1" d="M249.62,105.63l1.22-6.98c1.44.29,2.88.5,4.32.5,3.82,0,5.83-.94,8.06-6.05l-13.61-33.48h8.5l3.96,12.24c1.37,4.25,3.24,9.87,4.68,14.76h1.15c1.51-5.04,3.17-10.44,4.46-14.62l3.67-12.38h8.28l-13.97,34.28c-3.46,8.42-7.63,12.17-15.41,12.17-2.23,0-3.74-.21-5.33-.43Z"/>
    <path class="cls-1" d="M286.41,76.47c0-11.16,6.7-17.71,17.21-17.71s17.07,6.55,17.07,17.71-6.34,17.93-17.07,17.93-17.21-6.84-17.21-17.93ZM294.19,76.4c0,6.98,2.88,11.3,9.36,11.3s9.43-4.32,9.43-11.3-3.17-11.09-9.43-11.09-9.36,4.1-9.36,11.09Z"/>
    <path class="cls-1" d="M361.08,85.4h-.79c-1.73,5.47-5.62,8.78-11.59,8.78s-10.3-2.88-10.3-9.5c0-6.05,3.67-10.44,12.24-10.44h10.08v-2.3c0-4.39-1.8-6.91-6.55-6.91-3.96,0-6.26,2.02-7.13,5.98l-7.34-1.66c1.3-6.41,6.12-10.51,14.76-10.51,9.79,0,13.97,4.61,13.97,13.03v21.6h-7.34v-8.06ZM360.72,80.72v-1.37h-8.78c-3.89,0-6.12,1.44-6.12,4.25,0,2.45,1.51,4.54,5.9,4.54,5.4,0,9-3.17,9-7.42Z"/>
    <path class="cls-1" d="M390.16,50.26h31.18v7.13h-22.97v10.66h20.81v7.06h-20.81v11.23h22.9v7.13h-31.11v-43.2Z"/>
    <path class="cls-1" d="M425.58,83.45l6.98-1.44c1.08,4.1,3.46,6.7,8.93,6.7,4.1,0,6.26-1.44,6.26-4.32,0-2.66-1.87-3.96-8.57-5.18-9-1.8-12.17-4.82-12.17-10.44,0-6.12,4.46-10.01,13.47-10.01s12.46,3.82,13.83,9.79l-6.98,1.51c-.94-4.18-2.95-5.76-6.98-5.76s-5.98,1.51-5.98,4.03c0,2.38,1.44,4.03,7.85,5.18,10.01,1.87,13.03,5.26,13.03,10.59,0,6.26-4.18,10.3-13.9,10.3-10.94,0-14.54-4.46-15.77-10.95Z"/>
    <path class="cls-1" d="M463.17,65.88h-4.75v-6.26h4.75v-9.14h7.78v9.14h9.94v6.26h-9.94v16.2c0,3.31,1.22,5.04,4.61,5.04,1.73,0,3.24-.36,4.9-.86l.94,6.91c-2.52.79-4.25,1.22-7.63,1.22-7.42,0-10.58-4.9-10.58-11.23v-17.28Z"/>
    <path class="cls-1" d="M509.61,84.53h-.72c-1.87,6.26-6.19,9.87-11.81,9.87-7.13,0-10.51-4.82-10.51-12.17v-22.61h7.78v20.59c0,4.1,1.8,7.13,6.41,7.13,5.26,0,8.64-3.46,8.64-8.57v-19.15h7.78v33.84h-7.56v-8.93Z"/>
    <path class="cls-1" d="M547.91,84.53h-.5c-1.73,5.83-5.76,9.87-11.81,9.87-7.78,0-12.31-6.27-12.31-17.71s4.61-18,12.53-17.93c6.12-.07,9.86,3.82,11.59,9.72h.5v-21.24h7.7v46.23h-7.7v-8.93ZM547.91,78.05v-2.59c0-5.83-3.38-9.72-8.64-9.72-5.62,0-8.35,3.53-8.35,10.94s2.59,10.8,8.35,10.8c5.18,0,8.64-3.67,8.64-9.43Z"/>
    <path class="cls-1" d="M563.82,53.86v-6.26h8.42v6.26h-8.42ZM564.11,93.46v-33.84h7.78v33.84h-7.78Z"/>
    <path class="cls-1" d="M601.12,85.4h-.79c-1.73,5.47-5.62,8.78-11.59,8.78s-10.3-2.88-10.3-9.5c0-6.05,3.67-10.44,12.24-10.44h10.08v-2.3c0-4.39-1.8-6.91-6.55-6.91-3.96,0-6.26,2.02-7.13,5.98l-7.34-1.66c1.3-6.41,6.12-10.51,14.76-10.51,9.79,0,13.97,4.61,13.97,13.03v21.6h-7.34v-8.06ZM600.76,80.72v-1.37h-8.78c-3.89,0-6.12,1.44-6.12,4.25,0,2.45,1.51,4.54,5.9,4.54,5.4,0,9-3.17,9-7.42Z"/>
    <path class="cls-1" d="M624.01,93.46h-7.7v-33.84h7.56v8.93h.65c1.87-6.26,6.19-9.79,11.88-9.79,7.06,0,10.44,4.75,10.44,12.1v22.61h-7.7v-20.59c0-4.1-1.8-7.13-6.48-7.13-5.18,0-8.64,3.46-8.64,8.57v19.15Z"/>
    <path class="cls-1" d="M656.48,65.88h-4.75v-6.26h4.75v-9.14h7.78v9.14h9.94v6.26h-9.94v16.2c0,3.31,1.22,5.04,4.61,5.04,1.73,0,3.24-.36,4.9-.86l.94,6.91c-2.52.79-4.25,1.22-7.63,1.22-7.42,0-10.58-4.9-10.58-11.23v-17.28Z"/>
    <path class="cls-1" d="M678.23,76.97c0-11.45,6.48-18.22,17.07-18.22s15.19,6.19,15.19,15.48c0,1.3,0,2.81-.14,4.54h-24.41c.58,6.12,3.67,9.22,9.43,9.22,5.4,0,7.27-2.59,8.21-5.83l6.62,1.87c-1.58,6.12-5.83,10.3-14.91,10.3-10.37,0-17.07-6.05-17.07-17.35ZM686,73.59h17.35c-.29-5.83-2.88-8.86-8.28-8.86s-8.35,2.81-9.07,8.86Z"/>
    <path class="cls-1" d="M714.37,83.45l6.98-1.44c1.08,4.1,3.46,6.7,8.93,6.7,4.1,0,6.26-1.44,6.26-4.32,0-2.66-1.87-3.96-8.57-5.18-9-1.8-12.17-4.82-12.17-10.44,0-6.12,4.46-10.01,13.47-10.01s12.46,3.82,13.83,9.79l-6.98,1.51c-.94-4.18-2.95-5.76-6.98-5.76s-5.98,1.51-5.98,4.03c0,2.38,1.44,4.03,7.85,5.18,10.01,1.87,13.03,5.26,13.03,10.59,0,6.26-4.18,10.3-13.9,10.3-10.94,0-14.54-4.46-15.77-10.95Z"/>
    <path class="cls-1" d="M786.3,84.53h-.5c-1.73,5.83-5.76,9.87-11.81,9.87-7.78,0-12.31-6.27-12.31-17.71s4.61-18,12.53-17.93c6.12-.07,9.86,3.82,11.59,9.72h.5v-21.24h7.7v46.23h-7.7v-8.93ZM786.3,78.05v-2.59c0-5.83-3.38-9.72-8.64-9.72-5.62,0-8.35,3.53-8.35,10.94s2.59,10.8,8.35,10.8c5.18,0,8.64-3.67,8.64-9.43Z"/>
    <path class="cls-1" d="M800.12,76.97c0-11.45,6.48-18.22,17.07-18.22s15.19,6.19,15.19,15.48c0,1.3,0,2.81-.14,4.54h-24.41c.58,6.12,3.67,9.22,9.43,9.22,5.4,0,7.27-2.59,8.21-5.83l6.62,1.87c-1.58,6.12-5.83,10.3-14.91,10.3-10.37,0-17.07-6.05-17.07-17.35ZM807.9,73.59h17.35c-.29-5.83-2.88-8.86-8.28-8.86s-8.35,2.81-9.07,8.86Z"/>
    <path class="cls-1" d="M860.17,93.46h-7.63v-43.2h13.47l6.7,18.65c1.08,2.81,2.95,8.64,4.32,13.61h1.15c1.44-4.97,3.17-10.66,4.32-13.9l6.84-18.36h12.6v43.2h-8.21v-20.02c0-5.04.22-11.45.36-16.49h-1.22c-1.51,5.47-3.53,12.03-5.76,18l-6.26,16.06h-7.99l-6.05-16.35c-2.23-6.34-4.03-12.38-5.47-17.71h-1.22c.14,5.04.07,11.3.07,16.49v20.02Z"/>
    <path class="cls-1" d="M908.34,76.97c0-11.45,6.48-18.22,17.07-18.22s15.19,6.19,15.19,15.48c0,1.3,0,2.81-.14,4.54h-24.41c.58,6.12,3.67,9.22,9.43,9.22,5.4,0,7.27-2.59,8.21-5.83l6.62,1.87c-1.58,6.12-5.83,10.3-14.91,10.3-10.37,0-17.07-6.05-17.07-17.35ZM916.11,73.59h17.35c-.29-5.83-2.88-8.86-8.28-8.86s-8.35,2.81-9.07,8.86Z"/>
    <path class="cls-1" d="M969.54,84.53h-.5c-1.73,5.83-5.76,9.87-11.81,9.87-7.78,0-12.31-6.27-12.31-17.71s4.61-18,12.53-17.93c6.12-.07,9.86,3.82,11.59,9.72h.5v-21.24h7.7v46.23h-7.7v-8.93ZM969.54,78.05v-2.59c0-5.83-3.38-9.72-8.64-9.72-5.62,0-8.35,3.53-8.35,10.94s2.59,10.8,8.35,10.8c5.18,0,8.64-3.67,8.64-9.43Z"/>
    <path class="cls-1" d="M985.45,53.86v-6.26h8.42v6.26h-8.42ZM985.74,93.46v-33.84h7.78v33.84h-7.78Z"/>
    <path class="cls-1" d="M1017.06,65.6c-5.54,0-9,3.53-9,10.95,0,6.84,3.17,11.02,9.22,11.02,5.47,0,7.34-3.38,8.35-7.49l7.13,1.73c-1.37,7.85-6.12,12.6-15.41,12.6-10.66,0-17.21-6.19-17.21-17.57s6.7-18.07,17.07-18.07c9.72,0,14.11,4.61,15.48,12.67l-7.27,1.37c-1.01-4.32-3.02-7.2-8.35-7.2Z"/>
    <path class="cls-1" d="M1039.16,53.86v-6.26h8.42v6.26h-8.42ZM1039.45,93.46v-33.84h7.78v33.84h-7.78Z"/>
    <path class="cls-1" d="M1063.49,93.46h-7.7v-33.84h7.56v8.93h.65c1.87-6.26,6.19-9.79,11.88-9.79,7.06,0,10.44,4.75,10.44,12.1v22.61h-7.7v-20.59c0-4.1-1.8-7.13-6.48-7.13-5.18,0-8.64,3.46-8.64,8.57v19.15Z"/>
    <path class="cls-1" d="M1114.68,85.4h-.79c-1.73,5.47-5.62,8.78-11.59,8.78s-10.3-2.88-10.3-9.5c0-6.05,3.67-10.44,12.24-10.44h10.08v-2.3c0-4.39-1.8-6.91-6.55-6.91-3.96,0-6.26,2.02-7.13,5.98l-7.34-1.66c1.3-6.41,6.12-10.51,14.76-10.51,9.79,0,13.97,4.61,13.97,13.03v21.6h-7.34v-8.06ZM1114.32,80.72v-1.37h-8.78c-3.89,0-6.12,1.44-6.12,4.25,0,2.45,1.51,4.54,5.9,4.54,5.4,0,9-3.17,9-7.42Z"/>
  </g>
  <path class="cls-1" d="M65.28,115.89c-24,0-43.52-19.52-43.52-43.52s19.52-43.52,43.52-43.52,43.52,19.52,43.52,43.52-19.52,43.52-43.52,43.52ZM65.28,30.85c-22.89,0-41.52,18.63-41.52,41.52s18.63,41.52,41.52,41.52,41.52-18.63,41.52-41.52-18.63-41.52-41.52-41.52Z"/>
  <g>
    <path class="cls-1" d="M90.75,90.65c-.03-.14-.39-.55-.45-.55h-1.49l-.15-.34v-27.08c-.14-1.49-1.86-3.05-3.33-3.05h-1.94c.4-.89.37-1.64-.01-2.52-.49-1.13-1.3-1.41-2.31-1.97-2.82-1.59-5.75-2.91-8.55-4.53-.04-.02-.07-.02-.11-.04l-3.07-1.66c-.19-.11-.41-.23-.65-.35l-.33-.18h0c-.68-.34-1.38-.66-1.61-.72-1.27-.35-2.54-.22-3.73.31-4.93,2.18-9.76,5.54-14.7,7.8-1.27.81-1.83,2.47-1.16,3.87h-1.94c-1.46,0-3.2,1.57-3.32,3.05v27.08s-.16.34-.16.34h-1.49s-.31.37-.45.4v2.59l.32,1.12c.63,1.63,2.18,2.83,3.91,3.06h42.51c2.32-.31,4.05-2.2,4.24-4.53.03-.45.07-1.7,0-2.09ZM49.03,57.1l14.76-7.84c.96-.43,1.96-.38,2.92,0,.44.17,1.37.78,2.06,1.09l4.37,2.31h0l8.03,4.25c.65.39,1.12.93.96,1.74-.15.73-.6.97-1.18,1.31-2.6,1.52-5.63,3.04-8.33,4.42-.18.09-.67.38-.83.35l-5.93-6.83c-.7-.62-1.57-.05-1.24.85l5.82,6.63-.16.23c-2.03.85-4.02,2.91-6.38,1.93l-14.96-7.94c-.82-.79-.81-1.77.1-2.48ZM50.27,86.62h-3.44v-22.01h6.67v3.63c0,2.67,2.61,5.05,4.93,5.93,3.97,1.5,8.44,1.57,12.5.4.14,1.85-2,3.02-1.79,4.93.25,2.28,3.8,2.66,4.8.82,1.28-2.38-2.09-3.93-1.5-6.33,1.82-.55,3.46-2.23,4.12-4,.12-.33.45-1.45.45-1.74v-3.63h6.67v22.01h-33.41ZM70.93,72.93c-2.46.96-5.37,1.15-8,.83-2.13-.25-5.2-1.05-6.64-2.72-.52-.61-1.29-2.1-1.29-2.89v-3.63l8.33,4.37c2.84,1.35,5.13-.88,7.6-1.88v5.92ZM71.68,77.16c.4.65,1.88,2.54.39,2.78-2.4.39-1.17-1.78-.39-2.78ZM72.43,72.38v-6.27l3.09-1.59v3.63c0,.28-.32,1.24-.45,1.54-.48,1.15-1.49,2.2-2.64,2.69ZM43.35,62.77c.36-2.17,3.6-1.57,5.13-1.65l3.83,1.99h-6.32c-.32,0-.73.49-.65.84v23.5c.08.42.36.59.76.64.63.09,2.83.1,3.72.01h34.41c.36,0,.78-.12.9-.5l.05-23.66c.08-.35-.33-.84-.65-.84h-6.32l3.83-1.99c1.45.15,3.73-.49,4.73.85.09.12.4.7.4.8v27.33h-43.81v-27.33ZM69.84,91.6c-.33.81-.87,1.23-1.74,1.3-1.95.14-4.09-.1-6.06-.03-.51-.09-1.27-.75-1.37-1.27h9.16ZM86.67,95.73l-42.57.05c-2.05-.35-3.08-2.2-2.84-4.18h17.77c.5,1.49,1.53,2.67,3.18,2.79,1.23.09,5.86.17,6.85-.13,1.28-.39,1.99-1.46,2.42-2.66h17.77c.22,1.89-.68,3.66-2.58,4.14Z"/>
    <path class="cls-1" d="M64.52,84.63c1.04.11,1.38-1.37.3-1.5h-15.14c-.61.06-.83.85-.42,1.27.15.15.5.21.71.23,4.62.42,9.86-.33,14.55,0Z"/>
    <path class="cls-1" d="M49.77,81.44c3.1.36,6.89-.27,10.06,0,.97-.1.84-1.45-.1-1.5l-10.14.02c-.84.3-.73,1.37.18,1.47Z"/>
  </g>
</svg>