<?xml version="1.0" encoding="UTF-8"?>
<svg id="Capa_1" data-name="Capa 1" xmlns="http://www.w3.org/2000/svg" viewBox="0 0 1012.13 144.73">
  <defs>
    <style>
      .cls-1 {
        fill: #edf0f4;
      }
    </style>
  </defs>
  <path class="cls-1" d="M939.77,144.73H72.37C32.46,144.73,0,112.27,0,72.37S32.46,0,72.37,0h867.4C979.67,0,1012.13,32.46,1012.13,72.37s-32.46,72.37-72.37,72.37ZM72.37,3C34.12,3,3,34.12,3,72.37s31.12,69.37,69.37,69.37h867.4c38.25,0,69.37-31.12,69.37-69.37S978.02,3,939.77,3H72.37Z"/>
  <g>
    <path class="cls-1" d="M163.01,93.46v-17.86h-20.88v17.86h-8.21v-43.2h8.21v18h20.88v-18h8.21v43.2h-8.21Z"/>
    <path class="cls-1" d="M177.69,76.97c0-11.45,6.48-18.22,17.07-18.22s15.19,6.19,15.19,15.48c0,1.3,0,2.81-.14,4.54h-24.41c.58,6.12,3.67,9.22,9.43,9.22,5.4,0,7.27-2.59,8.21-5.83l6.62,1.87c-1.58,6.12-5.83,10.3-14.91,10.3-10.37,0-17.07-6.05-17.07-17.35ZM185.47,73.59h17.35c-.29-5.83-2.88-8.86-8.28-8.86s-8.35,2.81-9.07,8.86Z"/>
    <path class="cls-1" d="M216.21,93.46v-33.84h7.34v10.15l.65.07c1.94-8.21,5.11-10.58,10.01-10.58h1.22v8.71h-1.87c-7.13,0-9.65,2.52-9.65,9.43v16.06h-7.7Z"/>
    <path class="cls-1" d="M240.69,93.46v-33.84h7.34v10.15l.65.07c1.94-8.21,5.11-10.58,10.01-10.58h1.22v8.71h-1.87c-7.13,0-9.65,2.52-9.65,9.43v16.06h-7.7Z"/>
    <path class="cls-1" d="M285.84,85.4h-.79c-1.73,5.47-5.62,8.79-11.59,8.79s-10.3-2.88-10.3-9.51c0-6.05,3.67-10.44,12.24-10.44h10.08v-2.3c0-4.39-1.8-6.91-6.55-6.91-3.96,0-6.26,2.02-7.13,5.98l-7.34-1.66c1.3-6.41,6.12-10.51,14.76-10.51,9.79,0,13.97,4.61,13.97,13.03v21.6h-7.34v-8.06ZM285.48,80.72v-1.37h-8.78c-3.89,0-6.12,1.44-6.12,4.25,0,2.45,1.51,4.54,5.9,4.54,5.4,0,9-3.17,9-7.42Z"/>
    <path class="cls-1" d="M308.73,93.46h-7.7v-33.84h7.56v8.93h.65c1.87-6.34,6.12-9.79,11.88-9.79,6.34,0,9.5,3.89,10.01,10.15h.79c1.66-6.48,5.62-10.15,11.88-10.15,7.13,0,10.58,4.75,10.58,12.1v22.61h-7.78v-20.59c0-4.1-1.87-7.13-6.41-7.13-5.33,0-8.64,3.46-8.64,8.57v19.15h-7.7v-20.59c0-4.1-1.94-7.13-6.48-7.13-5.18,0-8.64,3.46-8.64,8.57v19.15Z"/>
    <path class="cls-1" d="M362.3,53.86v-6.26h8.42v6.26h-8.42ZM362.59,93.46v-33.84h7.78v33.84h-7.78Z"/>
    <path class="cls-1" d="M376.99,76.97c0-11.45,6.48-18.22,17.07-18.22s15.19,6.19,15.19,15.48c0,1.3,0,2.81-.14,4.54h-24.41c.58,6.12,3.67,9.22,9.43,9.22,5.4,0,7.27-2.59,8.21-5.83l6.62,1.87c-1.58,6.12-5.83,10.3-14.91,10.3-10.37,0-17.07-6.05-17.07-17.35ZM384.76,73.59h17.35c-.29-5.83-2.88-8.86-8.28-8.86s-8.35,2.81-9.07,8.86Z"/>
    <path class="cls-1" d="M423.21,93.46h-7.7v-33.84h7.56v8.93h.65c1.87-6.26,6.19-9.79,11.88-9.79,7.06,0,10.44,4.75,10.44,12.1v22.61h-7.7v-20.59c0-4.1-1.8-7.13-6.48-7.13-5.18,0-8.64,3.46-8.64,8.57v19.15Z"/>
    <path class="cls-1" d="M455.68,65.88h-4.75v-6.26h4.75v-9.15h7.78v9.15h9.94v6.26h-9.94v16.2c0,3.31,1.22,5.04,4.61,5.04,1.73,0,3.24-.36,4.9-.87l.94,6.91c-2.52.79-4.25,1.22-7.63,1.22-7.42,0-10.58-4.9-10.58-11.23v-17.28Z"/>
    <path class="cls-1" d="M500.03,85.4h-.79c-1.73,5.47-5.62,8.79-11.59,8.79s-10.3-2.88-10.3-9.51c0-6.05,3.67-10.44,12.24-10.44h10.08v-2.3c0-4.39-1.8-6.91-6.55-6.91-3.96,0-6.26,2.02-7.13,5.98l-7.34-1.66c1.3-6.41,6.12-10.51,14.76-10.51,9.79,0,13.97,4.61,13.97,13.03v21.6h-7.34v-8.06ZM499.67,80.72v-1.37h-8.78c-3.89,0-6.12,1.44-6.12,4.25,0,2.45,1.51,4.54,5.9,4.54,5.4,0,9-3.17,9-7.42Z"/>
    <path class="cls-1" d="M512.85,83.45l6.98-1.44c1.08,4.1,3.46,6.7,8.93,6.7,4.1,0,6.26-1.44,6.26-4.32,0-2.66-1.87-3.96-8.57-5.19-9-1.8-12.17-4.82-12.17-10.44,0-6.12,4.46-10.01,13.47-10.01s12.46,3.82,13.83,9.79l-6.98,1.51c-.94-4.18-2.95-5.76-6.98-5.76s-5.98,1.51-5.98,4.03c0,2.38,1.44,4.03,7.85,5.19,10.01,1.87,13.03,5.26,13.03,10.58,0,6.27-4.18,10.3-13.9,10.3-10.94,0-14.54-4.46-15.77-10.94Z"/>
    <path class="cls-1" d="M559.07,50.26h34.85v7.56h-13.32v35.64h-8.21v-35.64h-13.32v-7.56Z"/>
    <path class="cls-1" d="M594.13,76.97c0-11.45,6.48-18.22,17.07-18.22s15.19,6.19,15.19,15.48c0,1.3,0,2.81-.14,4.54h-24.41c.58,6.12,3.67,9.22,9.43,9.22,5.4,0,7.27-2.59,8.21-5.83l6.62,1.87c-1.58,6.12-5.83,10.3-14.91,10.3-10.37,0-17.07-6.05-17.07-17.35ZM601.91,73.59h17.35c-.29-5.83-2.88-8.86-8.28-8.86s-8.35,2.81-9.07,8.86Z"/>
    <path class="cls-1" d="M647.63,65.6c-5.54,0-9,3.53-9,10.94,0,6.84,3.17,11.02,9.22,11.02,5.47,0,7.34-3.38,8.35-7.49l7.13,1.73c-1.37,7.85-6.12,12.6-15.41,12.6-10.66,0-17.21-6.19-17.21-17.57s6.7-18.07,17.07-18.07c9.72,0,14.11,4.61,15.48,12.67l-7.27,1.37c-1.01-4.32-3.02-7.2-8.35-7.2Z"/>
    <path class="cls-1" d="M677.29,93.46h-7.7v-33.84h7.56v8.93h.65c1.87-6.26,6.19-9.79,11.88-9.79,7.06,0,10.44,4.75,10.44,12.1v22.61h-7.7v-20.59c0-4.1-1.8-7.13-6.48-7.13-5.18,0-8.64,3.46-8.64,8.57v19.15Z"/>
    <path class="cls-1" d="M705.87,76.47c0-11.16,6.7-17.71,17.21-17.71s17.07,6.55,17.07,17.71-6.34,17.93-17.07,17.93-17.21-6.84-17.21-17.93ZM713.65,76.4c0,6.98,2.88,11.3,9.36,11.3s9.43-4.32,9.43-11.3-3.17-11.09-9.43-11.09-9.36,4.1-9.36,11.09Z"/>
    <path class="cls-1" d="M754.26,93.46h-7.78v-46.23h7.78v46.23Z"/>
    <path class="cls-1" d="M760.59,76.47c0-11.16,6.7-17.71,17.21-17.71s17.07,6.55,17.07,17.71-6.34,17.93-17.07,17.93-17.21-6.84-17.21-17.93ZM768.37,76.4c0,6.98,2.88,11.3,9.36,11.3s9.43-4.32,9.43-11.3-3.17-11.09-9.43-11.09-9.36,4.1-9.36,11.09ZM770.53,52.35l16.85-9.72,2.88,5.54-17.79,7.99-1.94-3.82Z"/>
    <path class="cls-1" d="M814.24,105.85c-12.82,0-16.56-2.74-16.56-7.06,0-2.95,3.17-5.11,7.78-6.12v-.29c-3.02-.58-4.61-2.16-4.61-4.54,0-1.8,1.44-3.38,3.82-4.54l2.59-1.44c-5.04-1.66-7.7-5.33-7.7-10.44,0-7.63,5.54-11.81,14.91-11.81h16.78v5.98h-3.89c-1.8,0-3.96-.14-6.84-.36l-.07.65c4.46.86,8.21,2.74,8.21,7.2,0,6.05-5.11,9.72-14.54,9.72-2.16,0-4.03-.22-5.69-.65l-.79,1.22c-.5.86-.86,1.44-.86,2.16,0,1.37,1.08,1.87,3.31,1.87,3.82,0,7.7-.07,11.38-.07,7.13,0,10.58,3.1,10.58,8.35,0,6.84-4.39,10.15-17.79,10.15ZM825.83,95.91c0-1.94-1.37-3.31-4.68-3.31h-11.88c-3.67,0-5.54,1.87-5.54,3.75,0,2.74,2.16,3.89,10.94,3.89s11.16-1.44,11.16-4.32ZM806.53,71.57c0,3.6,2.02,5.9,7.63,5.9s7.85-2.3,7.85-5.9-2.59-5.91-7.92-5.91-7.56,2.38-7.56,5.91Z"/>
    <path class="cls-1" d="M837.2,53.86v-6.26h8.42v6.26h-8.42ZM837.49,93.46v-33.84h7.78v33.84h-7.78Z"/>
    <path class="cls-1" d="M868.81,65.6c-5.54,0-9,3.53-9,10.94,0,6.84,3.17,11.02,9.22,11.02,5.47,0,7.34-3.38,8.35-7.49l7.13,1.73c-1.37,7.85-6.12,12.6-15.41,12.6-10.66,0-17.21-6.19-17.21-17.57s6.7-18.07,17.07-18.07c9.72,0,14.11,4.61,15.48,12.67l-7.27,1.37c-1.01-4.32-3.02-7.2-8.35-7.2Z"/>
    <path class="cls-1" d="M911.43,85.4h-.79c-1.73,5.47-5.62,8.79-11.59,8.79s-10.3-2.88-10.3-9.51c0-6.05,3.67-10.44,12.24-10.44h10.08v-2.3c0-4.39-1.8-6.91-6.55-6.91-3.96,0-6.26,2.02-7.13,5.98l-7.34-1.66c1.3-6.41,6.12-10.51,14.76-10.51,9.79,0,13.97,4.61,13.97,13.03v21.6h-7.34v-8.06ZM911.07,80.72v-1.37h-8.78c-3.89,0-6.12,1.44-6.12,4.25,0,2.45,1.51,4.54,5.9,4.54,5.4,0,9-3.17,9-7.42Z"/>
    <path class="cls-1" d="M924.25,83.45l6.98-1.44c1.08,4.1,3.46,6.7,8.93,6.7,4.1,0,6.26-1.44,6.26-4.32,0-2.66-1.87-3.96-8.57-5.19-9-1.8-12.17-4.82-12.17-10.44,0-6.12,4.46-10.01,13.47-10.01s12.46,3.82,13.83,9.79l-6.98,1.51c-.94-4.18-2.95-5.76-6.98-5.76s-5.98,1.51-5.98,4.03c0,2.38,1.44,4.03,7.85,5.19,10.01,1.87,13.03,5.26,13.03,10.58,0,6.27-4.18,10.3-13.9,10.3-10.94,0-14.54-4.46-15.77-10.94Z"/>
  </g>
  <path class="cls-1" d="M65.28,115.89c-24,0-43.52-19.52-43.52-43.52s19.52-43.52,43.52-43.52,43.52,19.52,43.52,43.52-19.52,43.52-43.52,43.52ZM65.28,30.85c-22.89,0-41.52,18.63-41.52,41.52s18.63,41.52,41.52,41.52,41.52-18.63,41.52-41.52-18.63-41.52-41.52-41.52Z"/>
  <g>
    <path class="cls-1" d="M71.56,82.79c.73.12,1.28.83,1.51,1.49.67,1.97.71,4.62,1.36,6.59.07.22.11.45.33.58l3.25.05c.7-3.45,5.66-3.74,6.73-.37,1.46,4.6-5.58,6.56-6.73,1.84-1.76-.16-4.19.61-4.87-1.58-.63-2-.66-4.81-1.37-6.71-.4-1.06-2.87-.43-3.82-.57l-.2.19c.27,1.53-1.03,1.31-2.17,1.22-4.3-.35-8.52-3.53-10.39-7.34-3.49-7.13.22-15.97,7.74-18.37.92-.3,3.73-.94,4.53-.55.51.25.03,1.2.47,1.35,1.08-.17,3.44.57,3.85-.68.67-2.03.68-4.85,1.42-6.79s3.18-1.23,4.8-1.39c.76-3.45,5.76-3.69,6.76-.27,1.34,4.6-5.68,6.42-6.76,1.74l-3.25.05c-.21.14-.26.37-.33.58-.64,1.96-.67,5.13-1.43,6.91-.14.33-1,1.17-1.3,1.17h-3.78l-.2.2v4.04l.2.2h6.39c.85-1.43,1.04-3.7,1.79-5.12.14-.27.53-.65.81-.76.89-.35,5.35.07,5.54-.13.56-3.48,5.67-3.78,6.69-.36,1.37,4.58-5.55,6.49-6.77,1.79l-5.01.07c-.22.15-1.34,4.25-1.71,4.94-.15.29-.65.86-.96.86h-6.78l-.2.2v3.65l.2.2h18.84c.48-2.88,4.19-3.85,6.06-1.57,2.21,2.69-.38,6.52-3.72,5.54-1.34-.39-2-1.46-2.54-2.67h-18.64l-.2.2v3.65l.2.2h6.78c.31,0,.81.57.96.86.36.69,1.48,4.79,1.71,4.94l5.01.07c1.23-4.68,8.13-2.76,6.77,1.79-1.03,3.45-6.11,3.15-6.69-.36-.2-.2-4.66.22-5.54-.13-.28-.11-.67-.49-.81-.76-.75-1.42-.94-3.69-1.79-5.12h-6.39l-.2.2v4.24c1.17.14,2.73-.18,3.85,0ZM83.53,52.5c0-1.17-.95-2.12-2.12-2.12s-2.12.95-2.12,2.12.95,2.12,2.12,2.12,2.12-.95,2.12-2.12ZM87.92,61.05c0-1.17-.95-2.11-2.11-2.11s-2.11.95-2.11,2.11.95,2.11,2.11,2.11,2.11-.95,2.11-2.11ZM66.41,60.5c-5.58.39-10.26,4.55-11.06,10.12-1.01,6.95,4.12,13.13,11.06,13.6v-23.73ZM92.23,72.37c0-1.17-.95-2.11-2.11-2.11s-2.11.95-2.11,2.11.95,2.11,2.11,2.11,2.11-.95,2.11-2.11ZM87.92,83.69c0-1.17-.95-2.11-2.11-2.11s-2.11.95-2.11,2.11.95,2.11,2.11,2.11,2.11-.95,2.11-2.11ZM83.52,92.24c0-1.17-.95-2.12-2.12-2.12s-2.12.95-2.12,2.12.95,2.12,2.12,2.12,2.12-.95,2.12-2.12Z"/>
    <path class="cls-1" d="M67.55,42.54l.1,12.35c-.52.64-1.38.31-2.08.39-20.83,2.43-20.45,31.93-.13,34.15.56.06,2.04-.23,2.25.48l-.06,12.13c-.1.25-.39.27-.63.29-.88.09-3.2.12-4.05,0-.41-.05-.57-.22-.71-.6-.34-.93-.63-5.69-1.05-5.99-1.11-.28-2.19-.62-3.25-1.05-1.19-.48-2.27-1.15-3.45-1.63-.83.37-4.61,3.72-5.19,3.64-.7-.1-5.42-5.5-6.41-6.25l-.17-.43,3.7-5.18c-1.27-2.08-2.13-4.37-2.81-6.71-.35-.31-4.76-.67-5.64-.88-.67-.16-.82-.39-.89-1.07-.16-1.82-.2-6.05,0-7.83.06-.53.26-.78.78-.92.84-.22,5.55-.61,5.81-.97.57-2.37,1.57-4.6,2.77-6.71-.02-.28-2.99-3.8-3.4-4.51-.14-.23-.36-.49-.29-.77l6.14-6.25.71-.2,4.71,3.52.42.05c2.05-1.22,4.26-2.07,6.55-2.72.32-.37.67-4.69.91-5.61.13-.5.19-.84.78-.91.88-.11,3-.07,3.92,0,.24.02.48.02.68.17ZM66.41,43.82h-3c-.22,1.69-.35,3.58-.69,5.24-.05.22-.07.58-.16.75-.22.42-1.96.69-2.51.88-1.79.61-3.52,1.43-5.12,2.44-.14.08-.29.09-.45.09-.82-.04-4.67-3.59-5.07-3.52l-4.98,4.94v.26c.52.92,3.36,4,3.46,4.77.02.16.03.32-.03.48-.6,1-1.23,2.07-1.69,3.14-.64,1.49-.93,3.09-1.6,4.53l-6.07.9v7.23s5.9.89,5.9.89c.24.08.32.29.42.49.51,1.07.78,2.79,1.31,4.04.45,1.07,1.07,2.15,1.68,3.14l-.08.95-3.31,4.39.06.33,4.91,4.87c.4.07,4.25-3.48,5.07-3.52.16,0,.31,0,.45.09,1.6,1.01,3.33,1.83,5.12,2.44.55.19,2.29.46,2.51.88.09.18.11.53.16.75.34,1.66.47,3.55.69,5.24h3v-10.04c-11.19-.49-19.42-10.55-17.56-21.67,1.44-8.56,8.91-15.01,17.56-15.36v-10.04Z"/>
  </g>
</svg>