<?xml version="1.0" encoding="UTF-8"?>
<svg id="Capa_2" data-name="Capa 2" xmlns="http://www.w3.org/2000/svg" viewBox="0 0 51.02 48.88">
  <defs>
    <style>
      .cls-1 {
        fill: #edf0f4;
      }
    </style>
  </defs>
  <g id="Capa_1-2" data-name="Capa 1">
    <g>
      <path class="cls-1" d="M47.43,39.8h3.14c.13,0,.34.39.37.56.12.93.09,3.47,0,4.44-.21,2.19-2.19,3.99-4.38,4.08h-28.36c-1.88-.11-3.65-1.44-4.17-3.26-.15-.54-.51-1.97.36-2.02.85-.04.61.81.72,1.36.65,3.37,5.47,3.65,6.48.38.49-1.58-.11-3.58.18-5.08.03-.13.29-.47.36-.47h24.08V3.76c0-.85-1.75-2.53-2.63-2.53H13.61c.63.65,1.1,1.35,1.31,2.25.31,8.07.05,16.21.13,24.31-.11,1.02-1.24.57-1.24.1V9.38h-7.48c-.3,0-.35-.44-.37-.67-.1-1.16-.13-4.5.16-5.52C6.64,1.49,8.22.26,9.96,0h33.29c1.75-.05,4.18,2.13,4.18,3.86v35.93ZM13.82,8.25V3.87c0-.14-.4-.96-.51-1.14C11.57-.04,7.12,1.4,7.12,4.28v3.82l.15.15h6.55ZM49.7,40.93h-26.65l-.15.15v4.12c0,.23-.45,1.21-.6,1.46-.21.35-.51.63-.74.96h25.52c.92,0,2.63-1.71,2.63-2.63v-4.07Z"/>
      <path class="cls-1" d="M2.79,37.12c2.2.46,2.08,3.76-.1,4.18-2.78.53-3.79-3.27-1.16-4.2l-.08-2.92c-.71-.12-1.77-.44-1.09-1.29l11.98-3.81,12.18,3.84c.27.49.15.77-.33,1.01-.64.32-4.23,1.17-4.38,1.35-.14.82.2,5.58-.14,5.94-.2.21-1.92.63-2.33.72-3.55.78-7.49.74-10.99-.29-.61-.18-1.32-.22-1.4-.97s.14-5.18-.01-5.4l-2.15-.63v2.47ZM21.96,33.31l-9.54-2.98-9.64,3.03,9.63,3.01,8.09-2.52,1.47-.54ZM18.67,35.68l-6.33,1.93-6.15-1.93v4.59c.48.29,1.17.41,1.73.53,3.47.75,7.41.64,10.74-.53v-4.59ZM3.19,39.16c0-.55-.45-1-1-1s-1,.45-1,1,.45,1,1,1,1-.45,1-1Z"/>
      <path class="cls-1" d="M39.2,11.84c0,4.72-3.83,8.55-8.55,8.55s-8.55-3.83-8.55-8.55,3.83-8.55,8.55-8.55,8.55,3.83,8.55,8.55ZM37.99,11.84c0-4.06-3.29-7.35-7.35-7.35s-7.35,3.29-7.35,7.35,3.29,7.35,7.35,7.35,7.35-3.29,7.35-7.35Z"/>
      <path class="cls-1" d="M36.92,21.55c-.12.12-.64,2.8-.88,3.3-.12.26-.29.47-.6.49-.16-.07-.37-.12-.49-.26-.23-.28-1.59-2.61-1.74-2.98-.27-.68.19-1.23.81-.92.28.14,1.08,1.95,1.18,1.91.43-.58.47-2.44,1.05-2.77.46-.26,2.18.56,2.82.51.1-.09-1.05-1.75-1.11-2.03-.16-.78.54-1.16,1.06-.54.24.71,2.01,3,2.01,3.55,0,.15-.17.45-.3.52-.61.29-3.04-.67-3.81-.77Z"/>
      <path class="cls-1" d="M22.17,20.93c.92-.21,1.94-.69,2.88-.56.44.2.74,2.3.93,2.83l1.34-2.01c.49-.22.92.22.82.71l-1.81,3.15c-.38.49-.9.34-1.13-.2-.2-.46-.74-3.2-.88-3.3l-3.39.87c-.61,0-.77-.44-.57-.97l1.96-3.3c.33-.44.99-.06,1.06.38.06.4-1.37,2.22-1.22,2.4Z"/>
      <path class="cls-1" d="M44.01,29.51c.33.33.06,1.03-.43,1.01l-15.17-.1c-.31-.31-.31-.63,0-.94l15.07-.1c.16.01.42.02.54.13Z"/>
      <path class="cls-1" d="M44.01,32.81c.33.33.06,1.03-.43,1.01h-14.75c-.6-.01-.85-.63-.42-1.04l15.07-.1c.16.01.42.02.54.13Z"/>
      <path class="cls-1" d="M33.59,35.91c3.11.19,6.72-.34,9.77-.02.72.07,1.07.58.52,1.14l-10.32.1c-.8-.1-.73-1.14.03-1.22Z"/>
      <path class="cls-1" d="M33.9,8.88c.57-.11.96.7.48,1.11l-4.71,4.67c-.28.12-.49.13-.75-.02-.13-.08-2.09-2.03-2.16-2.17-.21-.45.14-.99.65-.86s1.65,1.72,1.91,1.68c.85-.55,3.91-4.28,4.58-4.41Z"/>
    </g>
  </g>
</svg>