<?xml version="1.0" encoding="UTF-8"?>
<svg id="Capa_2" data-name="Capa 2" xmlns="http://www.w3.org/2000/svg" viewBox="0 0 56.69 44.68">
  <defs>
    <style>
      .cls-1 {
        fill: #edf0f4;
      }
    </style>
  </defs>
  <g id="Capa_1-2" data-name="Capa 1">
    <g>
      <path class="cls-1" d="M3.96,44.68c-1.26-.12-2.23-.59-2.89-1.38-.92-1.13-1.25-2.94-.99-5.39.08-.74.67-1.29,1.41-1.29h.3s.02-.3.02-.3c.03-.44.02-.89,0-1.33-.05-1.28-.09-2.39.97-3.15.16-.11.71-.4.86-.44h3.4l-.64-.57c-3.21-2.86-4.86-6.98-4.52-11.32.34-4.27,2.57-8.03,6.12-10.31,2.23-1.43,4.79-2.19,7.4-2.19,4.38,0,8.43,2.06,11.11,5.64l.59.79V.98c.1-.4.66-.89,1.09-.96.1-.02.2-.02.3-.02,2.53,0,6.47,4.2,6.67,6.51v14.28s-.01.02-.01.02c.02.16.14.28.35.48.15.14.53.52.53.67v2.45h.33c.1,0,.2,0,.3,0,.1,0,.21,0,.31,0,.53,0,.73.1.8.44v17.71c-.07.99-.85,1.87-1.85,2.1l-31.95.03ZM26.81,43.59c.06,0,.12.01.18.01.53,0,1.19-.32,1.78-.84.59-.53.95-1.14.95-1.63v-3.43h-7.82l-.1.1c-.47.49-.86,1.05-1.25,1.59-.45.64-.88,1.24-1.41,1.74h-7.38c-.53-.5-.96-1.1-1.41-1.74-.38-.54-.78-1.1-1.25-1.59l-.1-.1H1.18v3.43c0,.99,1.58,2.45,2.63,2.45h.05s-.01,0-.01,0h22.96ZM29.42,36.61c.64,0,1.26.51,1.36,1.12.16.95.08,3.44-.2,4.25-.11.32-.3.63-.49.93l-.11.17-.31.5h6.09c.31,0,.93-.62.93-.93v-13.67h-10.46c-.1,0-.27.04-.34.29,0,.04-.03.11-.06.14-.14.15-.3.29-.45.44-.32.31-.66.63-.95,1l-.41.53h3.23c.39,0,1.26.73,1.51,1.19.36.64.32,1.52.28,2.36-.02.46-.04.94,0,1.38l.03.3h.32ZM13.26,40.06c.57,0,1.18.03,1.77.05.6.03,1.21.05,1.8.05h0c.5,0,.93-.02,1.32-.06.67-.06,1.07-.68,1.42-1.22.16-.24.31-.47.46-.62l.57-.56h-10.2l1.92,2.39h.17c.24-.02.49-.03.77-.03ZM2.92,36.62h25.06v-4.15H2.92v4.15ZM15.51,8.06c-.4,0-.8.02-1.21.05-5.44.46-9.76,4.24-11,9.63-1.26,5.42.96,10.74,5.65,13.56l.08.05h12.83s.08-.05.08-.05c4.91-3,7.08-8.52,5.52-14.07-1.57-5.57-6.25-9.17-11.94-9.17ZM27.97,25.79c-.05.34-.23.67-.42,1.02-.11.21-.23.42-.32.64l-.19.45h9.64v-2.4h-8.68l-.04.28ZM28.56,24.42h6.39v-2.4h-5.94l-.45,2.4ZM28.19,15.87c0,.12.06.32.29,1.04.14.43.3.93.34,1.12.18.93.26,1.79.24,2.57v.33s5.01,0,5.01,0v-12.83l-.3-.02c-1.86-.14-3.25-1.48-4.6-2.77-.14-.14-.29-.28-.43-.41l-.55-.52v11.49ZM28.2,1.52c.68,2.46,3.02,4.8,5.46,5.46l.51.14-.11-.52c-.35-1.72-1.82-3.21-2.44-3.77-1.13-1.03-2.17-1.61-3.07-1.71l-.48-.06.13.47Z"/>
      <path class="cls-1" d="M15.45,29.86c-5.1,0-9.26-4.15-9.26-9.26s4.15-9.26,9.26-9.26,9.26,4.15,9.26,9.26-4.15,9.26-9.26,9.26ZM15.45,12.43c-4.5,0-8.17,3.66-8.17,8.17s3.66,8.17,8.17,8.17,8.17-3.66,8.17-8.17-3.66-8.17-8.17-8.17Z"/>
      <rect class="cls-1" x="9.6" y="19.6" width="5.6" height="1.13" transform="translate(-10.63 14.67) rotate(-45)"/>
      <rect class="cls-1" x="15.7" y="20.48" width="5.6" height="1.13" transform="translate(-9.46 19.24) rotate(-45)"/>
      <g>
        <path class="cls-1" d="M44.9,44.51c-.86,0-1.61-.02-2.29-.08-1.42-.11-2.2-.75-2.44-2.03l-1.92-16.41c.05-2.11,1.42-3.95,3.34-4.47.08-.02.22-.04.37-.06.52-.07.84-.12.9-.32v-.02s.84-15.78.84-15.78c.31-1.23,1.07-1.86,2.38-1.99.44-.04,1.03-.09,1.62-.09,2.21,0,3.38.71,3.58,2.17l.84,15.73.22.22h.06c1.51.02,3.07,1.03,3.79,2.44.49.96.54,1.82.45,2.99-.18,2.61-.56,5.29-.93,7.89-.35,2.53-.72,5.15-.91,7.7-.24,1.22-.97,1.88-2.25,2.01-.52-.03-1.07-.04-1.68-.04-.99,0-2.01.03-3,.07-.99.03-2.01.07-2.99.07ZM44.18,43.3c1.01,0,2.06.04,3.07.08,1.02.04,2.07.08,3.08.08h0c.89,0,1.67-.03,2.37-.1.63-.06,1.02-.45,1.16-1.18.16-2.58.54-5.23.91-7.8.37-2.58.76-5.25.91-7.83.11-1.84-.78-3.93-3-4.19-.72-.08-1.53-.12-2.48-.12-1.03,0-2.11.05-3.16.09-1.04.05-2.11.09-3.13.09-.61,0-1.15-.02-1.65-.05h-.02s-.02,0-.02,0c-2.95.75-3.01,2.87-2.8,5.16.39,4.31.97,8.81,1.54,13.16.02.13.03.28.04.44.08.88.18,2.08,1.21,2.21h.01s.01,0,.01,0c.58-.04,1.22-.06,1.93-.06ZM43.86,21.3h7.3v-2.57h-7.3v2.57ZM47.33,4.36c-.33,0-1.41,0-1.65.06-.41.09-.83.56-.93.92-.08.27-.11.77-.14,1.18,0,.09-.01.17-.02.25-.04.52-.05,1.06-.05,1.59,0,.44-.01.89-.04,1.32l-.47,8.1h6.94l-.65-12.2v-.02c-.13-.46-.46-.98-.91-1.11-.29-.08-1.9-.08-2.08-.08Z"/>
        <path class="cls-1" d="M47.2,41.62c-1.09,0-1.97-.04-2.48-.1-.96-.12-1.84-1.01-2-2.01-.11-2.09-.44-4.3-.77-6.44-.34-2.25-.7-4.58-.78-6.78-.04-1.16.35-1.74,1.4-2.05l9.75-.02c1,.15,1.68,1.05,1.54,2.05-.4,2.07-.58,4.31-.75,6.48-.18,2.26-.37,4.61-.81,6.74-.25,1.2-1.07,1.94-2.25,2.04-.65.06-1.77.09-2.84.09ZM42.78,25.2h-.02c-.46.17-.69.51-.62.92.33,2.1.55,4.28.75,6.39.2,2.02.4,4.11.71,6.12l.02.11c.13.86.25,1.67,1.42,1.79.53.06,1.36.09,2.34.09h0c.98,0,1.91-.03,2.51-.08.84-.07,1.31-.52,1.44-1.37l1.55-13.08c.03-.23-.04-.46-.19-.63-.15-.18-.38-.29-.62-.3h0s-9.27.02-9.27.02Z"/>
      </g>
    </g>
  </g>
</svg>