<?xml version="1.0" encoding="UTF-8"?>
<svg id="Capa_1" data-name="Capa 1" xmlns="http://www.w3.org/2000/svg" viewBox="0 0 1063.16 144.73">
  <defs>
    <style>
      .cls-1 {
        fill: #edf0f4;
      }
    </style>
  </defs>
  <path class="cls-1" d="M990.79,144.73H72.37C32.46,144.73,0,112.27,0,72.37S32.46,0,72.37,0h918.43c39.9,0,72.37,32.46,72.37,72.37s-32.46,72.37-72.37,72.37ZM72.37,3C34.12,3,3,34.12,3,72.37s31.12,69.37,69.37,69.37h918.43c38.25,0,69.37-31.12,69.37-69.37S1029.04,3,990.79,3H72.37Z"/>
  <g>
    <path class="cls-1" d="M131.68,71.79c0-13.97,8.06-22.47,21.03-22.47,11.16,0,17.93,6.12,19.44,16.49l-7.85,1.51c-1.3-6.99-4.9-10.8-11.74-10.8-8.79,0-12.67,6.41-12.67,15.26,0,9.5,3.89,15.48,12.6,15.48,7.27,0,10.58-3.89,12.02-11.09l7.78,1.44c-1.44,10.44-8.35,16.78-19.8,16.78-13.25,0-20.81-8.64-20.81-22.61Z"/>
    <path class="cls-1" d="M201.24,84.53h-.72c-1.87,6.26-6.19,9.87-11.81,9.87-7.13,0-10.51-4.82-10.51-12.17v-22.61h7.78v20.59c0,4.1,1.8,7.13,6.41,7.13,5.26,0,8.64-3.46,8.64-8.57v-19.15h7.78v33.84h-7.56v-8.93Z"/>
    <path class="cls-1" d="M217,53.86v-6.26h8.42v6.26h-8.42ZM217.29,93.46v-33.84h7.78v33.84h-7.78Z"/>
    <path class="cls-1" d="M256.32,84.53h-.5c-1.73,5.83-5.76,9.87-11.81,9.87-7.78,0-12.31-6.26-12.31-17.71s4.61-18,12.53-17.93c6.12-.07,9.86,3.82,11.59,9.72h.5v-21.24h7.7v46.23h-7.7v-8.93ZM256.32,78.05v-2.59c0-5.83-3.38-9.72-8.64-9.72-5.62,0-8.35,3.53-8.35,10.94s2.59,10.8,8.35,10.8c5.18,0,8.64-3.67,8.64-9.43Z"/>
    <path class="cls-1" d="M292.75,85.4h-.79c-1.73,5.47-5.62,8.79-11.59,8.79s-10.3-2.88-10.3-9.5c0-6.05,3.67-10.44,12.24-10.44h10.08v-2.3c0-4.39-1.8-6.91-6.55-6.91-3.96,0-6.26,2.02-7.13,5.98l-7.34-1.66c1.3-6.41,6.12-10.51,14.76-10.51,9.79,0,13.97,4.61,13.97,13.03v21.6h-7.34v-8.06ZM292.39,80.72v-1.37h-8.78c-3.89,0-6.12,1.44-6.12,4.25,0,2.45,1.51,4.54,5.9,4.54,5.4,0,9-3.17,9-7.42Z"/>
    <path class="cls-1" d="M330.62,84.53h-.5c-1.73,5.83-5.76,9.87-11.81,9.87-7.78,0-12.31-6.26-12.31-17.71s4.61-18,12.53-17.93c6.12-.07,9.86,3.82,11.59,9.72h.5v-21.24h7.7v46.23h-7.7v-8.93ZM330.62,78.05v-2.59c0-5.83-3.38-9.72-8.64-9.72-5.62,0-8.35,3.53-8.35,10.94s2.59,10.8,8.35,10.8c5.18,0,8.64-3.67,8.64-9.43Z"/>
    <path class="cls-1" d="M344.44,76.47c0-11.16,6.7-17.71,17.21-17.71s17.07,6.55,17.07,17.71-6.34,17.93-17.07,17.93-17.21-6.84-17.21-17.93ZM352.22,76.4c0,6.98,2.88,11.3,9.36,11.3s9.43-4.32,9.43-11.3-3.17-11.09-9.43-11.09-9.36,4.1-9.36,11.09Z"/>
    <path class="cls-1" d="M406.94,79.21v14.26h-8.21v-43.2h17.35c10.73,0,15.99,4.9,15.99,14.54,0,8.21-5.54,14.4-15.7,14.4h-9.43ZM406.94,57.24v15.19h8.5c6.05,0,8.57-2.38,8.57-7.56s-2.23-7.63-8.64-7.63h-8.42Z"/>
    <path class="cls-1" d="M435.3,76.97c0-11.45,6.48-18.22,17.07-18.22s15.19,6.19,15.19,15.48c0,1.3,0,2.81-.14,4.54h-24.41c.58,6.12,3.67,9.22,9.43,9.22,5.4,0,7.27-2.59,8.21-5.83l6.62,1.87c-1.58,6.12-5.83,10.3-14.91,10.3-10.37,0-17.07-6.05-17.07-17.35ZM443.08,73.59h17.35c-.29-5.83-2.88-8.86-8.28-8.86s-8.35,2.81-9.07,8.86Z"/>
    <path class="cls-1" d="M473.82,93.46v-33.84h7.34v10.15l.65.07c1.94-8.21,5.11-10.58,10.01-10.58h1.22v8.71h-1.87c-7.13,0-9.65,2.52-9.65,9.43v16.06h-7.7Z"/>
    <path class="cls-1" d="M495.93,83.45l6.98-1.44c1.08,4.1,3.46,6.7,8.93,6.7,4.1,0,6.26-1.44,6.26-4.32,0-2.66-1.87-3.96-8.57-5.18-9-1.8-12.17-4.82-12.17-10.44,0-6.12,4.46-10.01,13.47-10.01s12.46,3.82,13.83,9.79l-6.98,1.51c-.94-4.18-2.95-5.76-6.98-5.76s-5.98,1.51-5.98,4.03c0,2.38,1.44,4.03,7.85,5.18,10.01,1.87,13.03,5.26,13.03,10.58,0,6.26-4.18,10.3-13.9,10.3-10.94,0-14.54-4.46-15.77-10.95Z"/>
    <path class="cls-1" d="M529.62,76.47c0-11.16,6.7-17.71,17.21-17.71s17.07,6.55,17.07,17.71-6.34,17.93-17.07,17.93-17.21-6.84-17.21-17.93ZM537.4,76.4c0,6.98,2.88,11.3,9.36,11.3s9.43-4.32,9.43-11.3-3.17-11.09-9.43-11.09-9.36,4.1-9.36,11.09Z"/>
    <path class="cls-1" d="M577.72,93.46h-7.7v-33.84h7.56v8.93h.65c1.87-6.26,6.19-9.79,11.88-9.79,7.06,0,10.44,4.75,10.44,12.1v22.61h-7.7v-20.59c0-4.1-1.8-7.13-6.48-7.13-5.18,0-8.64,3.46-8.64,8.57v19.15Z"/>
    <path class="cls-1" d="M628.91,85.4h-.79c-1.73,5.47-5.62,8.79-11.59,8.79s-10.3-2.88-10.3-9.5c0-6.05,3.67-10.44,12.24-10.44h10.08v-2.3c0-4.39-1.8-6.91-6.55-6.91-3.96,0-6.26,2.02-7.13,5.98l-7.34-1.66c1.3-6.41,6.12-10.51,14.76-10.51,9.79,0,13.97,4.61,13.97,13.03v21.6h-7.34v-8.06ZM628.55,80.72v-1.37h-8.78c-3.89,0-6.12,1.44-6.12,4.25,0,2.45,1.51,4.54,5.9,4.54,5.4,0,9-3.17,9-7.42Z"/>
    <path class="cls-1" d="M652.09,93.46h-7.78v-46.23h7.78v46.23Z"/>
    <path class="cls-1" d="M670.23,105.63l1.22-6.98c1.44.29,2.88.5,4.32.5,3.82,0,5.83-.94,8.06-6.05l-13.61-33.48h8.5l3.96,12.24c1.37,4.25,3.24,9.87,4.68,14.76h1.15c1.51-5.04,3.17-10.44,4.46-14.62l3.67-12.38h8.28l-13.97,34.28c-3.46,8.42-7.63,12.17-15.41,12.17-2.23,0-3.74-.22-5.33-.43Z"/>
    <path class="cls-1" d="M722.87,50.26h18.15c10.37,0,15.05,3.67,15.05,11.02,0,5.62-3.24,8.79-8.71,10.08v.72c7.49.79,10.66,3.53,10.66,9.65,0,6.98-4.39,11.74-15.34,11.74h-19.8v-43.2ZM731.07,56.67v12.46h9.72c4.54,0,7.42-1.73,7.42-6.41,0-4.1-2.02-6.05-7.06-6.05h-10.08ZM731.07,74.88v12.38h11.38c5.11,0,7.49-2.52,7.49-6.19,0-3.96-2.02-6.19-7.92-6.19h-10.94Z"/>
    <path class="cls-1" d="M763.98,53.86v-6.26h8.42v6.26h-8.42ZM764.27,93.46v-33.84h7.78v33.84h-7.78Z"/>
    <path class="cls-1" d="M778.66,76.97c0-11.45,6.48-18.22,17.07-18.22s15.19,6.19,15.19,15.48c0,1.3,0,2.81-.14,4.54h-24.41c.58,6.12,3.67,9.22,9.43,9.22,5.4,0,7.27-2.59,8.21-5.83l6.62,1.87c-1.58,6.12-5.83,10.3-14.91,10.3-10.37,0-17.07-6.05-17.07-17.35ZM786.44,73.59h17.35c-.29-5.83-2.88-8.86-8.28-8.86s-8.35,2.81-9.07,8.86Z"/>
    <path class="cls-1" d="M824.89,93.46h-7.7v-33.84h7.56v8.93h.65c1.87-6.26,6.19-9.79,11.88-9.79,7.06,0,10.44,4.75,10.44,12.1v22.61h-7.7v-20.59c0-4.1-1.8-7.13-6.48-7.13-5.18,0-8.64,3.46-8.64,8.57v19.15Z"/>
    <path class="cls-1" d="M853.47,76.97c0-11.45,6.48-18.22,17.07-18.22s15.19,6.19,15.19,15.48c0,1.3,0,2.81-.14,4.54h-24.41c.58,6.12,3.67,9.22,9.43,9.22,5.4,0,7.27-2.59,8.21-5.83l6.62,1.87c-1.58,6.12-5.83,10.3-14.91,10.3-10.37,0-17.07-6.05-17.07-17.35ZM861.25,73.59h17.35c-.29-5.83-2.88-8.86-8.28-8.86s-8.35,2.81-9.07,8.86Z"/>
    <path class="cls-1" d="M889.62,83.45l6.98-1.44c1.08,4.1,3.46,6.7,8.93,6.7,4.1,0,6.26-1.44,6.26-4.32,0-2.66-1.87-3.96-8.57-5.18-9-1.8-12.17-4.82-12.17-10.44,0-6.12,4.46-10.01,13.47-10.01s12.46,3.82,13.83,9.79l-6.98,1.51c-.94-4.18-2.95-5.76-6.98-5.76s-5.98,1.51-5.98,4.03c0,2.38,1.44,4.03,7.85,5.18,10.01,1.87,13.03,5.26,13.03,10.58,0,6.26-4.18,10.3-13.9,10.3-10.94,0-14.54-4.46-15.77-10.95Z"/>
    <path class="cls-1" d="M927.2,65.88h-4.75v-6.26h4.75v-9.14h7.78v9.14h9.94v6.26h-9.94v16.2c0,3.31,1.22,5.04,4.61,5.04,1.73,0,3.24-.36,4.9-.86l.94,6.91c-2.52.79-4.25,1.22-7.63,1.22-7.42,0-10.58-4.9-10.58-11.23v-17.28Z"/>
    <path class="cls-1" d="M971.55,85.4h-.79c-1.73,5.47-5.62,8.79-11.59,8.79s-10.3-2.88-10.3-9.5c0-6.05,3.67-10.44,12.24-10.44h10.08v-2.3c0-4.39-1.8-6.91-6.55-6.91-3.96,0-6.26,2.02-7.13,5.98l-7.34-1.66c1.3-6.41,6.12-10.51,14.76-10.51,9.79,0,13.97,4.61,13.97,13.03v21.6h-7.34v-8.06ZM971.19,80.72v-1.37h-8.78c-3.89,0-6.12,1.44-6.12,4.25,0,2.45,1.51,4.54,5.9,4.54,5.4,0,9-3.17,9-7.42Z"/>
    <path class="cls-1" d="M986.74,93.46v-33.84h7.34v10.15l.65.07c1.94-8.21,5.11-10.58,10.01-10.58h1.22v8.71h-1.87c-7.13,0-9.65,2.52-9.65,9.43v16.06h-7.7Z"/>
  </g>
  <g>
    <path class="cls-1" d="M65.28,115.89c-24,0-43.52-19.52-43.52-43.52s19.52-43.52,43.52-43.52,43.52,19.52,43.52,43.52-19.52,43.52-43.52,43.52ZM65.28,30.85c-22.89,0-41.52,18.63-41.52,41.52s18.63,41.52,41.52,41.52,41.52-18.63,41.52-41.52-18.63-41.52-41.52-41.52Z"/>
    <g>
      <path class="cls-1" d="M40.9,94.71c-1.26-.12-2.23-.59-2.89-1.38-.92-1.13-1.25-2.94-.99-5.39.08-.74.67-1.29,1.41-1.29h.3s.02-.3.02-.3c.03-.44.02-.89,0-1.33-.05-1.28-.09-2.39.97-3.15.16-.11.71-.4.86-.44h3.4l-.64-.57c-3.21-2.86-4.86-6.98-4.52-11.32.34-4.27,2.57-8.03,6.12-10.31,2.23-1.43,4.79-2.19,7.4-2.19,4.38,0,8.43,2.06,11.11,5.64l.59.79v-12.44c.1-.4.66-.89,1.09-.96.1-.02.2-.02.3-.02,2.53,0,6.47,4.2,6.67,6.51v14.28s-.01.02-.01.02c.02.16.14.28.35.48.15.14.53.52.53.67v2.45h.33c.1,0,.2,0,.3,0,.1,0,.21,0,.31,0,.53,0,.73.1.8.44v17.71c-.07.99-.85,1.87-1.85,2.1l-31.95.03ZM63.74,93.62c.06,0,.12.01.18.01.53,0,1.19-.32,1.78-.84.59-.53.95-1.14.95-1.63v-3.43h-7.82l-.1.1c-.47.49-.86,1.05-1.25,1.59-.45.64-.88,1.24-1.41,1.74h-7.38c-.53-.5-.96-1.1-1.41-1.74-.38-.54-.78-1.1-1.25-1.59l-.1-.1h-7.82v3.43c0,.99,1.58,2.45,2.63,2.45h.05s-.01,0-.01,0h22.96ZM66.35,86.64c.64,0,1.26.51,1.36,1.12.16.95.08,3.44-.2,4.25-.11.32-.3.63-.49.93l-.11.17-.31.5h6.09c.31,0,.93-.62.93-.93v-13.67h-10.46c-.1,0-.27.04-.34.29,0,.04-.03.11-.06.14-.14.15-.3.29-.45.44-.32.31-.66.63-.95,1l-.41.53h3.23c.39,0,1.26.73,1.51,1.19.36.64.32,1.52.28,2.36-.02.46-.04.94,0,1.38l.03.3h.32ZM50.2,90.09c.57,0,1.18.03,1.77.05.6.03,1.21.05,1.8.05h0c.5,0,.93-.02,1.32-.06.67-.06,1.07-.68,1.42-1.22.16-.24.31-.47.46-.62l.57-.56h-10.2l1.92,2.39h.17c.24-.02.49-.03.77-.03ZM39.85,86.64h25.06v-4.15h-25.06v4.15ZM52.45,58.08c-.4,0-.8.02-1.21.05-5.44.46-9.76,4.24-11,9.63-1.26,5.42.96,10.74,5.65,13.56l.08.05h12.83s.08-.05.08-.05c4.91-3,7.08-8.52,5.52-14.07-1.57-5.57-6.25-9.17-11.94-9.17ZM64.91,75.82c-.05.34-.23.67-.42,1.02-.11.21-.23.42-.32.64l-.19.45h9.64v-2.4h-8.68l-.04.28ZM65.49,74.44h6.39v-2.4h-5.94l-.45,2.4ZM65.12,65.89c0,.12.06.32.29,1.04.14.43.3.93.34,1.12.18.93.26,1.79.24,2.57v.33s5.01,0,5.01,0v-12.83l-.3-.02c-1.86-.14-3.25-1.48-4.6-2.77-.14-.14-.29-.28-.43-.41l-.55-.52v11.49ZM65.13,51.55c.68,2.46,3.02,4.8,5.46,5.46l.51.14-.11-.52c-.35-1.72-1.82-3.21-2.44-3.77-1.13-1.03-2.17-1.61-3.07-1.71l-.48-.06.13.47Z"/>
      <path class="cls-1" d="M52.38,79.89c-5.1,0-9.26-4.15-9.26-9.26s4.15-9.26,9.26-9.26,9.26,4.15,9.26,9.26-4.15,9.26-9.26,9.26ZM52.38,62.46c-4.5,0-8.17,3.66-8.17,8.17s3.66,8.17,8.17,8.17,8.17-3.66,8.17-8.17-3.66-8.17-8.17-8.17Z"/>
      <rect class="cls-1" x="46.53" y="69.63" width="5.6" height="1.13" transform="translate(-35.19 55.44) rotate(-45)"/>
      <rect class="cls-1" x="52.63" y="70.5" width="5.6" height="1.13" transform="translate(-34.02 60.01) rotate(-45)"/>
      <g>
        <path class="cls-1" d="M81.83,94.53c-.86,0-1.61-.02-2.29-.08-1.42-.11-2.2-.75-2.44-2.03l-1.92-16.41c.05-2.11,1.42-3.95,3.34-4.47.08-.02.22-.04.37-.06.52-.07.84-.12.9-.32v-.02s.84-15.78.84-15.78c.31-1.23,1.07-1.86,2.38-1.99.44-.04,1.03-.09,1.62-.09,2.21,0,3.38.71,3.58,2.17l.84,15.73.22.22h.06c1.51.02,3.07,1.03,3.79,2.44.49.96.54,1.82.45,2.99-.18,2.61-.56,5.29-.93,7.89-.35,2.53-.72,5.15-.91,7.7-.24,1.22-.97,1.88-2.25,2.01-.52-.03-1.07-.04-1.68-.04-.99,0-2.01.03-3,.07-.99.03-2.01.07-2.99.07ZM81.11,93.33c1.01,0,2.06.04,3.07.08,1.02.04,2.07.08,3.08.08h0c.89,0,1.67-.03,2.37-.1.63-.06,1.02-.45,1.16-1.18.16-2.58.54-5.23.91-7.8.37-2.58.76-5.25.91-7.83.11-1.84-.78-3.93-3-4.19-.72-.08-1.53-.12-2.48-.12-1.03,0-2.11.05-3.16.09-1.04.05-2.11.09-3.13.09-.61,0-1.15-.02-1.65-.05h-.02s-.02,0-.02,0c-2.95.75-3.01,2.87-2.8,5.16.39,4.31.97,8.81,1.54,13.16.02.13.03.28.04.44.08.88.18,2.08,1.21,2.21h.01s.01,0,.01,0c.58-.04,1.22-.06,1.93-.06ZM80.79,71.33h7.3v-2.57h-7.3v2.57ZM84.26,54.38c-.33,0-1.41,0-1.65.06-.41.09-.83.56-.93.92-.08.27-.11.77-.14,1.18,0,.09-.01.17-.02.25-.04.52-.05,1.06-.05,1.59,0,.44-.01.89-.04,1.32l-.47,8.1h6.94l-.65-12.2v-.02c-.13-.46-.46-.98-.91-1.11-.29-.08-1.9-.08-2.08-.08Z"/>
        <path class="cls-1" d="M84.13,91.64c-1.09,0-1.97-.04-2.48-.1-.96-.12-1.84-1.01-2-2.01-.11-2.09-.44-4.3-.77-6.44-.34-2.25-.7-4.58-.78-6.78-.04-1.16.35-1.74,1.4-2.05l9.75-.02c1,.15,1.68,1.05,1.54,2.05-.4,2.07-.58,4.31-.75,6.48-.18,2.26-.37,4.61-.81,6.74-.25,1.2-1.07,1.94-2.25,2.04-.65.06-1.77.09-2.84.09ZM79.71,75.23h-.02c-.46.17-.69.51-.62.92.33,2.1.55,4.28.75,6.39.2,2.02.4,4.11.71,6.12l.02.11c.13.86.25,1.67,1.42,1.79.53.06,1.36.09,2.34.09h0c.98,0,1.91-.03,2.51-.08.84-.07,1.31-.52,1.44-1.37l1.55-13.08c.03-.23-.04-.46-.19-.63-.15-.18-.38-.29-.62-.3h0s-9.27.02-9.27.02Z"/>
      </g>
    </g>
  </g>
</svg>