<?xml version="1.0" encoding="UTF-8"?>
<svg id="Capa_2" data-name="Capa 2" xmlns="http://www.w3.org/2000/svg" viewBox="0 0 51.02 50.88">
  <defs>
    <style>
      .cls-1 {
        fill: #edf0f4;
      }
    </style>
  </defs>
  <g id="Capa_1-2" data-name="Capa 1">
    <g>
      <path class="cls-1" d="M33.26,38.81c3.34-.2,4.62,2.16,4.2,5.23-.18,1.33-1.58,2.78-2.97,2.81-.2,1.02.55,3.75-.78,4.05l-16.5-.03c-1.18-.37-.49-3.03-.68-4.01-2.63-.31-3.28-2.77-2.97-5.09.27-2.05,2.3-3.07,4.2-3l-4.65-9.49-.08-.82c3.35-5.49,6.21-11.33,9.61-16.78.22-.35.47-.95.83-1.07.87-.29,1.3.29,1.37,1.09.44,4.79-.35,10.25,0,15.11-.11.98-1.2,1.03-1.44,2.23-.67,3.36,4.79,3.41,4.26.11-.21-1.29-1.35-1.36-1.47-2.34v-15.24c.06-.95,1.11-1.43,1.75-.66l10.02,17.45v.83s-4.7,9.65-4.7,9.65ZM22.92,26.43v-11.29l-7.79,13.37-.05.5,4.73,9.77,11.42-.06,4.73-10.02-7.87-13.56v11.29s.21,0,.33.14c3.48,4.17-1.68,9.05-5.48,6.03-1.95-1.54-1.91-4.12-.4-5.96.16-.2.38-.2.39-.22ZM16.63,40.74c-1.3.26-1.35,1.97-1.18,3.02.11.67.9,1.26,1.57,1.28,5.38-.37,11.56.55,16.85.01.73-.07,1.57-.51,1.69-1.3.18-1.12.11-2.83-1.29-3.04l-17.64.02ZM32.58,46.97h-14.15v2.04h14.15v-2.04Z"/>
      <path class="cls-1" d="M22.24,2.35l.07-1.9c.06-.13.33-.3.47-.35.45-.14,4.99-.14,5.45,0,.89.27.44,1.54.54,2.25h15.57c.94-2.4,4.16-3.22,5.85-1.09,3.26,4.1-4.1,8.2-5.78,3h-7.62c1.1.81,2.34,1.4,3.44,2.2,5.02,3.65,8.3,9.66,8.53,15.89.73-.01,1.94-.15,2.15.78.12.53.12,4.17,0,4.7-.15.7-.81.74-1.39.78-.78.06-3.74.1-4.28-.22-.15-.09-.34-.25-.39-.43v-4.98c.43-.8,1.24-.65,2.01-.64-.35-9.57-8.51-17.71-18.09-17.96-.1.98.45,2.16-.88,2.32-.73.08-4.55.1-5.11-.06-.89-.27-.44-1.54-.54-2.25-9.57.24-17.75,8.38-18.09,17.96.64-.05,1.89-.05,2.04.75.08.44.05,4.7-.07,4.96-.06.14-.29.31-.44.38-.53.26-3.73.25-4.46.17s-1.07-.29-1.16-1.02-.11-3.81.03-4.46c.21-.92,1.42-.79,2.15-.78.21-6.24,3.51-12.25,8.53-15.89,1.11-.8,2.34-1.39,3.44-2.2h-7.62c-.81,3.31-5.79,3.18-6.47-.13C-.72-.03,5.14-1.61,6.67,2.35h15.57ZM4.83,3.37c0-.79-.64-1.43-1.43-1.43s-1.43.64-1.43,1.43.64,1.43,1.43,1.43,1.43-.64,1.43-1.43ZM26.87,1.95h-2.72v2.86h2.72V1.95ZM49.04,3.37c0-.79-.64-1.43-1.43-1.43s-1.43.64-1.43,1.43.64,1.43,1.43,1.43,1.43-.64,1.43-1.43ZM1.98,24.25v2.45h2.31v-2.45H1.98ZM46.73,24.25v2.45h2.31v-2.45h-2.31Z"/>
    </g>
  </g>
</svg>