<?xml version="1.0" encoding="UTF-8"?>
<svg id="Capa_2" data-name="Capa 2" xmlns="http://www.w3.org/2000/svg" viewBox="0 0 56.69 60.12">
  <defs>
    <style>
      .cls-1 {
        fill: #edf0f4;
      }
    </style>
  </defs>
  <g id="Capa_1-2" data-name="Capa 1">
    <g>
      <path class="cls-1" d="M34.62,40.49c.73.12,1.28.83,1.51,1.49.67,1.97.71,4.62,1.36,6.59.07.22.11.45.33.58l3.25.05c.7-3.45,5.66-3.74,6.73-.37,1.46,4.6-5.58,6.56-6.73,1.84-1.76-.16-4.19.61-4.87-1.58-.63-2-.66-4.81-1.37-6.71-.4-1.06-2.87-.43-3.82-.57l-.2.19c.27,1.53-1.03,1.31-2.17,1.22-4.3-.35-8.52-3.53-10.39-7.34-3.49-7.13.22-15.97,7.74-18.37.92-.3,3.73-.94,4.53-.55.51.25.03,1.2.47,1.35,1.08-.17,3.44.57,3.85-.68.67-2.03.68-4.85,1.42-6.79s3.18-1.23,4.8-1.39c.76-3.45,5.76-3.69,6.76-.27,1.34,4.6-5.68,6.42-6.76,1.74l-3.25.05c-.21.14-.26.37-.33.58-.64,1.96-.67,5.13-1.43,6.91-.14.33-1,1.17-1.3,1.17h-3.78l-.2.2v4.04l.2.2h6.39c.85-1.43,1.04-3.7,1.79-5.12.14-.27.53-.65.81-.76.89-.35,5.35.07,5.54-.13.56-3.48,5.67-3.78,6.69-.36,1.37,4.58-5.55,6.49-6.77,1.79l-5.01.07c-.22.15-1.34,4.25-1.71,4.94-.15.29-.65.86-.96.86h-6.78l-.2.2v3.65l.2.2h18.84c.48-2.88,4.19-3.85,6.06-1.57,2.21,2.69-.38,6.52-3.72,5.54-1.34-.39-2-1.46-2.54-2.67h-18.64l-.2.2v3.65l.2.2h6.78c.31,0,.81.57.96.86.36.69,1.48,4.79,1.71,4.94l5.01.07c1.23-4.68,8.13-2.76,6.77,1.79-1.03,3.45-6.11,3.15-6.69-.36-.2-.2-4.66.22-5.54-.13-.28-.11-.67-.49-.81-.76-.75-1.42-.94-3.69-1.79-5.12h-6.39l-.2.2v4.24c1.17.14,2.73-.18,3.85,0ZM46.59,10.2c0-1.17-.95-2.12-2.12-2.12s-2.12.95-2.12,2.12.95,2.12,2.12,2.12,2.12-.95,2.12-2.12ZM50.98,18.75c0-1.17-.95-2.11-2.11-2.11s-2.11.95-2.11,2.11.95,2.11,2.11,2.11,2.11-.95,2.11-2.11ZM29.47,18.2c-5.58.39-10.26,4.55-11.06,10.12-1.01,6.95,4.12,13.13,11.06,13.6v-23.73ZM55.3,30.07c0-1.17-.95-2.11-2.11-2.11s-2.11.95-2.11,2.11.95,2.11,2.11,2.11,2.11-.95,2.11-2.11ZM50.99,41.39c0-1.17-.95-2.11-2.11-2.11s-2.11.95-2.11,2.11.95,2.11,2.11,2.11,2.11-.95,2.11-2.11ZM46.59,49.93c0-1.17-.95-2.12-2.12-2.12s-2.12.95-2.12,2.12.95,2.12,2.12,2.12,2.12-.95,2.12-2.12Z"/>
      <path class="cls-1" d="M30.62.24l.1,12.35c-.52.64-1.38.31-2.08.39-20.83,2.43-20.45,31.93-.13,34.15.56.06,2.04-.23,2.25.48l-.06,12.13c-.1.25-.39.27-.63.29-.88.09-3.2.12-4.05,0-.41-.05-.57-.22-.71-.6-.34-.93-.63-5.69-1.05-5.99-1.11-.28-2.19-.62-3.25-1.05-1.19-.48-2.27-1.15-3.45-1.63-.83.37-4.61,3.72-5.19,3.64-.7-.1-5.42-5.5-6.41-6.25l-.17-.43,3.7-5.18c-1.27-2.08-2.13-4.37-2.81-6.71-.35-.31-4.76-.67-5.64-.88-.67-.16-.82-.39-.89-1.07-.16-1.82-.2-6.05,0-7.83.06-.53.26-.78.78-.92.84-.22,5.55-.61,5.81-.97.57-2.37,1.57-4.6,2.77-6.71-.02-.28-2.99-3.8-3.4-4.51-.14-.23-.36-.49-.29-.77l6.14-6.25.71-.2,4.71,3.52.42.05c2.05-1.22,4.26-2.07,6.55-2.72.32-.37.67-4.69.91-5.61.13-.5.19-.84.78-.91.88-.11,3-.07,3.92,0,.24.02.48.02.68.17ZM29.47,1.51h-3c-.22,1.69-.35,3.58-.69,5.24-.05.22-.07.58-.16.75-.22.42-1.96.69-2.51.88-1.79.61-3.52,1.43-5.12,2.44-.14.08-.29.09-.45.09-.82-.04-4.67-3.59-5.07-3.52l-4.98,4.94v.26c.52.92,3.36,4,3.46,4.77.02.16.03.32-.03.48-.6,1-1.23,2.07-1.69,3.14-.64,1.49-.93,3.09-1.6,4.53l-6.07.9v7.23s5.9.89,5.9.89c.24.08.32.29.42.49.51,1.07.78,2.79,1.31,4.04.45,1.07,1.07,2.15,1.68,3.14l-.08.95-3.31,4.39.06.33,4.91,4.87c.4.07,4.25-3.48,5.07-3.52.16,0,.31,0,.45.09,1.6,1.01,3.33,1.83,5.12,2.44.55.19,2.29.46,2.51.88.09.18.11.53.16.75.34,1.66.47,3.55.69,5.24h3v-10.04c-11.19-.49-19.42-10.55-17.56-21.67,1.44-8.56,8.91-15.01,17.56-15.36V1.51Z"/>
    </g>
  </g>
</svg>