<?xml version="1.0" encoding="UTF-8"?>
<svg id="Capa_2" data-name="Capa 2" xmlns="http://www.w3.org/2000/svg" viewBox="0 0 56.69 49.02">
  <defs>
    <style>
      .cls-1 {
        fill: #edf0f4;
      }
    </style>
  </defs>
  <g id="Capa_1-2" data-name="Capa 1">
    <g>
      <path class="cls-1" d="M50.84,18.47l-1.01,2.58c.3.81,1.68,1.97,1.41,2.86-.16.53-2.75,2.56-3.18,3.24-.83.93-2.58-1.33-3.11-1.23l-2.75,1.07c-.1.11.04,2.58,0,3.04-.06.54-.41.77-.94.83-.69.08-3.81.11-4.41-.03-1.23-.27-.57-2.81-.76-3.73l-3.14-1.19c-.66.31-2,1.64-2.69,1.44-.74-.21-2.72-2.81-3.51-3.36-.5-.86,1.45-2.46,1.37-3.02l-1-2.5c-.64-.27-2.74-.26-3.02-.91l-.05-4.81c.18-.93,2.35-.75,3.04-1.17l1.03-2.59c-.51-1.29-2.13-1.94-.98-3.34.43-.53,2.16-2.31,2.67-2.65,1.32-.88,2.1,1.02,3.34,1.14l2.46-1.09c.41-1.02-.03-2.86,1.44-2.99.75-.07,3.55-.11,4.19.03,1,.22.84,2.1,1.1,2.89l2.68,1.19c1.23-.41,1.94-2.09,3.28-1.05.31.24,2.82,2.77,2.9,2.96.45,1.1-1.06,1.99-1.33,3l1.08,2.56c.65.29,2.65.27,2.93.94-.04,1.44.25,3.32.06,4.71-.14,1.03-2.31.83-3.09,1.18ZM36.1,25.21v-3.32c-5.31-2.17-6.44-9.16-1.99-12.9.6-.51,3.47-2.42,3.76-.88.15,1.86-.2,4.03.02,5.85s2.24,1.76,2.51.43c.34-1.66-.24-4.22.03-5.95.22-1.38,1.66-.61,2.39-.19,5.41,3.12,4.86,10.91-.63,13.58v3.38c.79-.1,2.17-1.23,2.82-1.23.82,0,1.62,1.1,2.42,1.32l1.79-1.75c.13-.28-1.49-1.9-1.37-2.58.06-.34.6-1.04.78-1.45.2-.46.73-2.31.9-2.48.37-.37,2.06-.5,2.63-.59v-2.7c-.01-.12-1.97-.37-2.28-.5-.67-.28-.82-1.66-1.1-2.33-.18-.45-.92-1.59-.92-1.94,0-.63,1.15-1.71,1.4-2.33,0-.12-1.64-1.72-1.75-1.77-.53-.24-1.68,1.45-2.68,1.25-.32-.06-.86-.5-1.23-.66-.55-.24-2.38-.77-2.63-1.03-.48-.49-.37-1.94-.67-2.6l-2.66.05c-.23.63-.2,2.09-.64,2.55-.28.28-2.06.77-2.63,1.02s-1.1.87-1.81.64c-.4-.13-1.61-1.28-1.93-1.28l-1.91,1.83c-.02.22,1.4,1.72,1.4,2.33,0,.4-.72,1.45-.92,1.94-.28.68-.43,2.05-1.1,2.33-.3.13-2.26.38-2.28.5v2.7c.56.06,2.29.22,2.63.59.22.24.68,1.97.9,2.48.18.41.72,1.1.78,1.45.12.68-1.5,2.29-1.37,2.58l1.79,1.75c.34.07,1.69-1.32,2.42-1.32.5,0,1.84.92,2.54,1.12.2.06.39.14.61.11ZM36.1,9.81c-.95.41-1.79,1.31-2.27,2.21-1.44,2.71-.64,6.13,1.99,7.76.37.23,2.05.87,2.05,1.16v7.97l.17.17h2.38v-8.14c0-.4,1.42-.97,1.79-1.2,3-1.94,3.52-6.16,1.15-8.82-.3-.34-.72-.77-1.16-.88v4.6c0,.81-1.19,2.01-1.93,2.28-1.84.66-4.16-.65-4.16-2.72v-4.37Z"/>
      <g>
        <path class="cls-1" d="M0,29.19c.33-.7.81-1.21,1.62-1.32,3.1-.42,7.09.3,10.29,0,.62.02,1.4.63,1.55,1.22.08.32.02.56.05.84.02.16-.06.19.17.16,2.46-.93,4.78-2.29,7.32-2.98.91-.1,1.63.08,2.48.38,4.72,1.64,9.44,4.37,14.18,6.08.72.41,1.09,1.36,1.1,2.17l14.45-4.65c3.2-.26,4.78,3.8,2.2,5.74l-23.25,11.85c-1.26.52-2.61.44-3.85-.11l-8.44-5.19-6.25,1.6c-.23.17-.06,1.41-.11,1.78-.09.73-.79,1.39-1.51,1.48-3.29-.23-7.05.34-10.29,0-.9-.09-1.33-.55-1.72-1.33v-17.72ZM13.51,43.14l5.84-1.52c1.01-.21,1.79.41,2.61.88,2.19,1.26,4.91,3.45,7.09,4.43.6.27,1.1.38,1.76.28,1.14-.16,5.19-2.46,6.51-3.12,5.69-2.86,11.3-5.88,17.02-8.67,1.22-.87.39-2.85-1.08-2.52l-14.53,4.74c-.79,1.11-1.42,2.06-2.85,2.46-1.15.33-1.49.16-2.54-.23-2.18-.81-4.32-1.97-6.5-2.8-.92-.53-.43-1.92.64-1.64,2.27.74,4.59,2.2,6.83,2.92,1.88.6,3.44-1.63,2.46-3.24l-14.79-6.25-1.05.04-7.41,3.16v11.07ZM11.74,29.63H1.77v16.83h9.97v-16.83Z"/>
        <circle class="cls-1" cx="8.32" cy="32.25" r=".92"/>
      </g>
    </g>
  </g>
</svg>