<?xml version="1.0" encoding="UTF-8"?>
<svg id="Capa_2" data-name="Capa 2" xmlns="http://www.w3.org/2000/svg" viewBox="0 0 56.69 60.11">
  <defs>
    <style>
      .cls-1 {
        fill: #edf0f4;
      }
    </style>
  </defs>
  <g id="Capa_1-2" data-name="Capa 1">
    <g>
      <path class="cls-1" d="M26.9,22.54c1.62-.8,2.65-1.66,4.58-1.01,4.13,1.4,2.81,7.68-1.52,7.46-1.32-.07-1.91-.92-3.05-1.2v7.27h7.61c.75,0,1.47.82,1.55,1.55.21,1.92-1.91,2.87-.93,4.56,1.18,2.02,4.26.87,3.69-1.54-.13-.56-.69-1.01-.89-1.53-.58-1.5-.18-2.86,1.56-3.04,1.09-.11,3.65-.13,4.72,0,1.62.19.85,1.95.56,3-1.74,6.45-5.38,9.15-5.09,16.61.07,1.81,1.2,5.14-1.54,5.45h-16.55c-.71-.13-1.34-.56-1.57-1.27-.15-.49-.22-1.48-.26-2.03-.03-.47.17-2.21-.22-2.34-2.52.17-5.18,1.02-7.66,1.2-1.34.1-2.24-.02-3.3-.87-2.65-2.15-.97-4.73-1.07-7.41-.03-.8-.5-1.13-.55-1.63-.02-.23.17-.68.13-.72-.03-.03-.47-.1-.73-.42-.46-.56-.69-1.72-1.21-2.29-1.51-1.65-6.92-2.89-4.58-6.32,2.02-2.96,6.3-5.59,7.57-9,.92-2.45.68-5.26,1.64-7.78,1.71-4.47,6.94-7.65,11.45-8.62,1.06-.23,4.11-.72,5.02-.44.12.04.63.54.63.58v11.79ZM25.02,12.03c-5.29-.06-12.22,3.25-13.77,8.65-.63,2.18-.56,4.51-1.27,6.67-1.06,3.2-3.99,5.13-5.96,7.71h8.49c-.64-1.36-1.38-2.03-1.2-3.69.58-5.32,9.03-3.77,7.49,1.56-.24.82-.93,1.34-1.04,2.13h7.27v-7.48c0-.76.94-1.63,1.7-1.68,1.78-.12,2.79,2.08,4.62.86,1.71-1.14.58-3.98-1.48-3.64-1.2.2-1.67,1.42-3.42,1.15-.77-.12-1.42-.92-1.42-1.67v-10.57ZM25.02,36.95h-7.74c-.79,0-1.39-1.11-1.39-1.82,0-1.66,1.59-2.23,1.09-3.95-.46-1.6-2.81-1.86-3.62-.3-.92,1.78.72,2.32.88,3.85.13,1.26-.37,2.11-1.68,2.23H2.32s-.32.22-.32.22c-.11.6-.05.81.4,1.18,1.22,1.03,3.5,1.79,4.41,3.13.35.51.57,1.43.96,1.87.45.51,1.92.83,1.66,1.79-.08.31-.4.51-.43.65-.03.16.3.67.35.95.23,1.3-.5,3.43-.52,4.82-.02,1.28,1.08,2.38,2.37,2.37,2.48-.03,5.74-1.27,8.24-1.35.92-.03,1.87.65,2.03,1.57.09.49.14,1.44.17,1.98.04.69-.04,1.4,0,2.09h3.37v-8.62c-.61-.02-1.03.56-1.56.79-2.67,1.16-5.56-.78-5.45-3.69.11-2.74,3.08-4.4,5.53-3.23.5.24.89.77,1.48.75v-7.27ZM34.31,36.95h-7.41v7.88c0,.37-.82,1.11-1.21,1.22-2.08.55-3.08-2.04-4.98-.81-1.21.79-1.22,2.56,0,3.35,1.92,1.25,2.87-1.36,4.98-.81.39.1,1.21.85,1.21,1.22v9.23h11.31c-.14-2.02-.53-4.25-.4-6.26.34-5.46,4.12-9.82,5.39-15.02h-3.64c.3,1.1,1.14,1.77,1.2,3.05.27,5.23-8.08,5.38-7.67-.16.09-1.25.79-1.81,1.22-2.89Z"/>
      <path class="cls-1" d="M50.2,26.85c.07.91.93,1.52,1.07,2.5.84,6.04-8.33,6.07-7.52,0,.14-1.05.98-1.55,1.07-2.5h-8.42c-.43,0-.7-.77-.74-1.14-.21-1.85-.17-6.07,0-7.95.15-1.69,1.41-2.25,2.93-1.71,1.03.37,1.26,1.16,2.63.94,1.83-.3,2.14-2.84.55-3.72s-2.47.84-4.02.93c-1.41.08-1.98-.63-2.1-1.95-.3-3.53.24-7.48,0-11.05.02-1.66,2.29-1.14,3.43-1.01,10.83,1.24,18.04,8.8,17.58,19.87-.06,1.38-.37,5.1-.88,6.26-.08.19-.36.54-.54.54h-5.05ZM37.54,1.93v10.51c1.63-.81,2.64-1.66,4.58-1.01,4.05,1.37,2.81,7.72-1.53,7.46-1.29-.08-1.94-.89-3.05-1.2v7.27h7.61c.8,0,1.5.92,1.55,1.69.12,1.72-1.51,2.37-1.12,3.95.53,2.17,3.62,1.9,3.94-.19.19-1.28-1.07-1.94-1.19-3.24-.31-3.26,3.93-1.92,5.9-2.22.64-3.79,1.04-8.14-.19-11.84-2.26-6.84-9.56-10.92-16.5-11.18Z"/>
    </g>
  </g>
</svg>