<?xml version="1.0" encoding="UTF-8"?>
<svg id="Capa_2" data-name="Capa 2" xmlns="http://www.w3.org/2000/svg" viewBox="0 0 56.69 53.96">
  <defs>
    <style>
      .cls-1 {
        fill: #edf0f4;
      }
    </style>
  </defs>
  <g id="Capa_1-2" data-name="Capa 1">
    <g>
      <path class="cls-1" d="M56.66,31.93c-.51,4.59-5.71,7.22-9.74,5.03-5.6-3.04-4.05-11.47,2.21-12.34.11-2.23-.14-4.43-1.6-6.19-3.69-4.47-10.05-1.74-10.66,3.61-.29,6.44.34,13.16,0,19.57-.65,12.01-15.01,17.13-21.58,6.74-1.69-2.68-2.13-5.54-2.11-8.67-3.18-.48-2.76-3.74-2.77-6.19-4.1-1.05-7.7-3.93-9.37-7.83C.09,23.46-.08,21.27.03,18.88h1.88V6.1c0-1.52,1.5-3.2,2.84-3.8.32-.14.88-.22,1.07-.34.1-.06.42-.83.63-1.06,2-2.21,5.83-.05,4.78,2.9-.85,2.38-4.32,2.52-5.24.16-.94-.15-2.2,1.45-2.2,2.25v12.66h2.88v2.82c0,.52.63,2.12.91,2.63,2.89,5.34,11.53,5.25,14.27-.18.35-.7.87-2.25.87-3.01v-2.27h1.88c-.11-3.57.15-7.23,0-10.79-.03-.65-.07-2.07-.28-2.59-.27-.67-1.13-1.47-1.87-1.56-1.34,2.94-5.73,1.82-5.36-1.47.25-2.27,3.24-3.24,4.8-1.62.28.29.49.95.63,1.08.09.08,1.19.38,1.56.6,1.31.78,2.4,2.46,2.4,4.02v12.33h1.88c.1,2.33-.05,4.47-.94,6.63-1.64,3.98-5.3,6.92-9.44,7.98-.11,1.85.42,4.44-1.35,5.67-.48.33-.95.34-1.44.58-.46,4.54,1.63,9.38,5.87,11.37,7.07,3.32,13.54-2.52,13.93-9.62.36-6.32-.41-13.07,0-19.36.39-6,7.02-10.04,12.27-6.51,3,2.01,4.01,5.5,3.78,8.99,2.46.37,4.6,2.19,5.33,4.57.08.25.27.97.3,1.19.04.38.04,1.17,0,1.55ZM9.45,2.83c0-.51-.42-.93-.93-.93s-.93.42-.93.93.42.93.93.93.93-.42.93-.93ZM20.77,2.82c0-.51-.41-.93-.93-.93s-.93.41-.93.93.41.93.93.93.93-.41.93-.93ZM4.79,20.76H1.91c.21,9.25,10.66,13.96,18.47,9.79,3.57-1.91,6.09-5.67,6.08-9.79h-1.88c-.16,5.91-5,9.78-10.79,9.41-4.93-.32-9.1-4.39-9.01-9.41ZM54.76,31.14c0-2.6-2.11-4.7-4.7-4.7s-4.7,2.11-4.7,4.7,2.11,4.7,4.7,4.7,4.7-2.11,4.7-4.7ZM16.07,33.81c-.08-.03-.13.11-.17.11h-3.43s-.08-.14-.17-.11v2.71c0,.25.31.95.56,1.1.47.29,2.34.29,2.76-.09.15-.13.43-.85.43-1v-2.71Z"/>
      <path class="cls-1" d="M52.88,31.14c0,1.56-1.26,2.82-2.82,2.82s-2.82-1.26-2.82-2.82,1.26-2.82,2.82-2.82,2.82,1.26,2.82,2.82ZM50.99,31.15c0-.51-.42-.93-.93-.93s-.93.42-.93.93.42.93.93.93.93-.42.93-.93Z"/>
    </g>
  </g>
</svg>