<svg width="34" height="24" viewBox="0 0 34 24" fill="none" xmlns="http://www.w3.org/2000/svg">
<path d="M34 20.3077C34 21.287 33.602 22.2261 32.8935 22.9185C32.185 23.611 31.2241 24 30.2222 24H3.77778C2.77585 24 1.81496 23.611 1.10649 22.9185C0.398015 22.2261 0 21.287 0 20.3077V3.69231C0 2.71305 0.398015 1.77389 1.10649 1.08145C1.81496 0.38901 2.77585 0 3.77778 0H30.2222C31.2241 0 32.185 0.38901 32.8935 1.08145C33.602 1.77389 34 2.71305 34 3.69231V20.3077Z" fill="#75AADB"/>
<path d="M0 7.38461H34V16.6154H0V7.38461Z" fill="#EEEEEE"/>
<path d="M17 7.38461L17.4609 9.73662L18.8077 7.73631L18.3118 10.0809L20.3386 8.736L18.9626 10.7178L21.3624 10.2342L19.3158 11.5495L21.7222 12L19.3158 12.4505L21.3624 13.7668L18.9626 13.2822L20.3386 15.2631L18.3118 13.9182L18.8077 16.2637L17.4609 14.2634L17 16.6154L16.5391 14.2634L15.1933 16.2637L15.6882 13.9182L13.6604 15.2631L15.0365 13.2822L12.6376 13.7668L14.6842 12.4505L12.2778 12L14.6842 11.5495L12.6376 10.2342L15.0365 10.7178L13.6604 8.736L15.6882 10.0809L15.1933 7.73631L16.5391 9.73662L17 7.38461Z" fill="#FCBF49"/>
<path d="M17 8.61231L17.3381 10.3385L17.6583 9.864L18.3269 8.87077L17.9624 10.5923L19.4508 9.60554L18.4412 11.0603L19.0107 10.9449L20.2026 10.7049L19.1864 11.3585L18.7 11.6695L20.4661 12L18.7 12.3305L19.1854 12.6434L20.2017 13.2969L18.4393 12.9406L19.4489 14.3945L17.9614 13.4077L18.326 15.1302L17.6573 14.1369L17.3381 13.6615L17 15.3877L16.6619 13.6615L15.6731 15.1302L15.9186 13.9652L16.0367 13.4086L14.5482 14.3954L15.5578 12.9406L13.7964 13.2969L14.8127 12.6434L15.2981 12.3305L13.5339 12L15.3 11.6695L13.7974 10.7031L14.9883 10.9431L15.5578 11.0585L14.5473 9.60369L16.0357 10.5914L15.9177 10.0348L15.6721 8.87077L16.6609 10.3394L17 8.61231ZM17 7.38461L16.5391 9.73662L15.1933 7.73631L15.6882 10.0818L13.6604 8.73692L15.0365 10.7188L12.6376 10.2351L14.6842 11.5505L12.2778 12L14.6842 12.4505L12.6376 13.7668L15.0365 13.2822L13.6604 15.2631L15.6882 13.9182L15.1933 16.2637L16.5391 14.2634L17 16.6154L17.4609 14.2634L18.8077 16.2637L18.3118 13.9182L20.3386 15.2631L18.9626 13.2822L21.3624 13.7668L19.3158 12.4505L21.7222 12L19.3158 11.5495L21.3624 10.2342L18.9626 10.7178L20.3386 8.736L18.3118 10.0809L18.8077 7.73538L17.4609 9.73569L17 7.38461Z" fill="#843511"/>
<path d="M17 13.8462C18.0432 13.8462 18.8889 13.0196 18.8889 12C18.8889 10.9804 18.0432 10.1538 17 10.1538C15.9568 10.1538 15.1111 10.9804 15.1111 12C15.1111 13.0196 15.9568 13.8462 17 13.8462Z" fill="#FCBF49"/>
<path d="M17 13.9615C15.8931 13.9615 14.9931 13.0818 14.9931 12C14.9931 10.9182 15.8931 10.0385 17 10.0385C18.1069 10.0385 19.0069 10.9182 19.0069 12C19.0069 13.0818 18.1069 13.9615 17 13.9615ZM17 10.2692C16.0234 10.2692 15.2292 11.0455 15.2292 12C15.2292 12.9545 16.0234 13.7308 17 13.7308C17.9766 13.7308 18.7708 12.9545 18.7708 12C18.7708 11.0455 17.9766 10.2692 17 10.2692Z" fill="#843511"/>
<path d="M16.8121 11.7914C16.8121 11.9345 16.5656 12.0498 16.2614 12.0498C15.9564 12.0498 15.7099 11.9345 15.7099 11.7914C15.7099 11.6483 15.9564 11.5329 16.2614 11.5329C16.5656 11.5329 16.8121 11.6483 16.8121 11.7914ZM18.2788 11.7692C18.2788 11.6206 18.0276 11.4997 17.7178 11.4997C17.408 11.4997 17.1568 11.6197 17.1568 11.7692C17.1568 11.9188 17.408 12.0388 17.7178 12.0388C18.0285 12.0388 18.2788 11.9178 18.2788 11.7692Z" fill="#C16540"/>
<path d="M16.4928 12.8068C16.4928 12.6905 16.7252 12.5954 17.0104 12.5954C17.2966 12.5954 17.5279 12.6895 17.5279 12.8068C17.5279 12.9231 17.2956 13.0182 17.0104 13.0182C16.7242 13.0182 16.4928 12.9231 16.4928 12.8068Z" fill="#ED8662"/>
</svg>
