<svg width="66" height="18" viewBox="0 0 66 18" fill="none" xmlns="http://www.w3.org/2000/svg">
<g clip-path="url(#clip0_202_964)">
<path d="M35.5386 9.02118L26.6592 0V18.0212L35.5386 9.02118Z" fill="#EDF0F4"/>
<path d="M17.7798 9.02118L26.6592 0H8.90039L17.7798 9.02118Z" fill="#EDF0F4"/>
<path d="M0 9.02118L8.90028 18.0212V0L0 9.02118Z" fill="#EDF0F4"/>
<path d="M17.7798 9.02112L8.90039 18.0211H26.6592L17.7798 9.02112Z" fill="#EDF0F4"/>
<path d="M43.3313 9.55059H40.1139V12.7694H38.5051V5.23059H40.1139V8.32236H43.3313V5.23059H44.9401V12.7694H43.3313V9.55059Z" fill="#EDF0F4"/>
<path d="M48.8262 12.9176C47.2175 12.9176 45.9013 12.2612 45.8804 10.4612H47.4891C47.51 11.2659 47.9696 11.7529 48.8471 11.7529C49.4948 11.7529 50.2469 11.4141 50.2469 10.6729C50.2469 10.08 49.7455 9.91057 48.9098 9.65646L48.3666 9.50822C47.1966 9.1694 46.0266 8.70352 46.0266 7.34822C46.0266 5.67528 47.5727 5.10352 48.9725 5.10352C50.4141 5.10352 51.6676 5.61175 51.6885 7.28469H50.0798C50.0171 6.60705 49.6202 6.20469 48.868 6.20469C48.2621 6.20469 47.6771 6.52234 47.6771 7.19999C47.6771 7.75057 48.1786 7.91999 49.2232 8.25881L49.85 8.4494C51.1244 8.85175 51.9393 9.29646 51.9393 10.567C51.9184 12.2612 50.2887 12.9176 48.8262 12.9176Z" fill="#EDF0F4"/>
<path d="M52.8376 5.25178H55.4283C55.9089 5.2306 56.4103 5.25178 56.8908 5.33648C57.7892 5.54825 58.4787 6.14119 58.4787 7.15766C58.4787 8.13178 57.8728 8.61884 56.9953 8.85178C57.9981 9.04237 58.7503 9.5506 58.7503 10.673C58.7503 12.3882 57.0789 12.7694 55.7835 12.7694H52.8585L52.8376 5.25178ZM55.4283 8.3859C56.1387 8.3859 56.8699 8.23766 56.8699 7.36943C56.8699 6.5859 56.2014 6.37413 55.5328 6.37413H54.4046V8.3859H55.4283ZM55.5746 11.6471C56.3267 11.6471 57.058 11.4777 57.058 10.5459C57.058 9.61413 56.4312 9.44472 55.6582 9.44472H54.3837V11.6471H55.5746Z" fill="#EDF0F4"/>
<path d="M62.9289 12.9177C60.5262 12.9177 59.4607 11.3718 59.4607 9.06357C59.4607 6.75534 60.6516 5.0824 63.0125 5.0824C64.4958 5.0824 65.9374 5.76004 65.9792 7.45416H64.3078C64.2242 6.69181 63.7228 6.31063 63.0125 6.31063C61.55 6.31063 61.1112 7.89887 61.1112 9.10593C61.1112 10.313 61.55 11.7106 62.9498 11.7106C63.681 11.7106 64.2242 11.3083 64.3287 10.5459H66.0001C65.833 12.2824 64.4749 12.9177 62.9289 12.9177Z" fill="#EDF0F4"/>
</g>
<defs>
<clipPath id="clip0_202_964">
<rect width="66" height="18" fill="white"/>
</clipPath>
</defs>
</svg>
