<svg width="43" height="40" viewBox="0 0 43 40" fill="none" xmlns="http://www.w3.org/2000/svg">
<path fill-rule="evenodd" clip-rule="evenodd" d="M42.1053 8.42105V33.6842H35.7855L35.7895 40L25.2632 33.6842H16.8421V8.42105H42.1053ZM25.2632 0V6.31579H21.0526L21.0526 4.21053H4.21053V21.0526L14.7368 21.0526V26.5263L6.31579 31.5789L6.31977 25.2632H0V0H25.2632ZM37.8947 12.6316H21.0526V29.4737H37.8947V12.6316ZM30.7104 14.7368L35.4885 27.3684H33.1351L31.8336 23.7492H27.0912L25.7986 27.3684H23.5789L28.25 14.7368H30.7104ZM29.4624 16.8495C29.2912 17.4486 29.0653 18.1407 28.7846 18.926L28.7492 19.0246L27.6884 22.0198H31.2274L30.1666 19.0246L30.0737 18.7566C29.8586 18.13 29.6548 17.4943 29.4624 16.8495ZM13.6544 5.51373L13.6543 6.56629H14.7368L14.7369 14.3307C14.5901 14.6134 14.4329 14.891 14.2652 15.1634C14.4151 15.2957 14.5722 15.4274 14.7367 15.5583L14.7368 18.1487C14.0904 17.726 13.5078 17.2913 12.9892 16.8439C11.5523 18.3615 9.5951 19.4372 7.14272 20.0743L6.5143 20.2255L6.0576 18.1704C8.4516 17.6384 10.2603 16.6918 11.5176 15.3351C10.3729 13.9327 9.56417 12.3474 9.09544 10.588L8.941 9.9453L10.9993 9.50321C11.3195 10.9937 11.9119 12.3319 12.7803 13.5264C13.5632 12.0796 14.0181 10.4647 14.1443 8.67172L6.28595 8.67162V6.56636L11.5491 6.56629L11.5491 5.51373H13.6544Z" fill="#0077FF"/>
</svg>
