<?xml version="1.0" encoding="UTF-8"?>
<svg id="Capa_2" data-name="Capa 2" xmlns="http://www.w3.org/2000/svg" viewBox="0 0 51.02 49.81">
  <defs>
    <style>
      .cls-1 {
        fill: #edf0f4;
      }
    </style>
  </defs>
  <g id="Capa_1-2" data-name="Capa 1">
    <g>
      <path class="cls-1" d="M50.98,43.19c-.03-.14-.39-.55-.45-.55h-1.49l-.15-.34V15.22c-.14-1.49-1.86-3.05-3.33-3.05h-1.94c.4-.89.37-1.64-.01-2.52-.49-1.13-1.3-1.41-2.31-1.97-2.82-1.59-5.75-2.91-8.55-4.53-.04-.02-.07-.02-.11-.04l-3.07-1.66c-.19-.11-.41-.23-.65-.35l-.33-.18h0c-.68-.34-1.38-.66-1.61-.72-1.27-.35-2.54-.22-3.73.31-4.93,2.18-9.76,5.54-14.7,7.8-1.27.81-1.83,2.47-1.16,3.87h-1.94c-1.46,0-3.2,1.57-3.32,3.05v27.08s-.16.34-.16.34H.45s-.31.37-.45.4v2.59l.32,1.12c.63,1.63,2.18,2.83,3.91,3.06h42.51c2.32-.31,4.05-2.2,4.24-4.53.03-.45.07-1.7,0-2.09ZM9.27,9.64L24.03,1.8c.96-.43,1.96-.38,2.92,0,.44.17,1.37.78,2.06,1.09l4.37,2.31h0l8.03,4.25c.65.39,1.12.93.96,1.74-.15.73-.6.97-1.18,1.31-2.6,1.52-5.63,3.04-8.33,4.42-.18.09-.67.38-.83.35l-5.93-6.83c-.7-.62-1.57-.05-1.24.85l5.82,6.63-.16.23c-2.03.85-4.02,2.91-6.38,1.93l-14.96-7.94c-.82-.79-.81-1.77.1-2.48ZM10.5,39.16h-3.44v-22.01h6.67v3.63c0,2.67,2.61,5.05,4.93,5.93,3.97,1.5,8.44,1.57,12.5.4.14,1.85-2,3.02-1.79,4.93.25,2.28,3.8,2.66,4.8.82,1.28-2.38-2.09-3.93-1.5-6.33,1.82-.55,3.46-2.23,4.12-4,.12-.33.45-1.45.45-1.74v-3.63h6.67v22.01H10.5ZM31.17,25.46c-2.46.96-5.37,1.15-8,.83-2.13-.25-5.2-1.05-6.64-2.72-.52-.61-1.29-2.1-1.29-2.89v-3.63l8.33,4.37c2.84,1.35,5.13-.88,7.6-1.88v5.92ZM31.91,29.7c.4.65,1.88,2.54.39,2.78-2.4.39-1.17-1.78-.39-2.78ZM32.66,24.92v-6.27l3.09-1.59v3.63c0,.28-.32,1.24-.45,1.54-.48,1.15-1.49,2.2-2.64,2.69ZM3.58,15.31c.36-2.17,3.6-1.57,5.13-1.65l3.83,1.99h-6.32c-.32,0-.73.49-.65.84v23.5c.08.42.36.59.76.64.63.09,2.83.1,3.72.01h34.41c.36,0,.78-.12.9-.5l.05-23.66c.08-.35-.33-.84-.65-.84h-6.32l3.83-1.99c1.45.15,3.73-.49,4.73.85.09.12.4.7.4.8v27.33H3.58V15.31ZM30.07,44.13c-.33.81-.87,1.23-1.74,1.3-1.95.14-4.09-.1-6.06-.03-.51-.09-1.27-.75-1.37-1.27h9.16ZM46.9,48.27l-42.57.05c-2.05-.35-3.08-2.2-2.84-4.18h17.77c.5,1.49,1.53,2.67,3.18,2.79,1.23.09,5.86.17,6.85-.13,1.28-.39,1.99-1.46,2.42-2.66h17.77c.22,1.89-.68,3.66-2.58,4.14Z"/>
      <path class="cls-1" d="M24.75,37.17c1.04.11,1.38-1.37.3-1.5h-15.14c-.61.06-.83.85-.42,1.27.15.15.5.21.71.23,4.62.42,9.86-.33,14.55,0Z"/>
      <path class="cls-1" d="M10,33.98c3.1.36,6.89-.27,10.06,0,.97-.1.84-1.45-.1-1.5l-10.14.02c-.84.3-.73,1.37.18,1.47Z"/>
    </g>
  </g>
</svg>