<?xml version="1.0" encoding="UTF-8"?>
<svg width="212" height="110" viewBox="0 0 212 110" fill="none" xmlns="http://www.w3.org/2000/svg">

<path d="M34.3244 45.0458C28.3462 45.0458 18.1574 41.5944 17.8009 30.8348C17.6545 26.6825 19.6322 23.8524 21.3172 22.2006C24.2482 19.3213 28.6239 17.7376 33.0297 18.0483C36.6924 18.2756 39.7697 19.7645 41.1132 20.5147C41.5185 20.7268 42.0214 20.6132 42.2953 20.2229L51.4634 6.97804C51.7711 6.55372 51.6398 5.94754 51.2044 5.67098C48.9528 4.24647 42.5055 0.635944 34.148 0.10933C24.6385 -0.477901 15.4892 2.87121 8.91053 9.3156C2.90232 15.222 -0.257524 23.0682 0.0164296 31.4409C0.680673 51.3916 17.4444 62.9999 33.6902 62.9999C62.1513 62.9999 78.3483 41.5451 88.2782 24.5381C88.4546 24.2123 88.9424 24.3411 88.9424 24.7162V56.0971C88.9424 56.6047 89.3477 57.0139 89.8656 57.0139H105.819C106.337 57.0139 106.742 56.6047 106.742 56.0971V4.87158C106.742 4.36391 106.337 3.95475 105.819 3.95475H81.0053C80.6638 3.95475 80.3561 4.13281 80.1947 4.42832C77.7479 9.03903 57.8581 45.0458 34.3244 45.0458Z" fill="currentColor"/>

<path d="M115.67 22.6056C115.67 11.111 124.935 0.741637 136.288 0.0407488C149.051 -0.728334 159.63 9.49327 159.63 22.1964L159.645 38.8094C159.645 41.1469 161.506 43.045 163.826 43.045C166.145 43.045 168.021 41.1469 168.021 38.8094L168.036 22.1964C168.036 9.48949 178.63 -0.728334 191.378 0.0407488C202.734 0.741637 212 11.111 212 22.6056V56.1118C212 56.6195 211.595 57.0287 211.092 57.0287H195.12C194.617 57.0287 194.212 56.6195 194.212 56.1118V22.3934C194.212 20.071 192.429 18.0252 190.129 17.9797C187.765 17.9153 185.821 19.8285 185.821 22.2002V38.8131C185.821 51.0768 175.973 61.0219 163.826 61.0219C151.678 61.0219 141.845 51.0806 141.845 38.8131V22.2002C141.845 19.6997 139.676 17.688 137.132 18.0138C134.993 18.2601 133.454 20.2036 133.454 22.3631V56.1156C133.454 56.6233 133.049 57.0325 132.546 57.0325H116.574C116.071 57.0325 115.666 56.6233 115.666 56.1156V22.6056H115.67Z" fill="currentColor"/>

<!-- Texto ajustado -->
<text 
  x="106" 
  y="95" 
  text-anchor="middle" 
  font-family="Arial, Helvetica, sans-serif" 
  font-size="18" 
  font-weight="700"
  fill="currentColor">
  PY Resolución 851/2025
</text>

</svg>