<?xml version="1.0" encoding="UTF-8"?>
<svg id="Capa_2" data-name="Capa 2" xmlns="http://www.w3.org/2000/svg" viewBox="0 0 51.02 49.99">
  <defs>
    <style>
      .cls-1 {
        fill: #edf0f4;
      }
    </style>
  </defs>
  <g id="Capa_1-2" data-name="Capa 1">
    <g>
      <path class="cls-1" d="M32.53,36.96c.09,1.91.36,3.88.96,5.7.08.24.44,1.31.54,1.42.18.22,2.68.06,3.2.1,3.23.29,3.77,4.51.8,5.65-8.08.31-16.23.04-24.34.14-3.59-.47-3.52-5.5.21-5.79.48-.04,2.87.09,3.03-.01.99-2.26,1.35-4.75,1.46-7.21H3.47c-1.47,0-3.59-2.45-3.46-3.97V3.98C.18,1.91,1.81.23,3.88,0h43.99c1.69.09,2.96,1.41,3.14,3.05v29.84c.19,1.56-1.96,4.07-3.46,4.07h-15.02ZM49.56,28.5V2.95s-.27-.62-.33-.71c-.32-.48-.91-.76-1.48-.8H4.08c-1.04-.08-2.63,1.33-2.63,2.33v24.73h48.11ZM49.56,29.94H1.45v3.25c0,.96,1.44,2.29,2.43,2.32h43.05c1.06.12,2.63-1.32,2.63-2.32v-3.25ZM31.08,36.96h-11.25c-.09,2.46-.46,4.93-1.34,7.23h14.04c-.95-2.27-1.34-4.77-1.45-7.23ZM13.71,45.66c-1.64.34-1.64,2.67.08,2.87,7.95-.06,15.93.13,23.85-.1,1.42-.66,1.05-2.62-.52-2.79l-23.41.03Z"/>
      <path class="cls-1" d="M17.54,9.18s.11-.32.22-.45c.36-.42,1.5-1.61,1.98-1.73,1.22-.32,1.63,1.26,2.91.53.84-.48.34-1.83,1.38-2.34.45-.22,2.58-.21,3.01.04,1.03.58.38,1.9,1.45,2.37,1.38.59,1.79-1.39,3.25-.36.53.37,1.4,1.38,1.72,1.95h3.11s3.02-2.98,3.02-2.98c.1-.24-.13-.68-.16-.98-.22-2.62,3.12-3.77,4.52-1.63,1.45,2.21-1,4.68-3.29,3.6l-3.48,3.44c-1.18.2-2.89-.19-4,.02-.7.14-.49,1.34,0,1.75s.95.21,1.42.44.82.9.8,1.42l1.44-.05c1.12-2.89,5.27-1.89,4.84,1.23-.33,2.39-4.16,2.77-4.75.28h-1.53c0,.38-.11.72-.36,1.02-.51.61-1.13.33-1.7.67-.47.28-.85,1.25-.47,1.7.23.28,3.48-.03,4.19.15.83.22,2.77,2.82,3.61,3.41.24.11.57-.13.87-.16,2.84-.29,3.87,3.34,1.59,4.59-2.26,1.24-4.51-1.11-3.45-3.35l-3.21-3.09h-3.03c-.18.63-1.59,2.12-2.15,2.25-1.33.3-1.55-1.09-2.77-.6-1.12.44-.48,1.77-1.39,2.33-.59.36-2.46.36-3.09.11-1.2-.46-.38-2.11-1.75-2.48-1.14-.31-1.31.95-2.61.65-.57-.13-1.97-1.61-2.15-2.23l-3.24.08-2.99,3c1.08,2.24-1.2,4.58-3.45,3.35-2.28-1.25-1.25-4.88,1.59-4.59.3.03.63.27.87.16.84-.59,2.79-3.2,3.61-3.41.71-.18,3.95.13,4.19-.15.38-.45,0-1.42-.47-1.7-.57-.35-1.2-.06-1.7-.67-.25-.3-.35-.64-.36-1.03h-1.53c-.59,2.49-4.42,2.12-4.75-.27-.43-3.13,3.72-4.11,4.84-1.23l1.44.05c-.02-.52.32-1.19.8-1.42s.93-.02,1.42-.44c.48-.41.71-1.62,0-1.75-1.12-.21-2.82.17-4-.02l-3.48-3.44c-2.25,1.06-4.7-1.31-3.33-3.53,1.32-2.14,4.62-1.16,4.57,1.36,0,.44-.22.77-.17,1.18l2.89,2.9c.21.12,3.1.17,3.24.08ZM10.13,4.96c0-.57-.46-1.03-1.03-1.03s-1.03.46-1.03,1.03.46,1.03,1.03,1.03,1.03-.46,1.03-1.03ZM42.95,4.96c0-.57-.46-1.03-1.03-1.03s-1.03.46-1.03,1.03.46,1.03,1.03,1.03,1.03-.46,1.03-1.03ZM26.33,6.51h-1.65c0,2.31-2.81,3.45-4.51,1.97l-1.14,1.07c1.47,1.81.37,4.52-1.99,4.6l.04,1.56c2.28.25,3.48,2.81,1.92,4.6l1.07,1.15c1.75-1.49,4.48-.44,4.6,1.88h1.65c.05-1.9,2.12-3.12,3.84-2.35.18.08.66.51.8.44l1.02-1.05c-1.47-1.8-.47-4.41,1.87-4.63l.1-1.6c-1.87,0-3.13-1.96-2.5-3.68.08-.22.54-.85.49-.96l-1.05-1.02c-1.78,1.43-4.54.41-4.58-1.97ZM12.79,14.96c0-.57-.46-1.04-1.04-1.04s-1.04.46-1.04,1.04.46,1.04,1.04,1.04,1.04-.46,1.04-1.04ZM40.3,14.96c0-.57-.46-1.04-1.04-1.04s-1.04.46-1.04,1.04.46,1.04,1.04,1.04,1.04-.46,1.04-1.04ZM10.14,24.95c0-.57-.46-1.03-1.03-1.03s-1.03.46-1.03,1.03.46,1.03,1.03,1.03,1.03-.46,1.03-1.03ZM42.95,24.95c0-.57-.46-1.03-1.03-1.03s-1.03.46-1.03,1.03.46,1.03,1.03,1.03,1.03-.46,1.03-1.03Z"/>
      <path class="cls-1" d="M23.41,32.03c.5-.11,3.55-.1,4.1-.02.9.14.81,1.3.11,1.44-.47.09-3.75.09-4.23,0-.69-.13-.78-1.24.02-1.42Z"/>
      <path class="cls-1" d="M30.7,14.95c0,2.87-2.33,5.19-5.19,5.19s-5.19-2.33-5.19-5.19,2.33-5.19,5.19-5.19,5.19,2.33,5.19,5.19ZM29.26,14.96c0-2.07-1.68-3.75-3.75-3.75s-3.75,1.68-3.75,3.75,1.68,3.75,3.75,3.75,3.75-1.68,3.75-3.75Z"/>
    </g>
  </g>
</svg>