<?xml version="1.0" encoding="UTF-8"?>
<svg id="Capa_2" data-name="Capa 2" xmlns="http://www.w3.org/2000/svg" viewBox="0 0 51.02 51.02">
  <defs>
    <style>
      .cls-1 {
        fill: #edf0f4;
      }
    </style>
  </defs>
  <g id="Capa_1-2" data-name="Capa 1">
    <g>
      <path class="cls-1" d="M10.08,0h40.94v28.19c-.11.12-.4.5-.55.5H17.55v16.44l.69-.85c.94-1,2.1-1.77,3.39-2.24.11-.15-.57-.69-.69-.85-1.32-1.73-1.41-5.28-.24-7.11,1.79-2.8,5.85-2.94,7.85-.3,1.37,1.81,1.34,5.62-.04,7.41-.12.16-.8.7-.69.85,2.09.74,3.81,2.34,4.77,4.32l.21.06c.92-2.03,2.69-3.62,4.78-4.38.11-.15-.57-.69-.69-.85-1.3-1.7-1.4-5.16-.32-6.99,1.7-2.88,5.82-3.12,7.88-.48,1.42,1.82,1.4,5.66,0,7.47-.12.16-.8.7-.69.85,2.85,1,5.05,3.68,5.55,6.66.11.65.42,2.1-.44,2.29-1.29.28-1-1.38-1.15-2.19-1.42-7.6-12.67-7.6-14.09,0-.15.81.14,2.48-1.15,2.19-.77-.17-.57-1.52-.7-2.19-1.42-7.6-12.67-7.6-14.09,0-.09.48-.05,1.45-.2,1.79-.26.61-1.28.56-1.47-.07-.13-.42-.08-1.27-.19-1.8-1.51-7.54-12.66-7.47-14.07.08-.14.75.12,2.18-.88,2.22-1.29.05-.8-2.02-.62-2.82.65-2.8,2.75-5.2,5.45-6.16.04-.15-.04-.16-.1-.25-.24-.35-.66-.64-.92-1.08-.3-.51-.57-1.16-.59-1.76-1.89-.29-3.15-1.87-3.28-3.74-.25-3.52.08-7.49.15-11.02.67-2.74,3.23-4.51,6.03-4.28-1.41-1.51-1.58-3.74-1.38-5.72.21-2.09,1.88-4.1,3.97-4.45V.75c0-.37.25-.54.5-.75ZM49.43,1.59H11.18v7.97c2.53.2,4.56,2.21,4.78,4.73.18,1.99,0,4.1-1.39,5.63h8.32c.95-1.05,1.76-2.23,2.69-3.29.84-.96,1.74-2.13,3.14-2.19V3.84c.13-.77,1.17-.9,1.52-.23l.07,10.78c.04.28.36.28.55.45,2.11,1.81.7,3.38-.55,5.03-1.17,1.54-2.78,3.71-4.08,5.08-.11.12-.52.55-.64.55h-8.02v1.59h31.88V1.59ZM10.25,11.18c-5,.68-3.78,10.45,1.75,8.52,2.29-.8,2.57-3.17,2.36-5.31-.2-2.01-2.11-3.48-4.11-3.21ZM4,37.26v-12c0-.69,1.59-.69,1.59,0v7.82c2.98-2.57,7.66-.71,7.97,3.23.13,1.64.03,3.55-1,4.88-.12.16-.8.7-.69.85,1.67.56,3.01,1.73,4.08,3.09v-20.67c0-.19.5-.61.74-.55l8.4-.02,5.13-6.48c.33-1.14-.41-1.69-1.5-1.4-.8.21-1.85,1.63-2.41,2.28-.83.96-1.59,2-2.39,2.99-.25.21-.63.23-.95.25-5.47.39-11.42-.31-16.94,0-1.9.2-3.46,1.71-3.64,3.64-.29,3.24.21,6.88,0,10.16.09.84.75,1.75,1.59,1.94ZM8.36,33.5c-2.61.31-2.96,2.84-2.77,5,.35,3.85,5.95,3.88,6.36.09.27-2.52-.45-5.46-3.6-5.09ZM24.3,33.5c-2.61.31-2.96,2.84-2.77,5,.35,3.85,5.95,3.88,6.36.09.27-2.52-.45-5.46-3.6-5.09ZM40.24,33.5c-2.61.31-2.96,2.84-2.77,5,.35,3.85,5.95,3.88,6.36.09.27-2.52-.45-5.46-3.6-5.09Z"/>
      <path class="cls-1" d="M4.57,47.84c.34-.07.73.02.91.34.16.28.17,1.9.09,2.26-.17.78-1.43.78-1.57-.08-.1-.62-.2-2.35.56-2.51Z"/>
      <path class="cls-1" d="M12.54,47.84c.34-.07.73.02.91.34.16.28.17,1.9.09,2.26-.17.78-1.43.78-1.57-.08-.1-.62-.2-2.35.56-2.51Z"/>
      <path class="cls-1" d="M20.51,47.84c.34-.07.73.02.91.34.16.28.17,1.9.09,2.26-.17.78-1.43.78-1.57-.08-.1-.62-.2-2.35.56-2.51Z"/>
      <path class="cls-1" d="M28.48,47.84c.34-.07.73.02.91.34.16.28.17,1.9.09,2.26-.17.78-1.43.78-1.57-.08-.1-.62-.2-2.35.56-2.51Z"/>
      <path class="cls-1" d="M36.45,47.84c.34-.07.73.02.91.34.16.28.17,1.9.09,2.26-.17.78-1.43.78-1.57-.08-.1-.62-.2-2.35.56-2.51Z"/>
      <path class="cls-1" d="M44.42,47.84c.34-.07.73.02.91.34.16.28.17,1.9.09,2.26-.17.78-1.43.78-1.57-.08-.1-.62-.2-2.35.56-2.51Z"/>
    </g>
  </g>
</svg>