<?xml version="1.0" encoding="UTF-8"?>
<svg id="Capa_2" data-name="Capa 2" xmlns="http://www.w3.org/2000/svg" viewBox="0 0 51.02 63.73">
  <defs>
    <style>
      .cls-1 {
        fill: #edf0f4;
      }
    </style>
  </defs>
  <g id="Capa_1-2" data-name="Capa 1">
    <path class="cls-1" d="M50.57,46.9c-.1-.14-.28-.27-.39-.41-.94-.66-2.18-.77-3.12-.05-.02-.73,0-1.51-.38-2.17-1.32-2.22-4.75-1.29-4.8,1.3l-.08,5.08-4.52-.09c.77-2.24,1.12-4.66.97-7.18.52-.31,1.08-.44,1.64-.73,7.09-3.73,10.18-12.38,7.4-19.81l-1.2-2.42c-.38-.64-1.06-1.48-1.55-2.06-3.93-4.67-10.57-6.69-16.42-4.95C27.39,6.35,22.12-.87,14.35.08,3.44,1.42-2.06,15.24.71,24.88c.88,3.05,2.35,5.51,4.67,7.68C1.43,37.07.02,43.59,1.57,49.37c.47,1.73,1.24,3.16,1.97,4.79l-1.4,6.03c-.08.85.04,1.39.69,1.98.59.53,2.92,1.04,3.68.77,1.54-.54,1.41-2.18,1.82-3.49,2.83,2.04,6.09,3.36,9.56,3.68,1.61.15,3.18.09,4.69-.16,1.22.79,3,.37,3.69-.99,3.25-1.25,6.06-3.39,8.15-6.11l7.16.12-.05,5.34c.24,2.56,3.55,3.27,4.82,1.06.38-.65.28-1.31.34-2.02,1.68,1.23,3.93.29,4.16-1.83l.17-10.43c-.04-.38-.23-.93-.45-1.23ZM42.77,39.24c-.68,1.11-2.88,2.08-3.93,2.84.83-2.49,1.62-5.08,1.25-7.73.97,0,1.95.08,2.9-.19.22.12.33,1.83.33,2.16,0,.56-.28,2.49-.55,2.93ZM44.18,37.65c.15-1.23.22-2.55-.2-3.73l2.64-1.03c-.44,1.72-1.29,3.39-2.44,4.76ZM46.56,23.89c.49,1.71.8,3.46.74,5.25-.01.41-.1,1.81-.25,2.12-.4.84-3.11,1.65-4.04,1.87-2.19.52-4.1.24-5.99-.98-.22-.14-.82-.53-.96-.68-.26-.29.71-.42.91-.51,3.63-1.62,6.84-4.25,9.59-7.07ZM44.29,19.64c.37.5,1.83,2.64,1.79,3.12-.52.78-1.22,1.46-1.91,2.1-2.62,2.46-5.73,4.46-9.09,5.72-1.33-1.16-2.41-2.55-3.53-3.91l-.02-.23c1.59-3.35,4.08-6.27,7.32-8.16.57-.33,2.16-1.24,2.75-1.23.53.01,2.32,2.07,2.7,2.58ZM32.94,13.77l-2.2,1.77-2.34-.15-.22-.16-.05-.71c1.5-.67,3.2-.66,4.81-.75ZM28.1,16.43c.22-.07,1.65-.16,1.59.17l-1.6,1.75v-1.92ZM34.74,14.01c2.07.3,4.16,1.07,5.88,2.27-4.38,1.85-7.74,5.2-9.87,9.39-1.01-1.66-2.24-3.2-3-5,1.57-2.82,4.18-5.09,6.99-6.66ZM37.87,33.72c.3.14,1.06.26,1.21.51.24,2.31-.08,4.83-1.11,6.91-1.22-6.7-6.22-12.33-12.69-14.34l1.33-2.84.64-1.89c2.65,4.19,5.99,9.48,10.62,11.66ZM3.86,24.95c-.14-.09-.47-1.23-.49-1.46-.02-.14-.14-.16.1-.24l2.71.64-.3,1.45-2.02-.39ZM5.6,26.37l-.18,1.25c-.17.3-.98-1.34-1.14-1.49l1.32.24ZM7.22,11.41l1.68.27c.17.09-.1,1.41-.27,1.5l-1.78-.43.38-1.34ZM6.9,7.6l.25-.23-.07.28-.19-.05ZM21.84,7.13l-.2,1.24c-.23.35-1.48-.32-1.84-.17l.3-1.51,1.74.43ZM20.33,5.67l.14-.66c.14-.07,1.04.72,1.09.96l-1.23-.3ZM24.29,10.24c.35.29.38,1.19.59,1.62l-2.92-.68.32-1.26c.18-.21,1.82.18,2,.32ZM22.52,8.72c.1-.14.2-1.37.47-1.26l.87,1.49c-.07.23-1.17-.14-1.34-.23ZM18.23,23.08l-1.83-.41.31-1.43,1.78.42c-.04.48-.34.96-.25,1.43ZM14.88,24.88l-1.84-.41.32-1.42,1.76.4c-.02.49-.33.96-.25,1.42ZM8.64,18.29l.14-1.35,1.94.34c-.2.3-.16,1.14-.39,1.34-.21.18-1.38-.23-1.69-.33ZM10.16,19.75l-.38,1.34-1.71-.32.21-1.38,1.88.36ZM9.08,15.9c.17-.31.14-1.13.39-1.34.21-.18,1.38.19,1.7.33l-.31,1.43-1.78-.42ZM9.64,13.43l.38-1.34,1.71.32-.16,1.36c-.13.23-1.64-.28-1.93-.34ZM11.63,17.58l1.88.37-.38,1.33-1.7-.32.2-1.38ZM15.49,13.35l1.83.41-.31,1.43-1.78-.42c.04-.48.34-.96.25-1.43ZM18.85,11.56l1.83.41-.31,1.43-1.77-.42c.02-.49.34-.96.25-1.42ZM22.29,17.47l-.19,1.38-1.69-.28c-.22-.14.07-1.39.27-1.49l1.61.39ZM21.14,14.67l1.72.33c.18.19-.14,1.09-.22,1.37-.15.11-1.58-.18-1.71-.33-.22-.26.22-1,.2-1.37ZM20.03,14.27c.22.14-.07,1.4-.27,1.49l-1.61-.39.19-1.38,1.69.28ZM19.5,16.8c.18.21-.14,1.07-.22,1.37l-1.71-.33c-.22-.25.21-1.02.21-1.38l1.72.34ZM17.57,12.71l-1.77-.4.38-1.34,1.7.32c.11.15-.21,1.36-.32,1.41ZM16.67,16.07c.22.14-.07,1.4-.27,1.49l-1.61-.39.19-1.38,1.69.28ZM14.89,12.02c-.25.18-1.52-.29-1.89-.38l.38-1.34,1.68.26-.18,1.46ZM14.52,13.09l-.31,1.43-1.78-.42.39-1.33,1.7.32ZM13.97,15.56l-.31,1.43-1.66-.5.14-1.35c.08-.15,1.6.27,1.83.41ZM13.56,21.92l.35-1.35,1.76.37-.29,1.51-1.82-.52ZM14.22,19.64c-.22-.23.2-1.04.21-1.38.14-.11,1.59.19,1.71.34.19.22-.14,1.06-.21,1.37l-1.71-.33ZM16.16,23.73l1.77.4-.38,1.34-1.71-.32c-.1-.12.2-1.34.32-1.42ZM17.05,20.36c-.22-.14.07-1.4.27-1.49l1.61.39-.19,1.38-1.69-.28ZM18.84,24.42c.26-.19,1.53.27,1.89.38l-.35,1.07-1.71.02.18-1.46ZM19.2,23.34c-.11-.15.21-1.36.32-1.41l1.77.4-.38,1.34-1.7-.32ZM19.76,20.87l.31-1.43,1.78.42-.25,1.43-1.83-.41ZM21.69,24.94l1.01.25c0,.68-.63,1.11-1.27.76l.25-1.01ZM22.02,24.09l.18-1.46c.25-.18,1.36.26,1.72.32l-.55,1.28-1.35-.14ZM22.56,21.55l.31-1.43,1.77.44-.31,1.41-1.77-.42ZM23.12,19.08l.31-1.43,1.75.37-.28,1.51-1.79-.45ZM23.73,16.73c-.18-.19.13-1.08.22-1.37l1.35.15-.02,1.49c-.13.1-1.49-.21-1.55-.27ZM24.5,12.87c1.05-.15.57.99.87,1.63-1.49,0-1.13-.52-.87-1.63ZM23.52,12.72l-.35,1.35-1.76-.37.29-1.51,1.82.52ZM21.25,9.49c.1.12-.2,1.34-.32,1.42l-1.76-.4.38-1.34,1.71.32ZM19.31,5.42l-1.75-.41.23-1.28c.21-.17,1.45.5,1.72.61l-.21,1.08ZM19.04,6.46l-.28,1.44-1.78-.43.32-1.43,1.75.42ZM18.48,8.93l-.2,1.24c-.19.28-1.59-.23-1.92-.33l.38-1.34,1.74.43ZM16.5,4.76l-1.74-.43.25-.99,1.87.08-.38,1.34ZM16.27,5.79l-.32,1.43-1.75-.42.28-1.44,1.78.43ZM15.68,8.26l-.28,1.44-1.78-.42.32-1.43,1.75.41ZM13.63,4.13l-1.22-.35c.25-.04,1.42-.44,1.51-.27l-.29.61ZM13.44,5.05l-.3,1.51-1.73-.43.23-1.29c.35-.25,1.38.35,1.81.22ZM12.91,7.59l-.31,1.42-1.76-.42.29-1.43,1.78.43ZM12.32,10.05l-.33,1.34-1.71-.26.3-1.51,1.74.43ZM10.35,5.89l-1.27-.25,1.51-1.09c.17.06-.11,1.19-.25,1.34ZM10.16,7.01l-.44,1.33-1.78-.47.4-1.37,1.82.5ZM9.55,9.39l-.31,1.43-1.77-.42.31-1.43,1.77.42ZM8.37,14.21l-.15,1.35-1.94-.34.39-1.33,1.7.32ZM5.83,17.62l.31-1.43,1.67.5-.31,1.43-1.67-.49ZM7.36,19.07l-.39,1.33-1.7-.32.14-1.35,1.94.34ZM6.44,10.13c-.19-.04-1.13-.12-1.09-.4.35-.27.61-1.14,1.07-1.15l.33.13-.32,1.42ZM6.19,11.18l-.31,1.43-1.67-.47.65-1.3,1.33.35ZM5.58,13.53l-.21,1.38-1.88-.38.28-1.27c.29-.25,1.41.24,1.81.27ZM5.01,16.01l-.14,1.35-1.94-.34.15-1.37c.12-.22,1.66.25,1.93.36ZM4.56,18.4c-.27,1.41-.29,1.67-1.75,1.12l-.03-1.41,1.78.28ZM4,20.87l-.46,1.38c-.8-.06-.52-.99-.71-1.56l1.18.17ZM4.74,22.61c-.17-.09.1-1.41.27-1.5l1.78.43-.38,1.34-1.68-.27ZM6.66,26.62l1.74.43-.36,1.33-1.68-.26c-.15-.08.17-1.31.3-1.51ZM8.49,29.67l-.82.53-1.04-.98c.05-.15,1.71.28,1.86.45ZM6.81,25.61l.35-1.49,1.87.44-.35,1.49-1.87-.44ZM7.41,23.04l.35-1.35,1.75.37-.29,1.51-1.82-.52ZM9.45,27.29l2.06.48-1.6.79c-.26.13-.28.44-.83.07l.36-1.33ZM11.39,26.58l-1.71-.31.32-1.42,1.75.4-.36,1.33ZM10.25,23.79l.31-1.43,1.78.42-.31,1.45-1.78-.43ZM10.9,21.49c-.25-.16.11-1.24.27-1.49.08-.04.97.15,1.13.2,1.04.34.32.74.29,1.57l-1.69-.28ZM12.89,25.46l3.08.8c-.91.04-1.97.67-2.79.8-.09.01-.71-.05-.73-.21.03-.26.2-1.32.44-1.39ZM14.77,27.59c2.33-.71,4.77-.74,7.18-.58l-2.27,1.84c-1.15,1.07-2.17,2.26-3.09,3.53-1.8-.88-2.61-2.94-1.82-4.78ZM23.85,27.46c.86-.03,3.55,1.21,4.38,1.67,1.21.68,2.54,1.6,3.46,2.64l-1.7-.53c-4.25-.77-8.24,3.42-12.47,1.5,1.22-1.53,4.31-5.21,6.32-5.28ZM4.57,30.26C-3.27,20.91,2.7.96,15.69.99c10.47.02,13.14,13.49,10.38,21.58-.2.6-1.44,3.51-1.79,3.8-.24.2-.71-.05-.95-.19,2.71-4.02,3.73-9.56,2.57-14.3C23.24,1.03,12.21-.99,5.49,7.81.57,14.25.12,25.38,6.85,30.81l-.66.79c-.29.17-1.39-1.07-1.62-1.34ZM13.55,28c.09.47-.1.91-.06,1.4.12,1.65,1.08,2.95,2.46,3.78l-2.92,5.05c-2.93-.82-5.82-1.8-8.83-2.27,2.02-3.64,5.39-6.6,9.34-7.97ZM18.59,45.93l-.54.53c-.26.33-.44.89-.49,1.31l-.02.75c-1.2-2.38-2.82-4.74-5.3-5.73-.1-.14.15-.72.22-.91.16-.44.74-1.97.94-2.25.12-.16.15-.1.3-.08.38.05,2.01.83,2.49,1.04,2.07.93,4.1,1.99,6.1,3.14-.05.06-.1.12-.14.19-.42.68-.37,1.39-.46,2.15-.91-.75-2.14-.76-3.12-.14ZM21.49,57.39c0,.24,0,.49-.01.73-.04.24-.11.46-.21.64-.7,1.24-2.74.93-2.9-.73l.05-4.71.03-2.84.03-2.35c.03-.34.1-.7.31-.98.81-1.07,2.39-.77,2.8.49.1,3.24-.06,6.49-.09,9.74ZM3.7,36.98c3.01.26,5.89,1.33,8.78,2.16l-1.28,3.5c-2.93,0-4.98,2.25-6.51,4.48l-1.8,3.1c-1.47-4.32-1.18-9.17.8-13.25ZM5.28,61.98c-2.2-.36-2.33-.66-1.91-2.74.21-1.05.52-2.58.84-3.56.05-.16.04-.28.25-.33.77,1.31,1.9,2.35,2.99,3.38-.5,1.44-.03,3.6-2.17,3.25ZM3.49,51.67c-.06-.34,1.37-2.93,1.65-3.38,1.22-1.97,3.23-4.64,5.76-4.55-1.42,5.56-.71,11.57,1.48,16.86-3.95-1.64-7.24-4.96-8.89-8.93ZM17.96,62.16c-.71-.07-3.88-.59-4.22-1.06-2.52-5.32-3.27-11.5-1.86-17.22.38-.32,1.99,1.06,2.28,1.37,1.55,1.63,2.5,3.62,3.33,5.67l-.15,7.13c.11,2.05,2.5,3.15,4.1,1.87.05.62-.08,1.2.15,1.81.05.12.11.23.17.34-1.27.16-2.57.2-3.8.08ZM25.77,45.8h0c0,5.04-.07,10.12-.25,15.16,0,.15,0,.29-.01.44-.51,1.23-1.92,1.31-2.63.51-.21-.24-.37-.56-.41-.96v-.92s.04-1.38.04-1.38l.22-13.47c.02-.34.17-.72.4-.98,0,0,0,0,0,0,.3-.33.69-.49,1.09-.5.6-.02,1.19.31,1.48.89.03.07.07.12.1.2,0,.34,0,.69,0,1.03ZM23.08,43.03c-2.55-1.47-5.15-2.83-7.84-3.96-.23-.1-1.35-.35-1.31-.58l3.03-4.77c2.19.78,4.27.56,6.46-.09,3.13-.93,4.66-2.27,8-.9,2.29.93,2.98,1.84,4.07,4.06,2.1,4.29,2.31,9.3.71,13.76l-1.44-.03c-2.59-1.74-5.2-3.5-7.87-5.18v-.41c-.25-1.94-2.34-2.73-3.81-1.9ZM32.86,50.48l-6.02-.11.05-3.86c2.02,1.29,4.01,2.63,5.98,3.98ZM30.02,58.84c-.56.4-2.3,1.54-3.46,2l.08-5.08,6.52.11c-.91,1.1-1.94,2.1-3.14,2.97ZM41.69,54.98l-6.53-.11-1.21-.02-7.19-.12.05-3.26,7.69.12,2.37.04,4.87.08-.05,3.26ZM45.77,61.37c-.25,1.68-2.47,1.9-3.05.31-.03-5.51.09-11.07.25-16.58.06-.12.12-.29.2-.4.92-1.22,2.68-.71,2.86.76l-.26,15.91ZM50.01,58.41c-.2,2.07-3.02,2.03-3.16-.05.26-3.14-.17-6.66.15-9.76.04-.34.09-.69.31-.98.94-1.25,2.79-.59,2.86.94l-.16,9.85Z"/>
  </g>
</svg>