<?xml version="1.0" encoding="UTF-8"?>
<svg id="Capa_2" data-name="Capa 2" xmlns="http://www.w3.org/2000/svg" viewBox="0 0 51.02 54.4">
  <defs>
    <style>
      .cls-1 {
        fill: #edf0f4;
      }
    </style>
  </defs>
  <g id="Capa_1-2" data-name="Capa 1">
    <g>
      <path class="cls-1" d="M10.75,0c1.59.51,2.14,1.8,2.08,3.4h25.44c-.21-1.61.48-2.88,2.02-3.4h1.06c1.53.49,2.23,1.82,2.02,3.4,3.04.08,7.29-.9,7.65,3.34v35.92c-.11,1.42-1.03,2.7-2.43,3.1-.95.27-5.86.27-6.98.14s-1.04-1.55-.1-1.7c1.86-.29,4.78.36,6.53-.05.45-.11,1.27-.81,1.27-1.28V13.6H1.72v29.27c0,.48.8,1.18,1.27,1.28,1.85.39,4.63-.24,6.53.05.94.15.98,1.57-.1,1.7s-6.03.13-6.98-.14c-1.39-.4-2.32-1.68-2.42-3.1C.12,30.39-.16,18.07.16,5.82c1.1-3.37,4.8-2.23,7.51-2.42-.21-1.6.48-2.87,2.02-3.4h1.06ZM9.98,1.72c-.32.07-.55.36-.6.68-.13.81-.11,3.61,0,4.46.13,1.08,1.55,1.04,1.7.1.13-.8.11-3.62,0-4.46-.07-.59-.5-.9-1.09-.77ZM40.58,1.72c-.32.07-.55.36-.6.68-.13.81-.11,3.61,0,4.46.13,1.08,1.55,1.04,1.7.1.13-.8.11-3.62,0-4.46-.07-.59-.5-.9-1.09-.77ZM7.67,5.1H3.05c-.42,0-1.33.94-1.33,1.33v5.47h47.6v-5.47c0-.42-.9-1.33-1.33-1.33h-4.62v2.18c0,.06-.29.7-.36.81-1.02,1.68-3.37,1.68-4.39,0-.07-.11-.36-.75-.36-.81v-2.18H12.77v2.18c0,.12-.34.79-.44.94-1.06,1.58-3.32,1.5-4.3-.13-.07-.11-.36-.75-.36-.81v-2.18Z"/>
      <path class="cls-1" d="M10.21,54.12c-.19,0-.35-.08-.46-.22-.11-.16-.14-.37-.07-.59l7.49-21.72c.12-.48.51-.82,1.03-.9.08-.01.16-.02.25-.02,2.01,0,5.78,3.16,6.88,4.12,2.04,1.79,7.68,7.58,7.77,10.43.02.54-.27,1.19-.82,1.33l-21.83,7.53c-.08.02-.16.04-.24.04ZM11.23,52.62l6.2-2.2-.09-.55h-5.31l-.8,2.76ZM12.48,48.73h10.07l3.13-1.22-1.34-.99-11.06-.07-.79,2.27ZM17.38,34.59c-.04.24-.17.53-.29.82-.14.32-.29.66-.33.97-.06.46.39,1.13,1.18,2.13l.14.17c1.87,2.41,4.62,5.17,7.01,7.01l.1.08c1.04.8,1.52,1.14,1.74,1.2.08.02.19.05.31.05.11,0,.21-.02.31-.06l2.22-.92-.5-.29c-3.41-1.99-6.68-5.01-9.99-9.25l-1.79-2.62-.11.7ZM18.31,31.89l-.1.1.02.14c.06.41.21.79.34,1.08,1.58,3.65,8.47,10.49,12.08,12.01,0,0,.79.33,1.01.33h.12s.1-.09.1-.09c.1-.1.19-.19-.21-1.15-1.57-3.83-8.61-10.83-12.36-12.29,0,0-.6-.22-.79-.22h-.12l-.1.09ZM13.62,45.33h9.2l-2.22-2.16-6.03-.09-.95,2.25ZM16.36,38.39c-.3.02-.39.27-.43.38-.2.45-.33.9-.46,1.34-.14.49-.29.99-.5,1.41l-.2.41h4.55l-2.79-3.55h-.15Z"/>
      <path class="cls-1" d="M28.9,36.27c-.18,0-.35-.08-.45-.23-.1-.14-.13-.33-.08-.53l6.91-7.01c.07-.07.16-.14.26-.17.06-.01.12-.02.18-.02.23,0,.43.11.52.31.1.21.06.46-.11.67l-6.83,6.83c-.11.08-.26.14-.4.14Z"/>
      <path class="cls-1" d="M32.31,39.68c-.1,0-.2-.03-.31-.1-.15-.08-.23-.19-.25-.32-.03-.21.08-.49.3-.71.96-1.01,2.89-1.77,4.49-1.78,1.57,0,3.3.64,4.36,1.59.33.3.56.74.5.99-.01.05-.04.19-.33.29-.1.03-.19.05-.27.05-.2,0-.32-.11-.53-.32-.12-.12-.25-.25-.42-.37-1.05-.7-2.2-1.08-3.33-1.08-1.06,0-2.08.32-3.03.95-.16.11-.31.24-.46.38-.25.23-.48.44-.72.44Z"/>
      <path class="cls-1" d="M25.46,32.89c-.13,0-.24-.06-.36-.2-.32-.36-.15-.62.33-1.16.14-.16.28-.32.38-.47,1.05-1.62,1.19-3.64.37-5.39-.14-.29-.44-.68-.74-1.06-.18-.23-.43-.55-.47-.65-.04-.18,0-.37.08-.52.07-.11.17-.18.29-.21.04,0,.08-.01.12-.01.6,0,1.18.97,1.43,1.38,1.29,2.15,1.26,4.83-.08,6.99-.5.81-1.01,1.29-1.36,1.29Z"/>
      <path class="cls-1" d="M17.02,28.64c-.14,0-.28-.07-.39-.2-.12-.15-.31-.5-.18-1.2l.07-.4-.4.07c-.16.03-.3.04-.43.04-.43,0-.76-.14-.9-.38-.08-.15-.08-.32,0-.46.14-.24.47-.38.9-.38.13,0,.28.01.43.04l.4.07-.07-.4c-.12-.7.06-1.05.18-1.2.11-.13.24-.2.39-.2s.28.07.39.2c.12.15.31.5.18,1.2l-.07.4.4-.07c.16-.03.3-.04.43-.04.66,0,.96.32.96.61s-.3.61-.96.61c-.13,0-.28-.01-.43-.04l-.4-.07.07.4c.13.7-.06,1.05-.18,1.2-.11.13-.24.2-.39.2Z"/>
      <path class="cls-1" d="M37.42,49.04c-.14,0-.28-.07-.39-.2-.12-.15-.31-.5-.18-1.2l.07-.4-.4.07c-.16.03-.3.04-.43.04-.43,0-.76-.14-.9-.38-.08-.15-.08-.32,0-.46.14-.24.47-.38.9-.38.13,0,.28.01.43.04l.4.07-.07-.4c-.12-.7.06-1.05.18-1.2.11-.13.24-.2.39-.2s.28.07.39.2c.12.15.31.5.18,1.2l-.07.4.4-.07c.16-.03.3-.04.43-.04.66,0,.96.32.96.61s-.3.61-.96.61c-.13,0-.28-.01-.43-.04l-.4-.07.07.4c.13.7-.06,1.05-.18,1.2-.11.13-.24.2-.39.2Z"/>
      <circle class="cls-1" cx="31.47" cy="26.35" r=".58"/>
      <circle class="cls-1" cx="22.97" cy="28.9" r=".58"/>
      <circle class="cls-1" cx="39.97" cy="30.6" r=".86"/>
      <circle class="cls-1" cx="36.57" cy="41.65" r=".58"/>
    </g>
  </g>
</svg>