<?xml version="1.0" encoding="UTF-8"?>
<svg id="Capa_2" data-name="Capa 2" xmlns="http://www.w3.org/2000/svg" viewBox="0 0 51.02 53.42">
  <defs>
    <style>
      .cls-1 {
        fill: #edf0f4;
      }
    </style>
  </defs>
  <g id="Capa_1-2" data-name="Capa 1">
    <g>
      <path class="cls-1" d="M47.99,15.65c-.15-.15.18-3.6-.08-4.25-.1-.26-.4-.5-.7-.45l-16.16.02c-1.65.25-3.09,1.19-3.98,2.59-.63-.96-1.52-1.77-2.59-2.21-.28-.11-1.26-.32-1.31-.46-.18-2.46.19-5.15-.03-7.59-.17-1.86-1.29-3.11-3.16-3.3l-11.97.03h0s-4.2,0-4.2,0c-.67-.05-1.47.12-1.86.31C.8.9.19,2.04.11,3.29c-.34,4.9.26,10.19,0,15.13.15,1.49,1.45,3.01,3.02,2.97v24.26c.11,1.36.94,2.33,2.25,2.65h12.41s.36.17.36.17v2.3c0,.16.42,1.05.54,1.23.51.75,1.34,1.16,2.17,1.43h17.53c.99-.3,1.81-.77,2.31-1.7.07-.13.4-.9.4-.96v-2.45h7.77c.87,0,2.19-1.66,2.14-2.56v-27.44c-.13-1.59-1.42-2.78-3.02-2.66ZM3.5,19.93c-.96-.1-1.79-.69-1.83-1.72V3.09c.14-.78.74-1.41,1.53-1.51.29-.04.68.01,1.02-.03h3.8s11.97.02,11.97.02c1.01.11,1.56.96,1.62,1.93-.27,4.69.35,9.76,0,14.4-.21,2.83-2.52,1.75-4.33,2.04-.21.03-.58.26-.58.46v3.44l-.26.16-3.39-4.02-9.55-.05ZM18.16,46.74H5.59c-.23,0-.89-.66-.89-.89v-24.36h1.46v23c0,.23.44.44.68.47,3.41.37,7.48-.27,10.96,0l.36.16v1.62ZM18.16,43.4H7.73v-3.13h10.43v3.13ZM18.16,34.59v4.12H7.73v-17.21h4.64l2.88,3.59c.68.56,1.46.64,2.22.15,1.15-.75.72-2.57.8-3.74h1.83c1.46,0,3.08-1.74,3.08-3.18v-5.69c1.29.13,2.48,1.27,2.9,2.47.05.14.23.73.23.81v12.67c-.73-.74-1.79-1.03-2.66-.31-.15.12-.57.73-.57.89v2.76h-1.93c-1.09,0-2.97,1.53-2.97,2.66ZM38.43,51.72c-5.73.29-11.53.06-17.28.12-.74-.16-1.36-.72-1.42-1.5l.02-15.52c.58-2.01,2.88-1.07,4.3-1.33.24-.05.58-.47.58-.68v-3.39c.19-.03.23,0,.36.11.83.72,1.83,2.48,2.67,3.38.13.14.44.51.59.56l9.67.03c.75.09,1.25.48,1.55,1.16l.08,15.57c-.02.68-.48,1.29-1.12,1.48ZM40.71,33.63c-.58-1.05-1.72-1.61-2.89-1.7h-8.95c-.35-.56-.95-.92-1.02-1.61-.42-4.55.32-9.77.02-14.39.02-1.34,1.86-3.4,3.17-3.4h15.39v26.18h-5.32v-4.12c0-.05-.33-.84-.4-.96ZM46.43,40.27v3.13h-5.32v-3.13h5.32ZM49.38,45.89c-.04.28-.57.85-.82.85h-7.46v-1.77h6.42s.56-.51.47-.67v-8.63h-.01v-3.66s0-.02,0-.03v-14.76c.77-.13,1.47.54,1.46,1.3l-.07,27.37Z"/>
      <path class="cls-1" d="M15.51,16.48c.62.39,1.39-.06,1.22-.8-1.48-3.37-2.43-7.34-3.98-10.63-.24-.52-.36-.86-1.01-.88-.99-.03-1.07.8-1.38,1.55-1.33,3.21-2.38,6.54-3.71,9.75-.34.78.42,1.46,1.14,1.03.46-.27.96-2.47,1.16-2.52l5.55.02c.16.48.65,2.25,1.01,2.48ZM9.5,12.42l2.09-5.63,2.19,5.63h-4.28Z"/>
      <path class="cls-1" d="M44.31,24.76c-.15-.15-.53-.22-.75-.24-4.04-.37-8.63.29-12.73,0-1.04.05-1.24,1.44-.1,1.57h13.15c.64-.07.87-.89.43-1.33Z"/>
      <path class="cls-1" d="M43.77,17.74l-13.23.02c-.92.32-.66,1.54.29,1.54,4.09-.31,8.81.42,12.83,0,1.14-.12,1.13-1.45.11-1.57Z"/>
      <path class="cls-1" d="M30.73,15.86h13.04c.68,0,1-.87.54-1.33-.15-.15-.53-.22-.75-.24-4.04-.37-8.63.29-12.73,0-1.05.04-1.2,1.44-.1,1.57Z"/>
      <path class="cls-1" d="M30.94,22.75h12.62c1.03-.04,1.42-1.26.32-1.57l-13.44.03c-.89.54-.42,1.48.5,1.54Z"/>
      <path class="cls-1" d="M37.2,27.96c-1.97-.25-4.45.19-6.47,0-.95.04-1.02,1.42-.1,1.56,2.06-.18,4.57.26,6.57.01.67-.08.92-.86.54-1.33-.09-.12-.38-.22-.54-.24Z"/>
      <path class="cls-1" d="M35.21,36.83c-.65-.98-1.6.25-2.01.79-.98,1.3-1.56,2.89-1.69,4.52h-1.36s0-5.06,0-5.06c0-.42-.77-.74-1.21-.48-.07.04-.36.43-.36.48v5.06h-1.36c-.12-1.63-.71-3.22-1.69-4.52-.39-.52-1.27-1.71-1.97-.86-.6.74.35,1.28.72,1.79.73,1.03,1.2,2.15,1.36,3.42-.07.31-.97-.07-1.2.68-.21.67.51,1.04,1.09,1.06.02.87-.38,1.82-.81,2.56-.36.62-2.19,2.28-.86,2.7.76.24,1.2-.48,1.61-1,.91-1.17,1.51-2.69,1.67-4.17l1.42-.1v4.75c0,.42.77.74,1.21.48.07-.04.36-.43.36-.48v-4.75l1.42.1c.16,1.49.75,2.98,1.67,4.17.19.25.73.93.98,1.01.62.2,1.27-.23,1.11-.89-.09-.35-1.04-1.3-1.33-1.81-.43-.75-.83-1.69-.81-2.56,1.43-.03,1.55-1.66.06-1.59l-.16-.15c.16-1.33.68-2.46,1.45-3.54.34-.47,1.16-.88.67-1.61Z"/>
      <path class="cls-1" d="M21.45,28.27l-11.45.02c-.82.19-.6,1.56.29,1.54h11.06c.99-.06,1.12-1.47.1-1.57Z"/>
      <path class="cls-1" d="M16.53,31.62c-1.16-.16-5.07-.15-6.22.02-1.09.16-1.06,1.4-.23,1.53,2.1-.17,4.62.25,6.67,0,.99-.12.96-1.4-.22-1.56Z"/>
      <path class="cls-1" d="M9.99,26.38c.29.08,2.63.07,3,.02.88-.14.9-1.35.09-1.54-.37-.08-2.61-.08-2.98,0-.81.18-.77,1.33-.1,1.52Z"/>
      <path class="cls-1" d="M19.16,26.39c.39.06,2.12.07,2.47-.02.76-.18.71-1.39-.19-1.54-.48-.08-2.42-.08-2.73.23-.43.43-.15,1.23.45,1.32Z"/>
    </g>
  </g>
</svg>